<?xml version="1.0" encoding="utf-8" standalone="no"?>
<!DOCTYPE svg PUBLIC "-//W3C//DTD SVG 1.1//EN"
  "http://www.w3.org/Graphics/SVG/1.1/DTD/svg11.dtd">
<!-- Created with matplotlib (https://matplotlib.org/) -->
<svg height="288pt" version="1.1" viewBox="0 0 403.92 288" width="403.92pt" xmlns="http://www.w3.org/2000/svg" xmlns:xlink="http://www.w3.org/1999/xlink">
 <defs>
  <style type="text/css">
*{stroke-linecap:butt;stroke-linejoin:round;}
  </style>
 </defs>
 <g id="figure_1">
  <g id="patch_1">
   <path d="M 0 288 
L 403.92 288 
L 403.92 0 
L 0 0 
z
" style="fill:#ffffff;"/>
  </g>
  <g id="axes_1">
   <g id="patch_2">
    <path d="M 40.525 260.12 
L 393.12 260.12 
L 393.12 14.76 
L 40.525 14.76 
z
" style="fill:#ffffff;"/>
   </g>
   <g id="matplotlib.axis_1">
    <g id="xtick_1">
     <g id="line2d_1">
      <defs>
       <path d="M 0 0 
L 0 3.5 
" id="mf2811f6093" style="stroke:#000000;stroke-width:0.8;"/>
      </defs>
      <g>
       <use style="stroke:#000000;stroke-width:0.8;" x="56.552045" xlink:href="#mf2811f6093" y="260.12"/>
      </g>
     </g>
     <g id="text_1">
      <!-- 0 -->
      <defs>
       <path d="M 31.78125 66.40625 
Q 24.171875 66.40625 20.328125 58.90625 
Q 16.5 51.421875 16.5 36.375 
Q 16.5 21.390625 20.328125 13.890625 
Q 24.171875 6.390625 31.78125 6.390625 
Q 39.453125 6.390625 43.28125 13.890625 
Q 47.125 21.390625 47.125 36.375 
Q 47.125 51.421875 43.28125 58.90625 
Q 39.453125 66.40625 31.78125 66.40625 
z
M 31.78125 74.21875 
Q 44.046875 74.21875 50.515625 64.515625 
Q 56.984375 54.828125 56.984375 36.375 
Q 56.984375 17.96875 50.515625 8.265625 
Q 44.046875 -1.421875 31.78125 -1.421875 
Q 19.53125 -1.421875 13.0625 8.265625 
Q 6.59375 17.96875 6.59375 36.375 
Q 6.59375 54.828125 13.0625 64.515625 
Q 19.53125 74.21875 31.78125 74.21875 
z
" id="DejaVuSans-48"/>
      </defs>
      <g transform="translate(53.370795 274.718437)scale(0.1 -0.1)">
       <use xlink:href="#DejaVuSans-48"/>
      </g>
     </g>
    </g>
    <g id="xtick_2">
     <g id="line2d_2">
      <g>
       <use style="stroke:#000000;stroke-width:0.8;" x="120.660227" xlink:href="#mf2811f6093" y="260.12"/>
      </g>
     </g>
     <g id="text_2">
      <!-- 2 -->
      <defs>
       <path d="M 19.1875 8.296875 
L 53.609375 8.296875 
L 53.609375 0 
L 7.328125 0 
L 7.328125 8.296875 
Q 12.9375 14.109375 22.625 23.890625 
Q 32.328125 33.6875 34.8125 36.53125 
Q 39.546875 41.84375 41.421875 45.53125 
Q 43.3125 49.21875 43.3125 52.78125 
Q 43.3125 58.59375 39.234375 62.25 
Q 35.15625 65.921875 28.609375 65.921875 
Q 23.96875 65.921875 18.8125 64.3125 
Q 13.671875 62.703125 7.8125 59.421875 
L 7.8125 69.390625 
Q 13.765625 71.78125 18.9375 73 
Q 24.125 74.21875 28.421875 74.21875 
Q 39.75 74.21875 46.484375 68.546875 
Q 53.21875 62.890625 53.21875 53.421875 
Q 53.21875 48.921875 51.53125 44.890625 
Q 49.859375 40.875 45.40625 35.40625 
Q 44.1875 33.984375 37.640625 27.21875 
Q 31.109375 20.453125 19.1875 8.296875 
z
" id="DejaVuSans-50"/>
      </defs>
      <g transform="translate(117.478977 274.718437)scale(0.1 -0.1)">
       <use xlink:href="#DejaVuSans-50"/>
      </g>
     </g>
    </g>
    <g id="xtick_3">
     <g id="line2d_3">
      <g>
       <use style="stroke:#000000;stroke-width:0.8;" x="184.768409" xlink:href="#mf2811f6093" y="260.12"/>
      </g>
     </g>
     <g id="text_3">
      <!-- 4 -->
      <defs>
       <path d="M 37.796875 64.3125 
L 12.890625 25.390625 
L 37.796875 25.390625 
z
M 35.203125 72.90625 
L 47.609375 72.90625 
L 47.609375 25.390625 
L 58.015625 25.390625 
L 58.015625 17.1875 
L 47.609375 17.1875 
L 47.609375 0 
L 37.796875 0 
L 37.796875 17.1875 
L 4.890625 17.1875 
L 4.890625 26.703125 
z
" id="DejaVuSans-52"/>
      </defs>
      <g transform="translate(181.587159 274.718437)scale(0.1 -0.1)">
       <use xlink:href="#DejaVuSans-52"/>
      </g>
     </g>
    </g>
    <g id="xtick_4">
     <g id="line2d_4">
      <g>
       <use style="stroke:#000000;stroke-width:0.8;" x="248.876591" xlink:href="#mf2811f6093" y="260.12"/>
      </g>
     </g>
     <g id="text_4">
      <!-- 6 -->
      <defs>
       <path d="M 33.015625 40.375 
Q 26.375 40.375 22.484375 35.828125 
Q 18.609375 31.296875 18.609375 23.390625 
Q 18.609375 15.53125 22.484375 10.953125 
Q 26.375 6.390625 33.015625 6.390625 
Q 39.65625 6.390625 43.53125 10.953125 
Q 47.40625 15.53125 47.40625 23.390625 
Q 47.40625 31.296875 43.53125 35.828125 
Q 39.65625 40.375 33.015625 40.375 
z
M 52.59375 71.296875 
L 52.59375 62.3125 
Q 48.875 64.0625 45.09375 64.984375 
Q 41.3125 65.921875 37.59375 65.921875 
Q 27.828125 65.921875 22.671875 59.328125 
Q 17.53125 52.734375 16.796875 39.40625 
Q 19.671875 43.65625 24.015625 45.921875 
Q 28.375 48.1875 33.59375 48.1875 
Q 44.578125 48.1875 50.953125 41.515625 
Q 57.328125 34.859375 57.328125 23.390625 
Q 57.328125 12.15625 50.6875 5.359375 
Q 44.046875 -1.421875 33.015625 -1.421875 
Q 20.359375 -1.421875 13.671875 8.265625 
Q 6.984375 17.96875 6.984375 36.375 
Q 6.984375 53.65625 15.1875 63.9375 
Q 23.390625 74.21875 37.203125 74.21875 
Q 40.921875 74.21875 44.703125 73.484375 
Q 48.484375 72.75 52.59375 71.296875 
z
" id="DejaVuSans-54"/>
      </defs>
      <g transform="translate(245.695341 274.718437)scale(0.1 -0.1)">
       <use xlink:href="#DejaVuSans-54"/>
      </g>
     </g>
    </g>
    <g id="xtick_5">
     <g id="line2d_5">
      <g>
       <use style="stroke:#000000;stroke-width:0.8;" x="312.984773" xlink:href="#mf2811f6093" y="260.12"/>
      </g>
     </g>
     <g id="text_5">
      <!-- 8 -->
      <defs>
       <path d="M 31.78125 34.625 
Q 24.75 34.625 20.71875 30.859375 
Q 16.703125 27.09375 16.703125 20.515625 
Q 16.703125 13.921875 20.71875 10.15625 
Q 24.75 6.390625 31.78125 6.390625 
Q 38.8125 6.390625 42.859375 10.171875 
Q 46.921875 13.96875 46.921875 20.515625 
Q 46.921875 27.09375 42.890625 30.859375 
Q 38.875 34.625 31.78125 34.625 
z
M 21.921875 38.8125 
Q 15.578125 40.375 12.03125 44.71875 
Q 8.5 49.078125 8.5 55.328125 
Q 8.5 64.0625 14.71875 69.140625 
Q 20.953125 74.21875 31.78125 74.21875 
Q 42.671875 74.21875 48.875 69.140625 
Q 55.078125 64.0625 55.078125 55.328125 
Q 55.078125 49.078125 51.53125 44.71875 
Q 48 40.375 41.703125 38.8125 
Q 48.828125 37.15625 52.796875 32.3125 
Q 56.78125 27.484375 56.78125 20.515625 
Q 56.78125 9.90625 50.3125 4.234375 
Q 43.84375 -1.421875 31.78125 -1.421875 
Q 19.734375 -1.421875 13.25 4.234375 
Q 6.78125 9.90625 6.78125 20.515625 
Q 6.78125 27.484375 10.78125 32.3125 
Q 14.796875 37.15625 21.921875 38.8125 
z
M 18.3125 54.390625 
Q 18.3125 48.734375 21.84375 45.5625 
Q 25.390625 42.390625 31.78125 42.390625 
Q 38.140625 42.390625 41.71875 45.5625 
Q 45.3125 48.734375 45.3125 54.390625 
Q 45.3125 60.0625 41.71875 63.234375 
Q 38.140625 66.40625 31.78125 66.40625 
Q 25.390625 66.40625 21.84375 63.234375 
Q 18.3125 60.0625 18.3125 54.390625 
z
" id="DejaVuSans-56"/>
      </defs>
      <g transform="translate(309.803523 274.718437)scale(0.1 -0.1)">
       <use xlink:href="#DejaVuSans-56"/>
      </g>
     </g>
    </g>
    <g id="xtick_6">
     <g id="line2d_6">
      <g>
       <use style="stroke:#000000;stroke-width:0.8;" x="377.092955" xlink:href="#mf2811f6093" y="260.12"/>
      </g>
     </g>
     <g id="text_6">
      <!-- 10 -->
      <defs>
       <path d="M 12.40625 8.296875 
L 28.515625 8.296875 
L 28.515625 63.921875 
L 10.984375 60.40625 
L 10.984375 69.390625 
L 28.421875 72.90625 
L 38.28125 72.90625 
L 38.28125 8.296875 
L 54.390625 8.296875 
L 54.390625 0 
L 12.40625 0 
z
" id="DejaVuSans-49"/>
      </defs>
      <g transform="translate(370.730455 274.718437)scale(0.1 -0.1)">
       <use xlink:href="#DejaVuSans-49"/>
       <use x="63.623047" xlink:href="#DejaVuSans-48"/>
      </g>
     </g>
    </g>
   </g>
   <g id="matplotlib.axis_2">
    <g id="ytick_1">
     <g id="line2d_7">
      <defs>
       <path d="M 0 0 
L -3.5 0 
" id="mf8ab0b27a0" style="stroke:#000000;stroke-width:0.8;"/>
      </defs>
      <g>
       <use style="stroke:#000000;stroke-width:0.8;" x="40.525" xlink:href="#mf8ab0b27a0" y="256.830691"/>
      </g>
     </g>
     <g id="text_7">
      <!-- -100 -->
      <defs>
       <path d="M 4.890625 31.390625 
L 31.203125 31.390625 
L 31.203125 23.390625 
L 4.890625 23.390625 
z
" id="DejaVuSans-45"/>
      </defs>
      <g transform="translate(10.829687 260.629909)scale(0.1 -0.1)">
       <use xlink:href="#DejaVuSans-45"/>
       <use x="36.083984" xlink:href="#DejaVuSans-49"/>
       <use x="99.707031" xlink:href="#DejaVuSans-48"/>
       <use x="163.330078" xlink:href="#DejaVuSans-48"/>
      </g>
     </g>
    </g>
    <g id="ytick_2">
     <g id="line2d_8">
      <g>
       <use style="stroke:#000000;stroke-width:0.8;" x="40.525" xlink:href="#mf8ab0b27a0" y="226.571854"/>
      </g>
     </g>
    </g>
    <g id="ytick_3">
     <g id="line2d_9">
      <g>
       <use style="stroke:#000000;stroke-width:0.8;" x="40.525" xlink:href="#mf8ab0b27a0" y="196.313018"/>
      </g>
     </g>
     <g id="text_8">
      <!-- -50 -->
      <defs>
       <path d="M 10.796875 72.90625 
L 49.515625 72.90625 
L 49.515625 64.59375 
L 19.828125 64.59375 
L 19.828125 46.734375 
Q 21.96875 47.46875 24.109375 47.828125 
Q 26.265625 48.1875 28.421875 48.1875 
Q 40.625 48.1875 47.75 41.5 
Q 54.890625 34.8125 54.890625 23.390625 
Q 54.890625 11.625 47.5625 5.09375 
Q 40.234375 -1.421875 26.90625 -1.421875 
Q 22.3125 -1.421875 17.546875 -0.640625 
Q 12.796875 0.140625 7.71875 1.703125 
L 7.71875 11.625 
Q 12.109375 9.234375 16.796875 8.0625 
Q 21.484375 6.890625 26.703125 6.890625 
Q 35.15625 6.890625 40.078125 11.328125 
Q 45.015625 15.765625 45.015625 23.390625 
Q 45.015625 31 40.078125 35.4375 
Q 35.15625 39.890625 26.703125 39.890625 
Q 22.75 39.890625 18.8125 39.015625 
Q 14.890625 38.140625 10.796875 36.28125 
z
" id="DejaVuSans-53"/>
      </defs>
      <g transform="translate(17.192187 200.112237)scale(0.1 -0.1)">
       <use xlink:href="#DejaVuSans-45"/>
       <use x="36.083984" xlink:href="#DejaVuSans-53"/>
       <use x="99.707031" xlink:href="#DejaVuSans-48"/>
      </g>
     </g>
    </g>
    <g id="ytick_4">
     <g id="line2d_10">
      <g>
       <use style="stroke:#000000;stroke-width:0.8;" x="40.525" xlink:href="#mf8ab0b27a0" y="166.054182"/>
      </g>
     </g>
    </g>
    <g id="ytick_5">
     <g id="line2d_11">
      <g>
       <use style="stroke:#000000;stroke-width:0.8;" x="40.525" xlink:href="#mf8ab0b27a0" y="135.795345"/>
      </g>
     </g>
     <g id="text_9">
      <!-- 0 -->
      <g transform="translate(27.1625 139.594564)scale(0.1 -0.1)">
       <use xlink:href="#DejaVuSans-48"/>
      </g>
     </g>
    </g>
    <g id="ytick_6">
     <g id="line2d_12">
      <g>
       <use style="stroke:#000000;stroke-width:0.8;" x="40.525" xlink:href="#mf8ab0b27a0" y="105.536509"/>
      </g>
     </g>
    </g>
    <g id="ytick_7">
     <g id="line2d_13">
      <g>
       <use style="stroke:#000000;stroke-width:0.8;" x="40.525" xlink:href="#mf8ab0b27a0" y="75.277673"/>
      </g>
     </g>
     <g id="text_10">
      <!-- 50 -->
      <g transform="translate(20.8 79.076891)scale(0.1 -0.1)">
       <use xlink:href="#DejaVuSans-53"/>
       <use x="63.623047" xlink:href="#DejaVuSans-48"/>
      </g>
     </g>
    </g>
    <g id="ytick_8">
     <g id="line2d_14">
      <g>
       <use style="stroke:#000000;stroke-width:0.8;" x="40.525" xlink:href="#mf8ab0b27a0" y="45.018836"/>
      </g>
     </g>
    </g>
    <g id="ytick_9">
     <g id="line2d_15">
      <g>
       <use style="stroke:#000000;stroke-width:0.8;" x="40.525" xlink:href="#mf8ab0b27a0" y="14.76"/>
      </g>
     </g>
     <g id="text_11">
      <!-- 100 -->
      <g transform="translate(14.4375 18.559219)scale(0.1 -0.1)">
       <use xlink:href="#DejaVuSans-49"/>
       <use x="63.623047" xlink:href="#DejaVuSans-48"/>
       <use x="127.246094" xlink:href="#DejaVuSans-48"/>
      </g>
     </g>
    </g>
   </g>
   <g id="line2d_16">
    <path clip-path="url(#p7f5b83ac54)" d="M 56.552045 135.795345 
L 59.789832 135.678601 
L 63.027619 135.65669 
L 66.265406 136.02207 
L 69.503193 136.252173 
L 72.74098 135.756575 
L 75.978767 135.082475 
L 79.216554 135.355737 
L 82.454341 136.447488 
L 85.692128 136.796233 
L 88.929915 135.640576 
L 92.167702 134.470939 
L 95.405489 135.123083 
L 98.643276 136.928068 
L 101.881063 137.304051 
L 105.11885 135.448283 
L 108.356637 133.851271 
L 111.594424 134.962057 
L 114.832211 137.45848 
L 118.069998 137.769173 
L 121.307785 135.181249 
L 124.545572 133.230837 
L 127.783359 134.875423 
L 131.021146 138.032974 
L 134.258933 138.185466 
L 137.496719 134.841631 
L 140.734506 132.617039 
L 143.972293 134.865356 
L 147.21008 138.645417 
L 150.447867 138.547157 
L 153.685654 134.432185 
L 156.923441 132.01727 
L 160.161228 134.933435 
L 163.399015 139.289335 
L 166.636802 138.848874 
L 169.874589 133.956241 
L 173.112376 131.438859 
L 176.350163 135.080619 
L 179.58795 139.957954 
L 182.825737 139.085683 
L 186.063524 133.417689 
L 189.301311 130.889025 
L 192.539098 135.307248 
L 195.776885 140.644246 
L 199.014672 139.253124 
L 202.252459 132.820952 
L 205.490246 130.374828 
L 208.728033 135.613033 
L 211.96582 141.34097 
L 215.203607 139.347242 
L 218.441393 132.170961 
L 221.67918 129.90312 
L 224.916967 135.997053 
L 228.154754 142.040724 
L 231.392541 139.364617 
L 234.630328 131.473122 
L 237.868115 129.480498 
L 241.105902 136.457763 
L 244.343689 142.735994 
L 247.581476 139.302388 
L 250.819263 130.733288 
L 254.05705 129.113263 
L 257.294837 136.992995 
L 260.532624 143.419197 
L 263.770411 139.158279 
L 267.008198 129.957718 
L 270.245985 128.807366 
L 273.483772 137.599971 
L 276.721559 144.082736 
L 279.959346 138.930614 
L 283.197133 129.153041 
L 286.43492 128.568379 
L 289.672707 138.275316 
L 292.910494 144.71905 
L 296.148281 138.618339 
L 299.386067 128.326218 
L 302.623854 128.401443 
L 305.861641 139.015075 
L 309.099428 145.320662 
L 312.337215 138.221027 
L 315.575002 127.484492 
L 318.812789 128.311239 
L 322.050576 139.814734 
L 325.288363 145.880229 
L 328.52615 137.738892 
L 331.763937 126.635349 
L 335.001724 128.301949 
L 338.239511 140.669244 
L 341.477298 146.390594 
L 344.715085 137.172792 
L 347.952872 125.786471 
L 351.190659 128.377226 
L 354.428446 141.573049 
L 357.666233 146.84483 
L 360.90402 136.524229 
L 364.141807 124.945682 
L 367.379594 128.540161 
L 370.617381 142.520119 
L 373.855168 147.236293 
L 377.092955 135.795345 
" style="fill:none;stroke:#6495ed;stroke-linecap:square;stroke-width:1.5;"/>
    <defs>
     <path d="M 0 1.5 
C 0.397805 1.5 0.77937 1.341951 1.06066 1.06066 
C 1.341951 0.77937 1.5 0.397805 1.5 0 
C 1.5 -0.397805 1.341951 -0.77937 1.06066 -1.06066 
C 0.77937 -1.341951 0.397805 -1.5 0 -1.5 
C -0.397805 -1.5 -0.77937 -1.341951 -1.06066 -1.06066 
C -1.341951 -0.77937 -1.5 -0.397805 -1.5 0 
C -1.5 0.397805 -1.341951 0.77937 -1.06066 1.06066 
C -0.77937 1.341951 -0.397805 1.5 0 1.5 
z
" id="m0e4c673187" style="stroke:#6495ed;"/>
    </defs>
    <g clip-path="url(#p7f5b83ac54)">
     <use style="fill:#6495ed;stroke:#6495ed;" x="56.552045" xlink:href="#m0e4c673187" y="135.795345"/>
     <use style="fill:#6495ed;stroke:#6495ed;" x="59.789832" xlink:href="#m0e4c673187" y="135.678601"/>
     <use style="fill:#6495ed;stroke:#6495ed;" x="63.027619" xlink:href="#m0e4c673187" y="135.65669"/>
     <use style="fill:#6495ed;stroke:#6495ed;" x="66.265406" xlink:href="#m0e4c673187" y="136.02207"/>
     <use style="fill:#6495ed;stroke:#6495ed;" x="69.503193" xlink:href="#m0e4c673187" y="136.252173"/>
     <use style="fill:#6495ed;stroke:#6495ed;" x="72.74098" xlink:href="#m0e4c673187" y="135.756575"/>
     <use style="fill:#6495ed;stroke:#6495ed;" x="75.978767" xlink:href="#m0e4c673187" y="135.082475"/>
     <use style="fill:#6495ed;stroke:#6495ed;" x="79.216554" xlink:href="#m0e4c673187" y="135.355737"/>
     <use style="fill:#6495ed;stroke:#6495ed;" x="82.454341" xlink:href="#m0e4c673187" y="136.447488"/>
     <use style="fill:#6495ed;stroke:#6495ed;" x="85.692128" xlink:href="#m0e4c673187" y="136.796233"/>
     <use style="fill:#6495ed;stroke:#6495ed;" x="88.929915" xlink:href="#m0e4c673187" y="135.640576"/>
     <use style="fill:#6495ed;stroke:#6495ed;" x="92.167702" xlink:href="#m0e4c673187" y="134.470939"/>
     <use style="fill:#6495ed;stroke:#6495ed;" x="95.405489" xlink:href="#m0e4c673187" y="135.123083"/>
     <use style="fill:#6495ed;stroke:#6495ed;" x="98.643276" xlink:href="#m0e4c673187" y="136.928068"/>
     <use style="fill:#6495ed;stroke:#6495ed;" x="101.881063" xlink:href="#m0e4c673187" y="137.304051"/>
     <use style="fill:#6495ed;stroke:#6495ed;" x="105.11885" xlink:href="#m0e4c673187" y="135.448283"/>
     <use style="fill:#6495ed;stroke:#6495ed;" x="108.356637" xlink:href="#m0e4c673187" y="133.851271"/>
     <use style="fill:#6495ed;stroke:#6495ed;" x="111.594424" xlink:href="#m0e4c673187" y="134.962057"/>
     <use style="fill:#6495ed;stroke:#6495ed;" x="114.832211" xlink:href="#m0e4c673187" y="137.45848"/>
     <use style="fill:#6495ed;stroke:#6495ed;" x="118.069998" xlink:href="#m0e4c673187" y="137.769173"/>
     <use style="fill:#6495ed;stroke:#6495ed;" x="121.307785" xlink:href="#m0e4c673187" y="135.181249"/>
     <use style="fill:#6495ed;stroke:#6495ed;" x="124.545572" xlink:href="#m0e4c673187" y="133.230837"/>
     <use style="fill:#6495ed;stroke:#6495ed;" x="127.783359" xlink:href="#m0e4c673187" y="134.875423"/>
     <use style="fill:#6495ed;stroke:#6495ed;" x="131.021146" xlink:href="#m0e4c673187" y="138.032974"/>
     <use style="fill:#6495ed;stroke:#6495ed;" x="134.258933" xlink:href="#m0e4c673187" y="138.185466"/>
     <use style="fill:#6495ed;stroke:#6495ed;" x="137.496719" xlink:href="#m0e4c673187" y="134.841631"/>
     <use style="fill:#6495ed;stroke:#6495ed;" x="140.734506" xlink:href="#m0e4c673187" y="132.617039"/>
     <use style="fill:#6495ed;stroke:#6495ed;" x="143.972293" xlink:href="#m0e4c673187" y="134.865356"/>
     <use style="fill:#6495ed;stroke:#6495ed;" x="147.21008" xlink:href="#m0e4c673187" y="138.645417"/>
     <use style="fill:#6495ed;stroke:#6495ed;" x="150.447867" xlink:href="#m0e4c673187" y="138.547157"/>
     <use style="fill:#6495ed;stroke:#6495ed;" x="153.685654" xlink:href="#m0e4c673187" y="134.432185"/>
     <use style="fill:#6495ed;stroke:#6495ed;" x="156.923441" xlink:href="#m0e4c673187" y="132.01727"/>
     <use style="fill:#6495ed;stroke:#6495ed;" x="160.161228" xlink:href="#m0e4c673187" y="134.933435"/>
     <use style="fill:#6495ed;stroke:#6495ed;" x="163.399015" xlink:href="#m0e4c673187" y="139.289335"/>
     <use style="fill:#6495ed;stroke:#6495ed;" x="166.636802" xlink:href="#m0e4c673187" y="138.848874"/>
     <use style="fill:#6495ed;stroke:#6495ed;" x="169.874589" xlink:href="#m0e4c673187" y="133.956241"/>
     <use style="fill:#6495ed;stroke:#6495ed;" x="173.112376" xlink:href="#m0e4c673187" y="131.438859"/>
     <use style="fill:#6495ed;stroke:#6495ed;" x="176.350163" xlink:href="#m0e4c673187" y="135.080619"/>
     <use style="fill:#6495ed;stroke:#6495ed;" x="179.58795" xlink:href="#m0e4c673187" y="139.957954"/>
     <use style="fill:#6495ed;stroke:#6495ed;" x="182.825737" xlink:href="#m0e4c673187" y="139.085683"/>
     <use style="fill:#6495ed;stroke:#6495ed;" x="186.063524" xlink:href="#m0e4c673187" y="133.417689"/>
     <use style="fill:#6495ed;stroke:#6495ed;" x="189.301311" xlink:href="#m0e4c673187" y="130.889025"/>
     <use style="fill:#6495ed;stroke:#6495ed;" x="192.539098" xlink:href="#m0e4c673187" y="135.307248"/>
     <use style="fill:#6495ed;stroke:#6495ed;" x="195.776885" xlink:href="#m0e4c673187" y="140.644246"/>
     <use style="fill:#6495ed;stroke:#6495ed;" x="199.014672" xlink:href="#m0e4c673187" y="139.253124"/>
     <use style="fill:#6495ed;stroke:#6495ed;" x="202.252459" xlink:href="#m0e4c673187" y="132.820952"/>
     <use style="fill:#6495ed;stroke:#6495ed;" x="205.490246" xlink:href="#m0e4c673187" y="130.374828"/>
     <use style="fill:#6495ed;stroke:#6495ed;" x="208.728033" xlink:href="#m0e4c673187" y="135.613033"/>
     <use style="fill:#6495ed;stroke:#6495ed;" x="211.96582" xlink:href="#m0e4c673187" y="141.34097"/>
     <use style="fill:#6495ed;stroke:#6495ed;" x="215.203607" xlink:href="#m0e4c673187" y="139.347242"/>
     <use style="fill:#6495ed;stroke:#6495ed;" x="218.441393" xlink:href="#m0e4c673187" y="132.170961"/>
     <use style="fill:#6495ed;stroke:#6495ed;" x="221.67918" xlink:href="#m0e4c673187" y="129.90312"/>
     <use style="fill:#6495ed;stroke:#6495ed;" x="224.916967" xlink:href="#m0e4c673187" y="135.997053"/>
     <use style="fill:#6495ed;stroke:#6495ed;" x="228.154754" xlink:href="#m0e4c673187" y="142.040724"/>
     <use style="fill:#6495ed;stroke:#6495ed;" x="231.392541" xlink:href="#m0e4c673187" y="139.364617"/>
     <use style="fill:#6495ed;stroke:#6495ed;" x="234.630328" xlink:href="#m0e4c673187" y="131.473122"/>
     <use style="fill:#6495ed;stroke:#6495ed;" x="237.868115" xlink:href="#m0e4c673187" y="129.480498"/>
     <use style="fill:#6495ed;stroke:#6495ed;" x="241.105902" xlink:href="#m0e4c673187" y="136.457763"/>
     <use style="fill:#6495ed;stroke:#6495ed;" x="244.343689" xlink:href="#m0e4c673187" y="142.735994"/>
     <use style="fill:#6495ed;stroke:#6495ed;" x="247.581476" xlink:href="#m0e4c673187" y="139.302388"/>
     <use style="fill:#6495ed;stroke:#6495ed;" x="250.819263" xlink:href="#m0e4c673187" y="130.733288"/>
     <use style="fill:#6495ed;stroke:#6495ed;" x="254.05705" xlink:href="#m0e4c673187" y="129.113263"/>
     <use style="fill:#6495ed;stroke:#6495ed;" x="257.294837" xlink:href="#m0e4c673187" y="136.992995"/>
     <use style="fill:#6495ed;stroke:#6495ed;" x="260.532624" xlink:href="#m0e4c673187" y="143.419197"/>
     <use style="fill:#6495ed;stroke:#6495ed;" x="263.770411" xlink:href="#m0e4c673187" y="139.158279"/>
     <use style="fill:#6495ed;stroke:#6495ed;" x="267.008198" xlink:href="#m0e4c673187" y="129.957718"/>
     <use style="fill:#6495ed;stroke:#6495ed;" x="270.245985" xlink:href="#m0e4c673187" y="128.807366"/>
     <use style="fill:#6495ed;stroke:#6495ed;" x="273.483772" xlink:href="#m0e4c673187" y="137.599971"/>
     <use style="fill:#6495ed;stroke:#6495ed;" x="276.721559" xlink:href="#m0e4c673187" y="144.082736"/>
     <use style="fill:#6495ed;stroke:#6495ed;" x="279.959346" xlink:href="#m0e4c673187" y="138.930614"/>
     <use style="fill:#6495ed;stroke:#6495ed;" x="283.197133" xlink:href="#m0e4c673187" y="129.153041"/>
     <use style="fill:#6495ed;stroke:#6495ed;" x="286.43492" xlink:href="#m0e4c673187" y="128.568379"/>
     <use style="fill:#6495ed;stroke:#6495ed;" x="289.672707" xlink:href="#m0e4c673187" y="138.275316"/>
     <use style="fill:#6495ed;stroke:#6495ed;" x="292.910494" xlink:href="#m0e4c673187" y="144.71905"/>
     <use style="fill:#6495ed;stroke:#6495ed;" x="296.148281" xlink:href="#m0e4c673187" y="138.618339"/>
     <use style="fill:#6495ed;stroke:#6495ed;" x="299.386067" xlink:href="#m0e4c673187" y="128.326218"/>
     <use style="fill:#6495ed;stroke:#6495ed;" x="302.623854" xlink:href="#m0e4c673187" y="128.401443"/>
     <use style="fill:#6495ed;stroke:#6495ed;" x="305.861641" xlink:href="#m0e4c673187" y="139.015075"/>
     <use style="fill:#6495ed;stroke:#6495ed;" x="309.099428" xlink:href="#m0e4c673187" y="145.320662"/>
     <use style="fill:#6495ed;stroke:#6495ed;" x="312.337215" xlink:href="#m0e4c673187" y="138.221027"/>
     <use style="fill:#6495ed;stroke:#6495ed;" x="315.575002" xlink:href="#m0e4c673187" y="127.484492"/>
     <use style="fill:#6495ed;stroke:#6495ed;" x="318.812789" xlink:href="#m0e4c673187" y="128.311239"/>
     <use style="fill:#6495ed;stroke:#6495ed;" x="322.050576" xlink:href="#m0e4c673187" y="139.814734"/>
     <use style="fill:#6495ed;stroke:#6495ed;" x="325.288363" xlink:href="#m0e4c673187" y="145.880229"/>
     <use style="fill:#6495ed;stroke:#6495ed;" x="328.52615" xlink:href="#m0e4c673187" y="137.738892"/>
     <use style="fill:#6495ed;stroke:#6495ed;" x="331.763937" xlink:href="#m0e4c673187" y="126.635349"/>
     <use style="fill:#6495ed;stroke:#6495ed;" x="335.001724" xlink:href="#m0e4c673187" y="128.301949"/>
     <use style="fill:#6495ed;stroke:#6495ed;" x="338.239511" xlink:href="#m0e4c673187" y="140.669244"/>
     <use style="fill:#6495ed;stroke:#6495ed;" x="341.477298" xlink:href="#m0e4c673187" y="146.390594"/>
     <use style="fill:#6495ed;stroke:#6495ed;" x="344.715085" xlink:href="#m0e4c673187" y="137.172792"/>
     <use style="fill:#6495ed;stroke:#6495ed;" x="347.952872" xlink:href="#m0e4c673187" y="125.786471"/>
     <use style="fill:#6495ed;stroke:#6495ed;" x="351.190659" xlink:href="#m0e4c673187" y="128.377226"/>
     <use style="fill:#6495ed;stroke:#6495ed;" x="354.428446" xlink:href="#m0e4c673187" y="141.573049"/>
     <use style="fill:#6495ed;stroke:#6495ed;" x="357.666233" xlink:href="#m0e4c673187" y="146.84483"/>
     <use style="fill:#6495ed;stroke:#6495ed;" x="360.90402" xlink:href="#m0e4c673187" y="136.524229"/>
     <use style="fill:#6495ed;stroke:#6495ed;" x="364.141807" xlink:href="#m0e4c673187" y="124.945682"/>
     <use style="fill:#6495ed;stroke:#6495ed;" x="367.379594" xlink:href="#m0e4c673187" y="128.540161"/>
     <use style="fill:#6495ed;stroke:#6495ed;" x="370.617381" xlink:href="#m0e4c673187" y="142.520119"/>
     <use style="fill:#6495ed;stroke:#6495ed;" x="373.855168" xlink:href="#m0e4c673187" y="147.236293"/>
     <use style="fill:#6495ed;stroke:#6495ed;" x="377.092955" xlink:href="#m0e4c673187" y="135.795345"/>
    </g>
   </g>
   <g id="line2d_17">
    <path clip-path="url(#p7f5b83ac54)" d="M 56.552045 135.795345 
L 59.789832 135.070468 
L 63.027619 133.460458 
L 66.265406 132.32933 
L 69.503193 133.022243 
L 72.74098 135.989295 
L 75.978767 140.329835 
L 79.216554 144.043959 
L 82.454341 144.931904 
L 85.692128 141.744131 
L 88.929915 135.019938 
L 92.167702 127.150899 
L 95.405489 121.537945 
L 98.643276 121.135879 
L 101.881063 127.003187 
L 105.11885 137.538548 
L 108.356637 148.838192 
L 111.594424 156.138626 
L 114.832211 155.813095 
L 118.069998 147.089212 
L 121.307785 132.699959 
L 124.545572 118.078143 
L 127.783359 109.307224 
L 131.021146 110.600607 
L 134.258933 122.350108 
L 137.496719 140.624576 
L 140.734506 158.449798 
L 143.972293 168.468994 
L 147.21008 165.96945 
L 150.447867 151.033637 
L 153.685654 128.854106 
L 156.923441 107.954351 
L 160.161228 96.913864 
L 163.399015 100.855451 
L 166.636802 119.129587 
L 169.874589 145.222493 
L 173.112376 169.05804 
L 176.350163 180.888502 
L 179.58795 175.271899 
L 182.825737 153.516431 
L 186.063524 123.513413 
L 189.301311 96.890422 
L 192.539098 84.505177 
L 195.776885 92.026392 
L 199.014672 117.396889 
L 202.252459 151.295162 
L 205.490246 180.547913 
L 208.728033 193.249337 
L 211.96582 183.597761 
L 215.203607 154.48814 
L 218.441393 116.721065 
L 221.67918 85.005279 
L 224.916967 72.229227 
L 228.154754 84.232604 
L 231.392541 117.195565 
L 234.630328 158.793415 
L 237.868115 192.796772 
L 241.105902 205.403431 
L 244.343689 190.831578 
L 247.581476 153.911196 
L 250.819263 108.532137 
L 254.05705 72.425088 
L 257.294837 60.23384 
L 260.532624 77.585629 
L 263.770411 118.557132 
L 267.008198 167.656353 
L 270.245985 205.675135 
L 273.483772 217.203446 
L 276.721559 196.865913 
L 279.959346 151.760196 
L 283.197133 99.013262 
L 286.43492 59.282438 
L 289.672707 48.665614 
L 292.910494 72.188613 
L 296.148281 121.500822 
L 299.386067 177.811713 
L 302.623854 219.047523 
L 305.861641 228.50377 
L 309.099428 201.602095 
L 312.337215 148.022121 
L 315.575002 88.242222 
L 318.812789 45.715472 
L 322.050576 37.668934 
L 325.288363 68.135576 
L 328.52615 126.033407 
L 331.763937 189.176307 
L 335.001724 232.77335 
L 338.239511 239.161494 
L 341.477298 204.950919 
L 344.715085 142.696474 
L 347.952872 76.307483 
L 351.190659 31.866995 
L 354.428446 27.384991 
L 357.666233 65.510749 
L 360.90402 132.149093 
L 364.141807 201.656529 
L 367.379594 246.707831 
L 370.617381 249.037381 
L 373.855168 206.833284 
L 377.092955 135.795345 
" style="fill:none;stroke:#70c0c6;stroke-dasharray:5.55,2.4;stroke-dashoffset:0;stroke-width:1.5;"/>
    <defs>
     <path d="M 0 -3 
L -0.673542 -0.927051 
L -2.85317 -0.927051 
L -1.089814 0.354102 
L -1.763356 2.427051 
L -0 1.145898 
L 1.763356 2.427051 
L 1.089814 0.354102 
L 2.85317 -0.927051 
L 0.673542 -0.927051 
z
" id="me238037088" style="stroke:#70c0c6;stroke-linejoin:bevel;"/>
    </defs>
    <g clip-path="url(#p7f5b83ac54)">
     <use style="fill:#70c0c6;stroke:#70c0c6;stroke-linejoin:bevel;" x="56.552045" xlink:href="#me238037088" y="135.795345"/>
     <use style="fill:#70c0c6;stroke:#70c0c6;stroke-linejoin:bevel;" x="59.789832" xlink:href="#me238037088" y="135.070468"/>
     <use style="fill:#70c0c6;stroke:#70c0c6;stroke-linejoin:bevel;" x="63.027619" xlink:href="#me238037088" y="133.460458"/>
     <use style="fill:#70c0c6;stroke:#70c0c6;stroke-linejoin:bevel;" x="66.265406" xlink:href="#me238037088" y="132.32933"/>
     <use style="fill:#70c0c6;stroke:#70c0c6;stroke-linejoin:bevel;" x="69.503193" xlink:href="#me238037088" y="133.022243"/>
     <use style="fill:#70c0c6;stroke:#70c0c6;stroke-linejoin:bevel;" x="72.74098" xlink:href="#me238037088" y="135.989295"/>
     <use style="fill:#70c0c6;stroke:#70c0c6;stroke-linejoin:bevel;" x="75.978767" xlink:href="#me238037088" y="140.329835"/>
     <use style="fill:#70c0c6;stroke:#70c0c6;stroke-linejoin:bevel;" x="79.216554" xlink:href="#me238037088" y="144.043959"/>
     <use style="fill:#70c0c6;stroke:#70c0c6;stroke-linejoin:bevel;" x="82.454341" xlink:href="#me238037088" y="144.931904"/>
     <use style="fill:#70c0c6;stroke:#70c0c6;stroke-linejoin:bevel;" x="85.692128" xlink:href="#me238037088" y="141.744131"/>
     <use style="fill:#70c0c6;stroke:#70c0c6;stroke-linejoin:bevel;" x="88.929915" xlink:href="#me238037088" y="135.019938"/>
     <use style="fill:#70c0c6;stroke:#70c0c6;stroke-linejoin:bevel;" x="92.167702" xlink:href="#me238037088" y="127.150899"/>
     <use style="fill:#70c0c6;stroke:#70c0c6;stroke-linejoin:bevel;" x="95.405489" xlink:href="#me238037088" y="121.537945"/>
     <use style="fill:#70c0c6;stroke:#70c0c6;stroke-linejoin:bevel;" x="98.643276" xlink:href="#me238037088" y="121.135879"/>
     <use style="fill:#70c0c6;stroke:#70c0c6;stroke-linejoin:bevel;" x="101.881063" xlink:href="#me238037088" y="127.003187"/>
     <use style="fill:#70c0c6;stroke:#70c0c6;stroke-linejoin:bevel;" x="105.11885" xlink:href="#me238037088" y="137.538548"/>
     <use style="fill:#70c0c6;stroke:#70c0c6;stroke-linejoin:bevel;" x="108.356637" xlink:href="#me238037088" y="148.838192"/>
     <use style="fill:#70c0c6;stroke:#70c0c6;stroke-linejoin:bevel;" x="111.594424" xlink:href="#me238037088" y="156.138626"/>
     <use style="fill:#70c0c6;stroke:#70c0c6;stroke-linejoin:bevel;" x="114.832211" xlink:href="#me238037088" y="155.813095"/>
     <use style="fill:#70c0c6;stroke:#70c0c6;stroke-linejoin:bevel;" x="118.069998" xlink:href="#me238037088" y="147.089212"/>
     <use style="fill:#70c0c6;stroke:#70c0c6;stroke-linejoin:bevel;" x="121.307785" xlink:href="#me238037088" y="132.699959"/>
     <use style="fill:#70c0c6;stroke:#70c0c6;stroke-linejoin:bevel;" x="124.545572" xlink:href="#me238037088" y="118.078143"/>
     <use style="fill:#70c0c6;stroke:#70c0c6;stroke-linejoin:bevel;" x="127.783359" xlink:href="#me238037088" y="109.307224"/>
     <use style="fill:#70c0c6;stroke:#70c0c6;stroke-linejoin:bevel;" x="131.021146" xlink:href="#me238037088" y="110.600607"/>
     <use style="fill:#70c0c6;stroke:#70c0c6;stroke-linejoin:bevel;" x="134.258933" xlink:href="#me238037088" y="122.350108"/>
     <use style="fill:#70c0c6;stroke:#70c0c6;stroke-linejoin:bevel;" x="137.496719" xlink:href="#me238037088" y="140.624576"/>
     <use style="fill:#70c0c6;stroke:#70c0c6;stroke-linejoin:bevel;" x="140.734506" xlink:href="#me238037088" y="158.449798"/>
     <use style="fill:#70c0c6;stroke:#70c0c6;stroke-linejoin:bevel;" x="143.972293" xlink:href="#me238037088" y="168.468994"/>
     <use style="fill:#70c0c6;stroke:#70c0c6;stroke-linejoin:bevel;" x="147.21008" xlink:href="#me238037088" y="165.96945"/>
     <use style="fill:#70c0c6;stroke:#70c0c6;stroke-linejoin:bevel;" x="150.447867" xlink:href="#me238037088" y="151.033637"/>
     <use style="fill:#70c0c6;stroke:#70c0c6;stroke-linejoin:bevel;" x="153.685654" xlink:href="#me238037088" y="128.854106"/>
     <use style="fill:#70c0c6;stroke:#70c0c6;stroke-linejoin:bevel;" x="156.923441" xlink:href="#me238037088" y="107.954351"/>
     <use style="fill:#70c0c6;stroke:#70c0c6;stroke-linejoin:bevel;" x="160.161228" xlink:href="#me238037088" y="96.913864"/>
     <use style="fill:#70c0c6;stroke:#70c0c6;stroke-linejoin:bevel;" x="163.399015" xlink:href="#me238037088" y="100.855451"/>
     <use style="fill:#70c0c6;stroke:#70c0c6;stroke-linejoin:bevel;" x="166.636802" xlink:href="#me238037088" y="119.129587"/>
     <use style="fill:#70c0c6;stroke:#70c0c6;stroke-linejoin:bevel;" x="169.874589" xlink:href="#me238037088" y="145.222493"/>
     <use style="fill:#70c0c6;stroke:#70c0c6;stroke-linejoin:bevel;" x="173.112376" xlink:href="#me238037088" y="169.05804"/>
     <use style="fill:#70c0c6;stroke:#70c0c6;stroke-linejoin:bevel;" x="176.350163" xlink:href="#me238037088" y="180.888502"/>
     <use style="fill:#70c0c6;stroke:#70c0c6;stroke-linejoin:bevel;" x="179.58795" xlink:href="#me238037088" y="175.271899"/>
     <use style="fill:#70c0c6;stroke:#70c0c6;stroke-linejoin:bevel;" x="182.825737" xlink:href="#me238037088" y="153.516431"/>
     <use style="fill:#70c0c6;stroke:#70c0c6;stroke-linejoin:bevel;" x="186.063524" xlink:href="#me238037088" y="123.513413"/>
     <use style="fill:#70c0c6;stroke:#70c0c6;stroke-linejoin:bevel;" x="189.301311" xlink:href="#me238037088" y="96.890422"/>
     <use style="fill:#70c0c6;stroke:#70c0c6;stroke-linejoin:bevel;" x="192.539098" xlink:href="#me238037088" y="84.505177"/>
     <use style="fill:#70c0c6;stroke:#70c0c6;stroke-linejoin:bevel;" x="195.776885" xlink:href="#me238037088" y="92.026392"/>
     <use style="fill:#70c0c6;stroke:#70c0c6;stroke-linejoin:bevel;" x="199.014672" xlink:href="#me238037088" y="117.396889"/>
     <use style="fill:#70c0c6;stroke:#70c0c6;stroke-linejoin:bevel;" x="202.252459" xlink:href="#me238037088" y="151.295162"/>
     <use style="fill:#70c0c6;stroke:#70c0c6;stroke-linejoin:bevel;" x="205.490246" xlink:href="#me238037088" y="180.547913"/>
     <use style="fill:#70c0c6;stroke:#70c0c6;stroke-linejoin:bevel;" x="208.728033" xlink:href="#me238037088" y="193.249337"/>
     <use style="fill:#70c0c6;stroke:#70c0c6;stroke-linejoin:bevel;" x="211.96582" xlink:href="#me238037088" y="183.597761"/>
     <use style="fill:#70c0c6;stroke:#70c0c6;stroke-linejoin:bevel;" x="215.203607" xlink:href="#me238037088" y="154.48814"/>
     <use style="fill:#70c0c6;stroke:#70c0c6;stroke-linejoin:bevel;" x="218.441393" xlink:href="#me238037088" y="116.721065"/>
     <use style="fill:#70c0c6;stroke:#70c0c6;stroke-linejoin:bevel;" x="221.67918" xlink:href="#me238037088" y="85.005279"/>
     <use style="fill:#70c0c6;stroke:#70c0c6;stroke-linejoin:bevel;" x="224.916967" xlink:href="#me238037088" y="72.229227"/>
     <use style="fill:#70c0c6;stroke:#70c0c6;stroke-linejoin:bevel;" x="228.154754" xlink:href="#me238037088" y="84.232604"/>
     <use style="fill:#70c0c6;stroke:#70c0c6;stroke-linejoin:bevel;" x="231.392541" xlink:href="#me238037088" y="117.195565"/>
     <use style="fill:#70c0c6;stroke:#70c0c6;stroke-linejoin:bevel;" x="234.630328" xlink:href="#me238037088" y="158.793415"/>
     <use style="fill:#70c0c6;stroke:#70c0c6;stroke-linejoin:bevel;" x="237.868115" xlink:href="#me238037088" y="192.796772"/>
     <use style="fill:#70c0c6;stroke:#70c0c6;stroke-linejoin:bevel;" x="241.105902" xlink:href="#me238037088" y="205.403431"/>
     <use style="fill:#70c0c6;stroke:#70c0c6;stroke-linejoin:bevel;" x="244.343689" xlink:href="#me238037088" y="190.831578"/>
     <use style="fill:#70c0c6;stroke:#70c0c6;stroke-linejoin:bevel;" x="247.581476" xlink:href="#me238037088" y="153.911196"/>
     <use style="fill:#70c0c6;stroke:#70c0c6;stroke-linejoin:bevel;" x="250.819263" xlink:href="#me238037088" y="108.532137"/>
     <use style="fill:#70c0c6;stroke:#70c0c6;stroke-linejoin:bevel;" x="254.05705" xlink:href="#me238037088" y="72.425088"/>
     <use style="fill:#70c0c6;stroke:#70c0c6;stroke-linejoin:bevel;" x="257.294837" xlink:href="#me238037088" y="60.23384"/>
     <use style="fill:#70c0c6;stroke:#70c0c6;stroke-linejoin:bevel;" x="260.532624" xlink:href="#me238037088" y="77.585629"/>
     <use style="fill:#70c0c6;stroke:#70c0c6;stroke-linejoin:bevel;" x="263.770411" xlink:href="#me238037088" y="118.557132"/>
     <use style="fill:#70c0c6;stroke:#70c0c6;stroke-linejoin:bevel;" x="267.008198" xlink:href="#me238037088" y="167.656353"/>
     <use style="fill:#70c0c6;stroke:#70c0c6;stroke-linejoin:bevel;" x="270.245985" xlink:href="#me238037088" y="205.675135"/>
     <use style="fill:#70c0c6;stroke:#70c0c6;stroke-linejoin:bevel;" x="273.483772" xlink:href="#me238037088" y="217.203446"/>
     <use style="fill:#70c0c6;stroke:#70c0c6;stroke-linejoin:bevel;" x="276.721559" xlink:href="#me238037088" y="196.865913"/>
     <use style="fill:#70c0c6;stroke:#70c0c6;stroke-linejoin:bevel;" x="279.959346" xlink:href="#me238037088" y="151.760196"/>
     <use style="fill:#70c0c6;stroke:#70c0c6;stroke-linejoin:bevel;" x="283.197133" xlink:href="#me238037088" y="99.013262"/>
     <use style="fill:#70c0c6;stroke:#70c0c6;stroke-linejoin:bevel;" x="286.43492" xlink:href="#me238037088" y="59.282438"/>
     <use style="fill:#70c0c6;stroke:#70c0c6;stroke-linejoin:bevel;" x="289.672707" xlink:href="#me238037088" y="48.665614"/>
     <use style="fill:#70c0c6;stroke:#70c0c6;stroke-linejoin:bevel;" x="292.910494" xlink:href="#me238037088" y="72.188613"/>
     <use style="fill:#70c0c6;stroke:#70c0c6;stroke-linejoin:bevel;" x="296.148281" xlink:href="#me238037088" y="121.500822"/>
     <use style="fill:#70c0c6;stroke:#70c0c6;stroke-linejoin:bevel;" x="299.386067" xlink:href="#me238037088" y="177.811713"/>
     <use style="fill:#70c0c6;stroke:#70c0c6;stroke-linejoin:bevel;" x="302.623854" xlink:href="#me238037088" y="219.047523"/>
     <use style="fill:#70c0c6;stroke:#70c0c6;stroke-linejoin:bevel;" x="305.861641" xlink:href="#me238037088" y="228.50377"/>
     <use style="fill:#70c0c6;stroke:#70c0c6;stroke-linejoin:bevel;" x="309.099428" xlink:href="#me238037088" y="201.602095"/>
     <use style="fill:#70c0c6;stroke:#70c0c6;stroke-linejoin:bevel;" x="312.337215" xlink:href="#me238037088" y="148.022121"/>
     <use style="fill:#70c0c6;stroke:#70c0c6;stroke-linejoin:bevel;" x="315.575002" xlink:href="#me238037088" y="88.242222"/>
     <use style="fill:#70c0c6;stroke:#70c0c6;stroke-linejoin:bevel;" x="318.812789" xlink:href="#me238037088" y="45.715472"/>
     <use style="fill:#70c0c6;stroke:#70c0c6;stroke-linejoin:bevel;" x="322.050576" xlink:href="#me238037088" y="37.668934"/>
     <use style="fill:#70c0c6;stroke:#70c0c6;stroke-linejoin:bevel;" x="325.288363" xlink:href="#me238037088" y="68.135576"/>
     <use style="fill:#70c0c6;stroke:#70c0c6;stroke-linejoin:bevel;" x="328.52615" xlink:href="#me238037088" y="126.033407"/>
     <use style="fill:#70c0c6;stroke:#70c0c6;stroke-linejoin:bevel;" x="331.763937" xlink:href="#me238037088" y="189.176307"/>
     <use style="fill:#70c0c6;stroke:#70c0c6;stroke-linejoin:bevel;" x="335.001724" xlink:href="#me238037088" y="232.77335"/>
     <use style="fill:#70c0c6;stroke:#70c0c6;stroke-linejoin:bevel;" x="338.239511" xlink:href="#me238037088" y="239.161494"/>
     <use style="fill:#70c0c6;stroke:#70c0c6;stroke-linejoin:bevel;" x="341.477298" xlink:href="#me238037088" y="204.950919"/>
     <use style="fill:#70c0c6;stroke:#70c0c6;stroke-linejoin:bevel;" x="344.715085" xlink:href="#me238037088" y="142.696474"/>
     <use style="fill:#70c0c6;stroke:#70c0c6;stroke-linejoin:bevel;" x="347.952872" xlink:href="#me238037088" y="76.307483"/>
     <use style="fill:#70c0c6;stroke:#70c0c6;stroke-linejoin:bevel;" x="351.190659" xlink:href="#me238037088" y="31.866995"/>
     <use style="fill:#70c0c6;stroke:#70c0c6;stroke-linejoin:bevel;" x="354.428446" xlink:href="#me238037088" y="27.384991"/>
     <use style="fill:#70c0c6;stroke:#70c0c6;stroke-linejoin:bevel;" x="357.666233" xlink:href="#me238037088" y="65.510749"/>
     <use style="fill:#70c0c6;stroke:#70c0c6;stroke-linejoin:bevel;" x="360.90402" xlink:href="#me238037088" y="132.149093"/>
     <use style="fill:#70c0c6;stroke:#70c0c6;stroke-linejoin:bevel;" x="364.141807" xlink:href="#me238037088" y="201.656529"/>
     <use style="fill:#70c0c6;stroke:#70c0c6;stroke-linejoin:bevel;" x="367.379594" xlink:href="#me238037088" y="246.707831"/>
     <use style="fill:#70c0c6;stroke:#70c0c6;stroke-linejoin:bevel;" x="370.617381" xlink:href="#me238037088" y="249.037381"/>
     <use style="fill:#70c0c6;stroke:#70c0c6;stroke-linejoin:bevel;" x="373.855168" xlink:href="#me238037088" y="206.833284"/>
     <use style="fill:#70c0c6;stroke:#70c0c6;stroke-linejoin:bevel;" x="377.092955" xlink:href="#me238037088" y="135.795345"/>
    </g>
   </g>
   <g id="line2d_18">
    <path clip-path="url(#p7f5b83ac54)" d="M 56.552045 135.795345 
L 59.789832 135.432907 
L 63.027619 134.627902 
L 66.265406 134.062338 
L 69.503193 134.408794 
L 72.74098 135.89232 
L 75.978767 138.06259 
L 79.216554 139.919652 
L 82.454341 140.363624 
L 85.692128 138.769738 
L 88.929915 135.407641 
L 92.167702 131.473122 
L 95.405489 128.666645 
L 98.643276 128.465612 
L 101.881063 131.399266 
L 105.11885 136.666947 
L 108.356637 142.316769 
L 111.594424 145.966986 
L 114.832211 145.80422 
L 118.069998 141.442279 
L 121.307785 134.247652 
L 124.545572 126.936744 
L 127.783359 122.551285 
L 131.021146 123.197976 
L 134.258933 129.072726 
L 137.496719 138.209961 
L 140.734506 147.122572 
L 143.972293 152.13217 
L 147.21008 150.882398 
L 150.447867 143.414491 
L 153.685654 132.324726 
L 156.923441 121.874848 
L 160.161228 116.354605 
L 163.399015 118.325398 
L 166.636802 127.462466 
L 169.874589 140.508919 
L 173.112376 152.426693 
L 176.350163 158.341924 
L 179.58795 155.533622 
L 182.825737 144.655888 
L 186.063524 129.654379 
L 189.301311 116.342884 
L 192.539098 110.150261 
L 195.776885 113.910869 
L 199.014672 126.596117 
L 202.252459 143.545254 
L 205.490246 158.171629 
L 208.728033 164.522341 
L 211.96582 159.696553 
L 215.203607 145.141743 
L 218.441393 126.258205 
L 221.67918 110.400312 
L 224.916967 104.012286 
L 228.154754 110.013975 
L 231.392541 126.495455 
L 234.630328 147.29438 
L 237.868115 164.296059 
L 241.105902 170.599388 
L 244.343689 163.313462 
L 247.581476 144.853271 
L 250.819263 122.163741 
L 254.05705 104.110217 
L 257.294837 98.014593 
L 260.532624 106.690487 
L 263.770411 127.176239 
L 267.008198 151.725849 
L 270.245985 170.73524 
L 273.483772 176.499396 
L 276.721559 166.330629 
L 279.959346 143.777771 
L 283.197133 117.404303 
L 286.43492 97.538891 
L 289.672707 92.23048 
L 292.910494 103.991979 
L 296.148281 128.648084 
L 299.386067 156.803529 
L 302.623854 177.421434 
L 305.861641 182.149558 
L 309.099428 168.69872 
L 312.337215 141.908733 
L 315.575002 112.018784 
L 318.812789 90.755409 
L 322.050576 86.73214 
L 325.288363 101.965461 
L 328.52615 130.914376 
L 331.763937 162.485826 
L 335.001724 184.284348 
L 338.239511 187.47842 
L 341.477298 170.373132 
L 344.715085 139.245909 
L 347.952872 106.051414 
L 351.190659 83.83117 
L 354.428446 81.590168 
L 357.666233 100.653047 
L 360.90402 133.972219 
L 364.141807 168.725937 
L 367.379594 191.251588 
L 370.617381 192.416363 
L 373.855168 171.314315 
L 377.092955 135.795345 
" style="fill:none;stroke:#d9534f;stroke-dasharray:9.6,2.4,1.5,2.4;stroke-dashoffset:0;stroke-width:1.5;"/>
    <defs>
     <path d="M 0 -3 
L -3 3 
L 3 3 
z
" id="mf58dfe859d" style="stroke:#d9534f;stroke-linejoin:miter;"/>
    </defs>
    <g clip-path="url(#p7f5b83ac54)">
     <use style="fill:#d9534f;stroke:#d9534f;stroke-linejoin:miter;" x="56.552045" xlink:href="#mf58dfe859d" y="135.795345"/>
     <use style="fill:#d9534f;stroke:#d9534f;stroke-linejoin:miter;" x="59.789832" xlink:href="#mf58dfe859d" y="135.432907"/>
     <use style="fill:#d9534f;stroke:#d9534f;stroke-linejoin:miter;" x="63.027619" xlink:href="#mf58dfe859d" y="134.627902"/>
     <use style="fill:#d9534f;stroke:#d9534f;stroke-linejoin:miter;" x="66.265406" xlink:href="#mf58dfe859d" y="134.062338"/>
     <use style="fill:#d9534f;stroke:#d9534f;stroke-linejoin:miter;" x="69.503193" xlink:href="#mf58dfe859d" y="134.408794"/>
     <use style="fill:#d9534f;stroke:#d9534f;stroke-linejoin:miter;" x="72.74098" xlink:href="#mf58dfe859d" y="135.89232"/>
     <use style="fill:#d9534f;stroke:#d9534f;stroke-linejoin:miter;" x="75.978767" xlink:href="#mf58dfe859d" y="138.06259"/>
     <use style="fill:#d9534f;stroke:#d9534f;stroke-linejoin:miter;" x="79.216554" xlink:href="#mf58dfe859d" y="139.919652"/>
     <use style="fill:#d9534f;stroke:#d9534f;stroke-linejoin:miter;" x="82.454341" xlink:href="#mf58dfe859d" y="140.363624"/>
     <use style="fill:#d9534f;stroke:#d9534f;stroke-linejoin:miter;" x="85.692128" xlink:href="#mf58dfe859d" y="138.769738"/>
     <use style="fill:#d9534f;stroke:#d9534f;stroke-linejoin:miter;" x="88.929915" xlink:href="#mf58dfe859d" y="135.407641"/>
     <use style="fill:#d9534f;stroke:#d9534f;stroke-linejoin:miter;" x="92.167702" xlink:href="#mf58dfe859d" y="131.473122"/>
     <use style="fill:#d9534f;stroke:#d9534f;stroke-linejoin:miter;" x="95.405489" xlink:href="#mf58dfe859d" y="128.666645"/>
     <use style="fill:#d9534f;stroke:#d9534f;stroke-linejoin:miter;" x="98.643276" xlink:href="#mf58dfe859d" y="128.465612"/>
     <use style="fill:#d9534f;stroke:#d9534f;stroke-linejoin:miter;" x="101.881063" xlink:href="#mf58dfe859d" y="131.399266"/>
     <use style="fill:#d9534f;stroke:#d9534f;stroke-linejoin:miter;" x="105.11885" xlink:href="#mf58dfe859d" y="136.666947"/>
     <use style="fill:#d9534f;stroke:#d9534f;stroke-linejoin:miter;" x="108.356637" xlink:href="#mf58dfe859d" y="142.316769"/>
     <use style="fill:#d9534f;stroke:#d9534f;stroke-linejoin:miter;" x="111.594424" xlink:href="#mf58dfe859d" y="145.966986"/>
     <use style="fill:#d9534f;stroke:#d9534f;stroke-linejoin:miter;" x="114.832211" xlink:href="#mf58dfe859d" y="145.80422"/>
     <use style="fill:#d9534f;stroke:#d9534f;stroke-linejoin:miter;" x="118.069998" xlink:href="#mf58dfe859d" y="141.442279"/>
     <use style="fill:#d9534f;stroke:#d9534f;stroke-linejoin:miter;" x="121.307785" xlink:href="#mf58dfe859d" y="134.247652"/>
     <use style="fill:#d9534f;stroke:#d9534f;stroke-linejoin:miter;" x="124.545572" xlink:href="#mf58dfe859d" y="126.936744"/>
     <use style="fill:#d9534f;stroke:#d9534f;stroke-linejoin:miter;" x="127.783359" xlink:href="#mf58dfe859d" y="122.551285"/>
     <use style="fill:#d9534f;stroke:#d9534f;stroke-linejoin:miter;" x="131.021146" xlink:href="#mf58dfe859d" y="123.197976"/>
     <use style="fill:#d9534f;stroke:#d9534f;stroke-linejoin:miter;" x="134.258933" xlink:href="#mf58dfe859d" y="129.072726"/>
     <use style="fill:#d9534f;stroke:#d9534f;stroke-linejoin:miter;" x="137.496719" xlink:href="#mf58dfe859d" y="138.209961"/>
     <use style="fill:#d9534f;stroke:#d9534f;stroke-linejoin:miter;" x="140.734506" xlink:href="#mf58dfe859d" y="147.122572"/>
     <use style="fill:#d9534f;stroke:#d9534f;stroke-linejoin:miter;" x="143.972293" xlink:href="#mf58dfe859d" y="152.13217"/>
     <use style="fill:#d9534f;stroke:#d9534f;stroke-linejoin:miter;" x="147.21008" xlink:href="#mf58dfe859d" y="150.882398"/>
     <use style="fill:#d9534f;stroke:#d9534f;stroke-linejoin:miter;" x="150.447867" xlink:href="#mf58dfe859d" y="143.414491"/>
     <use style="fill:#d9534f;stroke:#d9534f;stroke-linejoin:miter;" x="153.685654" xlink:href="#mf58dfe859d" y="132.324726"/>
     <use style="fill:#d9534f;stroke:#d9534f;stroke-linejoin:miter;" x="156.923441" xlink:href="#mf58dfe859d" y="121.874848"/>
     <use style="fill:#d9534f;stroke:#d9534f;stroke-linejoin:miter;" x="160.161228" xlink:href="#mf58dfe859d" y="116.354605"/>
     <use style="fill:#d9534f;stroke:#d9534f;stroke-linejoin:miter;" x="163.399015" xlink:href="#mf58dfe859d" y="118.325398"/>
     <use style="fill:#d9534f;stroke:#d9534f;stroke-linejoin:miter;" x="166.636802" xlink:href="#mf58dfe859d" y="127.462466"/>
     <use style="fill:#d9534f;stroke:#d9534f;stroke-linejoin:miter;" x="169.874589" xlink:href="#mf58dfe859d" y="140.508919"/>
     <use style="fill:#d9534f;stroke:#d9534f;stroke-linejoin:miter;" x="173.112376" xlink:href="#mf58dfe859d" y="152.426693"/>
     <use style="fill:#d9534f;stroke:#d9534f;stroke-linejoin:miter;" x="176.350163" xlink:href="#mf58dfe859d" y="158.341924"/>
     <use style="fill:#d9534f;stroke:#d9534f;stroke-linejoin:miter;" x="179.58795" xlink:href="#mf58dfe859d" y="155.533622"/>
     <use style="fill:#d9534f;stroke:#d9534f;stroke-linejoin:miter;" x="182.825737" xlink:href="#mf58dfe859d" y="144.655888"/>
     <use style="fill:#d9534f;stroke:#d9534f;stroke-linejoin:miter;" x="186.063524" xlink:href="#mf58dfe859d" y="129.654379"/>
     <use style="fill:#d9534f;stroke:#d9534f;stroke-linejoin:miter;" x="189.301311" xlink:href="#mf58dfe859d" y="116.342884"/>
     <use style="fill:#d9534f;stroke:#d9534f;stroke-linejoin:miter;" x="192.539098" xlink:href="#mf58dfe859d" y="110.150261"/>
     <use style="fill:#d9534f;stroke:#d9534f;stroke-linejoin:miter;" x="195.776885" xlink:href="#mf58dfe859d" y="113.910869"/>
     <use style="fill:#d9534f;stroke:#d9534f;stroke-linejoin:miter;" x="199.014672" xlink:href="#mf58dfe859d" y="126.596117"/>
     <use style="fill:#d9534f;stroke:#d9534f;stroke-linejoin:miter;" x="202.252459" xlink:href="#mf58dfe859d" y="143.545254"/>
     <use style="fill:#d9534f;stroke:#d9534f;stroke-linejoin:miter;" x="205.490246" xlink:href="#mf58dfe859d" y="158.171629"/>
     <use style="fill:#d9534f;stroke:#d9534f;stroke-linejoin:miter;" x="208.728033" xlink:href="#mf58dfe859d" y="164.522341"/>
     <use style="fill:#d9534f;stroke:#d9534f;stroke-linejoin:miter;" x="211.96582" xlink:href="#mf58dfe859d" y="159.696553"/>
     <use style="fill:#d9534f;stroke:#d9534f;stroke-linejoin:miter;" x="215.203607" xlink:href="#mf58dfe859d" y="145.141743"/>
     <use style="fill:#d9534f;stroke:#d9534f;stroke-linejoin:miter;" x="218.441393" xlink:href="#mf58dfe859d" y="126.258205"/>
     <use style="fill:#d9534f;stroke:#d9534f;stroke-linejoin:miter;" x="221.67918" xlink:href="#mf58dfe859d" y="110.400312"/>
     <use style="fill:#d9534f;stroke:#d9534f;stroke-linejoin:miter;" x="224.916967" xlink:href="#mf58dfe859d" y="104.012286"/>
     <use style="fill:#d9534f;stroke:#d9534f;stroke-linejoin:miter;" x="228.154754" xlink:href="#mf58dfe859d" y="110.013975"/>
     <use style="fill:#d9534f;stroke:#d9534f;stroke-linejoin:miter;" x="231.392541" xlink:href="#mf58dfe859d" y="126.495455"/>
     <use style="fill:#d9534f;stroke:#d9534f;stroke-linejoin:miter;" x="234.630328" xlink:href="#mf58dfe859d" y="147.29438"/>
     <use style="fill:#d9534f;stroke:#d9534f;stroke-linejoin:miter;" x="237.868115" xlink:href="#mf58dfe859d" y="164.296059"/>
     <use style="fill:#d9534f;stroke:#d9534f;stroke-linejoin:miter;" x="241.105902" xlink:href="#mf58dfe859d" y="170.599388"/>
     <use style="fill:#d9534f;stroke:#d9534f;stroke-linejoin:miter;" x="244.343689" xlink:href="#mf58dfe859d" y="163.313462"/>
     <use style="fill:#d9534f;stroke:#d9534f;stroke-linejoin:miter;" x="247.581476" xlink:href="#mf58dfe859d" y="144.853271"/>
     <use style="fill:#d9534f;stroke:#d9534f;stroke-linejoin:miter;" x="250.819263" xlink:href="#mf58dfe859d" y="122.163741"/>
     <use style="fill:#d9534f;stroke:#d9534f;stroke-linejoin:miter;" x="254.05705" xlink:href="#mf58dfe859d" y="104.110217"/>
     <use style="fill:#d9534f;stroke:#d9534f;stroke-linejoin:miter;" x="257.294837" xlink:href="#mf58dfe859d" y="98.014593"/>
     <use style="fill:#d9534f;stroke:#d9534f;stroke-linejoin:miter;" x="260.532624" xlink:href="#mf58dfe859d" y="106.690487"/>
     <use style="fill:#d9534f;stroke:#d9534f;stroke-linejoin:miter;" x="263.770411" xlink:href="#mf58dfe859d" y="127.176239"/>
     <use style="fill:#d9534f;stroke:#d9534f;stroke-linejoin:miter;" x="267.008198" xlink:href="#mf58dfe859d" y="151.725849"/>
     <use style="fill:#d9534f;stroke:#d9534f;stroke-linejoin:miter;" x="270.245985" xlink:href="#mf58dfe859d" y="170.73524"/>
     <use style="fill:#d9534f;stroke:#d9534f;stroke-linejoin:miter;" x="273.483772" xlink:href="#mf58dfe859d" y="176.499396"/>
     <use style="fill:#d9534f;stroke:#d9534f;stroke-linejoin:miter;" x="276.721559" xlink:href="#mf58dfe859d" y="166.330629"/>
     <use style="fill:#d9534f;stroke:#d9534f;stroke-linejoin:miter;" x="279.959346" xlink:href="#mf58dfe859d" y="143.777771"/>
     <use style="fill:#d9534f;stroke:#d9534f;stroke-linejoin:miter;" x="283.197133" xlink:href="#mf58dfe859d" y="117.404303"/>
     <use style="fill:#d9534f;stroke:#d9534f;stroke-linejoin:miter;" x="286.43492" xlink:href="#mf58dfe859d" y="97.538891"/>
     <use style="fill:#d9534f;stroke:#d9534f;stroke-linejoin:miter;" x="289.672707" xlink:href="#mf58dfe859d" y="92.23048"/>
     <use style="fill:#d9534f;stroke:#d9534f;stroke-linejoin:miter;" x="292.910494" xlink:href="#mf58dfe859d" y="103.991979"/>
     <use style="fill:#d9534f;stroke:#d9534f;stroke-linejoin:miter;" x="296.148281" xlink:href="#mf58dfe859d" y="128.648084"/>
     <use style="fill:#d9534f;stroke:#d9534f;stroke-linejoin:miter;" x="299.386067" xlink:href="#mf58dfe859d" y="156.803529"/>
     <use style="fill:#d9534f;stroke:#d9534f;stroke-linejoin:miter;" x="302.623854" xlink:href="#mf58dfe859d" y="177.421434"/>
     <use style="fill:#d9534f;stroke:#d9534f;stroke-linejoin:miter;" x="305.861641" xlink:href="#mf58dfe859d" y="182.149558"/>
     <use style="fill:#d9534f;stroke:#d9534f;stroke-linejoin:miter;" x="309.099428" xlink:href="#mf58dfe859d" y="168.69872"/>
     <use style="fill:#d9534f;stroke:#d9534f;stroke-linejoin:miter;" x="312.337215" xlink:href="#mf58dfe859d" y="141.908733"/>
     <use style="fill:#d9534f;stroke:#d9534f;stroke-linejoin:miter;" x="315.575002" xlink:href="#mf58dfe859d" y="112.018784"/>
     <use style="fill:#d9534f;stroke:#d9534f;stroke-linejoin:miter;" x="318.812789" xlink:href="#mf58dfe859d" y="90.755409"/>
     <use style="fill:#d9534f;stroke:#d9534f;stroke-linejoin:miter;" x="322.050576" xlink:href="#mf58dfe859d" y="86.73214"/>
     <use style="fill:#d9534f;stroke:#d9534f;stroke-linejoin:miter;" x="325.288363" xlink:href="#mf58dfe859d" y="101.965461"/>
     <use style="fill:#d9534f;stroke:#d9534f;stroke-linejoin:miter;" x="328.52615" xlink:href="#mf58dfe859d" y="130.914376"/>
     <use style="fill:#d9534f;stroke:#d9534f;stroke-linejoin:miter;" x="331.763937" xlink:href="#mf58dfe859d" y="162.485826"/>
     <use style="fill:#d9534f;stroke:#d9534f;stroke-linejoin:miter;" x="335.001724" xlink:href="#mf58dfe859d" y="184.284348"/>
     <use style="fill:#d9534f;stroke:#d9534f;stroke-linejoin:miter;" x="338.239511" xlink:href="#mf58dfe859d" y="187.47842"/>
     <use style="fill:#d9534f;stroke:#d9534f;stroke-linejoin:miter;" x="341.477298" xlink:href="#mf58dfe859d" y="170.373132"/>
     <use style="fill:#d9534f;stroke:#d9534f;stroke-linejoin:miter;" x="344.715085" xlink:href="#mf58dfe859d" y="139.245909"/>
     <use style="fill:#d9534f;stroke:#d9534f;stroke-linejoin:miter;" x="347.952872" xlink:href="#mf58dfe859d" y="106.051414"/>
     <use style="fill:#d9534f;stroke:#d9534f;stroke-linejoin:miter;" x="351.190659" xlink:href="#mf58dfe859d" y="83.83117"/>
     <use style="fill:#d9534f;stroke:#d9534f;stroke-linejoin:miter;" x="354.428446" xlink:href="#mf58dfe859d" y="81.590168"/>
     <use style="fill:#d9534f;stroke:#d9534f;stroke-linejoin:miter;" x="357.666233" xlink:href="#mf58dfe859d" y="100.653047"/>
     <use style="fill:#d9534f;stroke:#d9534f;stroke-linejoin:miter;" x="360.90402" xlink:href="#mf58dfe859d" y="133.972219"/>
     <use style="fill:#d9534f;stroke:#d9534f;stroke-linejoin:miter;" x="364.141807" xlink:href="#mf58dfe859d" y="168.725937"/>
     <use style="fill:#d9534f;stroke:#d9534f;stroke-linejoin:miter;" x="367.379594" xlink:href="#mf58dfe859d" y="191.251588"/>
     <use style="fill:#d9534f;stroke:#d9534f;stroke-linejoin:miter;" x="370.617381" xlink:href="#mf58dfe859d" y="192.416363"/>
     <use style="fill:#d9534f;stroke:#d9534f;stroke-linejoin:miter;" x="373.855168" xlink:href="#mf58dfe859d" y="171.314315"/>
     <use style="fill:#d9534f;stroke:#d9534f;stroke-linejoin:miter;" x="377.092955" xlink:href="#mf58dfe859d" y="135.795345"/>
    </g>
   </g>
   <g id="patch_3">
    <path d="M 40.525 260.12 
L 40.525 14.76 
" style="fill:none;stroke:#000000;stroke-linecap:square;stroke-linejoin:miter;stroke-width:0.8;"/>
   </g>
   <g id="patch_4">
    <path d="M 393.12 260.12 
L 393.12 14.76 
" style="fill:none;stroke:#000000;stroke-linecap:square;stroke-linejoin:miter;stroke-width:0.8;"/>
   </g>
   <g id="patch_5">
    <path d="M 40.525 260.12 
L 393.12 260.12 
" style="fill:none;stroke:#000000;stroke-linecap:square;stroke-linejoin:miter;stroke-width:0.8;"/>
   </g>
   <g id="patch_6">
    <path d="M 40.525 14.76 
L 393.12 14.76 
" style="fill:none;stroke:#000000;stroke-linecap:square;stroke-linejoin:miter;stroke-width:0.8;"/>
   </g>
   <g id="text_12">
    <!-- $y=\sin{(2 \pi x)}$ -->
    <defs>
     <path d="M 24.8125 -5.078125 
Q 18.5625 -15.578125 14.625 -18.1875 
Q 10.6875 -20.796875 4.59375 -20.796875 
L -2.484375 -20.796875 
L -0.984375 -13.28125 
L 4.203125 -13.28125 
Q 7.953125 -13.28125 10.59375 -11.234375 
Q 13.234375 -9.1875 16.5 -3.21875 
L 19.28125 2 
L 7.171875 54.6875 
L 16.703125 54.6875 
L 25.78125 12.796875 
L 50.875 54.6875 
L 60.296875 54.6875 
z
" id="DejaVuSans-Oblique-121"/>
     <path d="M 10.59375 45.40625 
L 73.1875 45.40625 
L 73.1875 37.203125 
L 10.59375 37.203125 
z
M 10.59375 25.484375 
L 73.1875 25.484375 
L 73.1875 17.1875 
L 10.59375 17.1875 
z
" id="DejaVuSans-61"/>
     <path d="M 44.28125 53.078125 
L 44.28125 44.578125 
Q 40.484375 46.53125 36.375 47.5 
Q 32.28125 48.484375 27.875 48.484375 
Q 21.1875 48.484375 17.84375 46.4375 
Q 14.5 44.390625 14.5 40.28125 
Q 14.5 37.15625 16.890625 35.375 
Q 19.28125 33.59375 26.515625 31.984375 
L 29.59375 31.296875 
Q 39.15625 29.25 43.1875 25.515625 
Q 47.21875 21.78125 47.21875 15.09375 
Q 47.21875 7.46875 41.1875 3.015625 
Q 35.15625 -1.421875 24.609375 -1.421875 
Q 20.21875 -1.421875 15.453125 -0.5625 
Q 10.6875 0.296875 5.421875 2 
L 5.421875 11.28125 
Q 10.40625 8.6875 15.234375 7.390625 
Q 20.0625 6.109375 24.8125 6.109375 
Q 31.15625 6.109375 34.5625 8.28125 
Q 37.984375 10.453125 37.984375 14.40625 
Q 37.984375 18.0625 35.515625 20.015625 
Q 33.0625 21.96875 24.703125 23.78125 
L 21.578125 24.515625 
Q 13.234375 26.265625 9.515625 29.90625 
Q 5.8125 33.546875 5.8125 39.890625 
Q 5.8125 47.609375 11.28125 51.796875 
Q 16.75 56 26.8125 56 
Q 31.78125 56 36.171875 55.265625 
Q 40.578125 54.546875 44.28125 53.078125 
z
" id="DejaVuSans-115"/>
     <path d="M 9.421875 54.6875 
L 18.40625 54.6875 
L 18.40625 0 
L 9.421875 0 
z
M 9.421875 75.984375 
L 18.40625 75.984375 
L 18.40625 64.59375 
L 9.421875 64.59375 
z
" id="DejaVuSans-105"/>
     <path d="M 54.890625 33.015625 
L 54.890625 0 
L 45.90625 0 
L 45.90625 32.71875 
Q 45.90625 40.484375 42.875 44.328125 
Q 39.84375 48.1875 33.796875 48.1875 
Q 26.515625 48.1875 22.3125 43.546875 
Q 18.109375 38.921875 18.109375 30.90625 
L 18.109375 0 
L 9.078125 0 
L 9.078125 54.6875 
L 18.109375 54.6875 
L 18.109375 46.1875 
Q 21.34375 51.125 25.703125 53.5625 
Q 30.078125 56 35.796875 56 
Q 45.21875 56 50.046875 50.171875 
Q 54.890625 44.34375 54.890625 33.015625 
z
" id="DejaVuSans-110"/>
     <path d="M 31 75.875 
Q 24.46875 64.65625 21.28125 53.65625 
Q 18.109375 42.671875 18.109375 31.390625 
Q 18.109375 20.125 21.3125 9.0625 
Q 24.515625 -2 31 -13.1875 
L 23.1875 -13.1875 
Q 15.875 -1.703125 12.234375 9.375 
Q 8.59375 20.453125 8.59375 31.390625 
Q 8.59375 42.28125 12.203125 53.3125 
Q 15.828125 64.359375 23.1875 75.875 
z
" id="DejaVuSans-40"/>
     <path d="M 9.125 54.6875 
L 61.53125 54.6875 
L 59.765625 45.703125 
L 52.875 45.703125 
L 46.34375 12.109375 
Q 45.65625 8.59375 46.578125 7.03125 
Q 47.46875 5.515625 50.140625 5.515625 
Q 50.875 5.515625 51.953125 5.671875 
Q 53.078125 5.765625 53.421875 5.8125 
L 52.15625 -0.6875 
Q 50.34375 -1.3125 48.484375 -1.609375 
Q 46.578125 -1.90625 44.78125 -1.90625 
Q 38.921875 -1.90625 37.3125 1.265625 
Q 35.6875 4.5 37.359375 13.09375 
L 43.703125 45.703125 
L 23.53125 45.703125 
L 14.65625 0 
L 5.46875 0 
L 14.359375 45.703125 
L 7.375 45.703125 
z
" id="DejaVuSans-Oblique-960"/>
     <path d="M 60.015625 54.6875 
L 34.90625 27.875 
L 50.296875 0 
L 39.984375 0 
L 28.421875 21.6875 
L 8.296875 0 
L -2.59375 0 
L 24.3125 28.8125 
L 10.015625 54.6875 
L 20.3125 54.6875 
L 30.8125 34.90625 
L 49.125 54.6875 
z
" id="DejaVuSans-Oblique-120"/>
     <path d="M 8.015625 75.875 
L 15.828125 75.875 
Q 23.140625 64.359375 26.78125 53.3125 
Q 30.421875 42.28125 30.421875 31.390625 
Q 30.421875 20.453125 26.78125 9.375 
Q 23.140625 -1.703125 15.828125 -13.1875 
L 8.015625 -13.1875 
Q 14.5 -2 17.703125 9.0625 
Q 20.90625 20.125 20.90625 31.390625 
Q 20.90625 42.671875 17.703125 53.65625 
Q 14.5 64.65625 8.015625 75.875 
z
" id="DejaVuSans-41"/>
    </defs>
    <g style="fill:#6495ed;" transform="translate(56.552045 168.474889)scale(0.1 -0.1)">
     <use transform="translate(0 0.015625)" xlink:href="#DejaVuSans-Oblique-121"/>
     <use transform="translate(78.662109 0.015625)" xlink:href="#DejaVuSans-61"/>
     <use transform="translate(181.933594 0.015625)" xlink:href="#DejaVuSans-115"/>
     <use transform="translate(234.033203 0.015625)" xlink:href="#DejaVuSans-105"/>
     <use transform="translate(261.816406 0.015625)" xlink:href="#DejaVuSans-110"/>
     <use transform="translate(325.195312 0.015625)" xlink:href="#DejaVuSans-40"/>
     <use transform="translate(364.208984 0.015625)" xlink:href="#DejaVuSans-50"/>
     <use transform="translate(427.832031 0.015625)" xlink:href="#DejaVuSans-Oblique-960"/>
     <use transform="translate(488.037109 0.015625)" xlink:href="#DejaVuSans-Oblique-120"/>
     <use transform="translate(547.216797 0.015625)" xlink:href="#DejaVuSans-41"/>
    </g>
   </g>
   <g id="text_13">
    <!-- $y=10 \sin{(2 \pi x)}$ -->
    <g style="fill:#70c0c6;" transform="translate(241.584773 244.727156)scale(0.1 -0.1)">
     <use transform="translate(0 0.015625)" xlink:href="#DejaVuSans-Oblique-121"/>
     <use transform="translate(78.662109 0.015625)" xlink:href="#DejaVuSans-61"/>
     <use transform="translate(181.933594 0.015625)" xlink:href="#DejaVuSans-49"/>
     <use transform="translate(245.556641 0.015625)" xlink:href="#DejaVuSans-48"/>
     <use transform="translate(309.179688 0.015625)" xlink:href="#DejaVuSans-115"/>
     <use transform="translate(361.279297 0.015625)" xlink:href="#DejaVuSans-105"/>
     <use transform="translate(389.0625 0.015625)" xlink:href="#DejaVuSans-110"/>
     <use transform="translate(452.441406 0.015625)" xlink:href="#DejaVuSans-40"/>
     <use transform="translate(491.455078 0.015625)" xlink:href="#DejaVuSans-50"/>
     <use transform="translate(555.078125 0.015625)" xlink:href="#DejaVuSans-Oblique-960"/>
     <use transform="translate(615.283203 0.015625)" xlink:href="#DejaVuSans-Oblique-120"/>
     <use transform="translate(674.462891 0.015625)" xlink:href="#DejaVuSans-41"/>
    </g>
   </g>
   <g id="text_14">
    <!-- $y=5 \sin{(2 \pi x)}$ -->
    <g style="fill:#d9534f;" transform="translate(216.8225 45.018836)scale(0.1 -0.1)">
     <use transform="translate(0 0.015625)" xlink:href="#DejaVuSans-Oblique-121"/>
     <use transform="translate(78.662109 0.015625)" xlink:href="#DejaVuSans-61"/>
     <use transform="translate(181.933594 0.015625)" xlink:href="#DejaVuSans-53"/>
     <use transform="translate(245.556641 0.015625)" xlink:href="#DejaVuSans-115"/>
     <use transform="translate(297.65625 0.015625)" xlink:href="#DejaVuSans-105"/>
     <use transform="translate(325.439453 0.015625)" xlink:href="#DejaVuSans-110"/>
     <use transform="translate(388.818359 0.015625)" xlink:href="#DejaVuSans-40"/>
     <use transform="translate(427.832031 0.015625)" xlink:href="#DejaVuSans-50"/>
     <use transform="translate(491.455078 0.015625)" xlink:href="#DejaVuSans-Oblique-960"/>
     <use transform="translate(551.660156 0.015625)" xlink:href="#DejaVuSans-Oblique-120"/>
     <use transform="translate(610.839844 0.015625)" xlink:href="#DejaVuSans-41"/>
    </g>
   </g>
   <g id="legend_1">
    <g id="patch_7">
     <path d="M 47.525 66.794375 
L 158.23125 66.794375 
Q 160.23125 66.794375 160.23125 64.794375 
L 160.23125 21.76 
Q 160.23125 19.76 158.23125 19.76 
L 47.525 19.76 
Q 45.525 19.76 45.525 21.76 
L 45.525 64.794375 
Q 45.525 66.794375 47.525 66.794375 
z
" style="fill:#ffffff;opacity:0.8;stroke:#cccccc;stroke-linejoin:miter;"/>
    </g>
    <g id="line2d_19">
     <path d="M 49.525 27.858437 
L 69.525 27.858437 
" style="fill:none;stroke:#6495ed;stroke-linecap:square;stroke-width:1.5;"/>
    </g>
    <g id="line2d_20">
     <g>
      <use style="fill:#6495ed;stroke:#6495ed;" x="59.525" xlink:href="#m0e4c673187" y="27.858437"/>
     </g>
    </g>
    <g id="text_15">
     <!-- Amplitude = 1 -->
     <defs>
      <path d="M 34.1875 63.1875 
L 20.796875 26.90625 
L 47.609375 26.90625 
z
M 28.609375 72.90625 
L 39.796875 72.90625 
L 67.578125 0 
L 57.328125 0 
L 50.6875 18.703125 
L 17.828125 18.703125 
L 11.1875 0 
L 0.78125 0 
z
" id="DejaVuSans-65"/>
      <path d="M 52 44.1875 
Q 55.375 50.25 60.0625 53.125 
Q 64.75 56 71.09375 56 
Q 79.640625 56 84.28125 50.015625 
Q 88.921875 44.046875 88.921875 33.015625 
L 88.921875 0 
L 79.890625 0 
L 79.890625 32.71875 
Q 79.890625 40.578125 77.09375 44.375 
Q 74.3125 48.1875 68.609375 48.1875 
Q 61.625 48.1875 57.5625 43.546875 
Q 53.515625 38.921875 53.515625 30.90625 
L 53.515625 0 
L 44.484375 0 
L 44.484375 32.71875 
Q 44.484375 40.625 41.703125 44.40625 
Q 38.921875 48.1875 33.109375 48.1875 
Q 26.21875 48.1875 22.15625 43.53125 
Q 18.109375 38.875 18.109375 30.90625 
L 18.109375 0 
L 9.078125 0 
L 9.078125 54.6875 
L 18.109375 54.6875 
L 18.109375 46.1875 
Q 21.1875 51.21875 25.484375 53.609375 
Q 29.78125 56 35.6875 56 
Q 41.65625 56 45.828125 52.96875 
Q 50 49.953125 52 44.1875 
z
" id="DejaVuSans-109"/>
      <path d="M 18.109375 8.203125 
L 18.109375 -20.796875 
L 9.078125 -20.796875 
L 9.078125 54.6875 
L 18.109375 54.6875 
L 18.109375 46.390625 
Q 20.953125 51.265625 25.265625 53.625 
Q 29.59375 56 35.59375 56 
Q 45.5625 56 51.78125 48.09375 
Q 58.015625 40.1875 58.015625 27.296875 
Q 58.015625 14.40625 51.78125 6.484375 
Q 45.5625 -1.421875 35.59375 -1.421875 
Q 29.59375 -1.421875 25.265625 0.953125 
Q 20.953125 3.328125 18.109375 8.203125 
z
M 48.6875 27.296875 
Q 48.6875 37.203125 44.609375 42.84375 
Q 40.53125 48.484375 33.40625 48.484375 
Q 26.265625 48.484375 22.1875 42.84375 
Q 18.109375 37.203125 18.109375 27.296875 
Q 18.109375 17.390625 22.1875 11.75 
Q 26.265625 6.109375 33.40625 6.109375 
Q 40.53125 6.109375 44.609375 11.75 
Q 48.6875 17.390625 48.6875 27.296875 
z
" id="DejaVuSans-112"/>
      <path d="M 9.421875 75.984375 
L 18.40625 75.984375 
L 18.40625 0 
L 9.421875 0 
z
" id="DejaVuSans-108"/>
      <path d="M 18.3125 70.21875 
L 18.3125 54.6875 
L 36.8125 54.6875 
L 36.8125 47.703125 
L 18.3125 47.703125 
L 18.3125 18.015625 
Q 18.3125 11.328125 20.140625 9.421875 
Q 21.96875 7.515625 27.59375 7.515625 
L 36.8125 7.515625 
L 36.8125 0 
L 27.59375 0 
Q 17.1875 0 13.234375 3.875 
Q 9.28125 7.765625 9.28125 18.015625 
L 9.28125 47.703125 
L 2.6875 47.703125 
L 2.6875 54.6875 
L 9.28125 54.6875 
L 9.28125 70.21875 
z
" id="DejaVuSans-116"/>
      <path d="M 8.5 21.578125 
L 8.5 54.6875 
L 17.484375 54.6875 
L 17.484375 21.921875 
Q 17.484375 14.15625 20.5 10.265625 
Q 23.53125 6.390625 29.59375 6.390625 
Q 36.859375 6.390625 41.078125 11.03125 
Q 45.3125 15.671875 45.3125 23.6875 
L 45.3125 54.6875 
L 54.296875 54.6875 
L 54.296875 0 
L 45.3125 0 
L 45.3125 8.40625 
Q 42.046875 3.421875 37.71875 1 
Q 33.40625 -1.421875 27.6875 -1.421875 
Q 18.265625 -1.421875 13.375 4.4375 
Q 8.5 10.296875 8.5 21.578125 
z
M 31.109375 56 
z
" id="DejaVuSans-117"/>
      <path d="M 45.40625 46.390625 
L 45.40625 75.984375 
L 54.390625 75.984375 
L 54.390625 0 
L 45.40625 0 
L 45.40625 8.203125 
Q 42.578125 3.328125 38.25 0.953125 
Q 33.9375 -1.421875 27.875 -1.421875 
Q 17.96875 -1.421875 11.734375 6.484375 
Q 5.515625 14.40625 5.515625 27.296875 
Q 5.515625 40.1875 11.734375 48.09375 
Q 17.96875 56 27.875 56 
Q 33.9375 56 38.25 53.625 
Q 42.578125 51.265625 45.40625 46.390625 
z
M 14.796875 27.296875 
Q 14.796875 17.390625 18.875 11.75 
Q 22.953125 6.109375 30.078125 6.109375 
Q 37.203125 6.109375 41.296875 11.75 
Q 45.40625 17.390625 45.40625 27.296875 
Q 45.40625 37.203125 41.296875 42.84375 
Q 37.203125 48.484375 30.078125 48.484375 
Q 22.953125 48.484375 18.875 42.84375 
Q 14.796875 37.203125 14.796875 27.296875 
z
" id="DejaVuSans-100"/>
      <path d="M 56.203125 29.59375 
L 56.203125 25.203125 
L 14.890625 25.203125 
Q 15.484375 15.921875 20.484375 11.0625 
Q 25.484375 6.203125 34.421875 6.203125 
Q 39.59375 6.203125 44.453125 7.46875 
Q 49.3125 8.734375 54.109375 11.28125 
L 54.109375 2.78125 
Q 49.265625 0.734375 44.1875 -0.34375 
Q 39.109375 -1.421875 33.890625 -1.421875 
Q 20.796875 -1.421875 13.15625 6.1875 
Q 5.515625 13.8125 5.515625 26.8125 
Q 5.515625 40.234375 12.765625 48.109375 
Q 20.015625 56 32.328125 56 
Q 43.359375 56 49.78125 48.890625 
Q 56.203125 41.796875 56.203125 29.59375 
z
M 47.21875 32.234375 
Q 47.125 39.59375 43.09375 43.984375 
Q 39.0625 48.390625 32.421875 48.390625 
Q 24.90625 48.390625 20.390625 44.140625 
Q 15.875 39.890625 15.1875 32.171875 
z
" id="DejaVuSans-101"/>
      <path id="DejaVuSans-32"/>
     </defs>
     <g transform="translate(77.525 31.358437)scale(0.1 -0.1)">
      <use xlink:href="#DejaVuSans-65"/>
      <use x="68.408203" xlink:href="#DejaVuSans-109"/>
      <use x="165.820312" xlink:href="#DejaVuSans-112"/>
      <use x="229.296875" xlink:href="#DejaVuSans-108"/>
      <use x="257.080078" xlink:href="#DejaVuSans-105"/>
      <use x="284.863281" xlink:href="#DejaVuSans-116"/>
      <use x="324.072266" xlink:href="#DejaVuSans-117"/>
      <use x="387.451172" xlink:href="#DejaVuSans-100"/>
      <use x="450.927734" xlink:href="#DejaVuSans-101"/>
      <use x="512.451172" xlink:href="#DejaVuSans-32"/>
      <use x="544.238281" xlink:href="#DejaVuSans-61"/>
      <use x="628.027344" xlink:href="#DejaVuSans-32"/>
      <use x="659.814453" xlink:href="#DejaVuSans-49"/>
     </g>
    </g>
    <g id="line2d_21">
     <path d="M 49.525 42.536562 
L 69.525 42.536562 
" style="fill:none;stroke:#70c0c6;stroke-dasharray:5.55,2.4;stroke-dashoffset:0;stroke-width:1.5;"/>
    </g>
    <g id="line2d_22">
     <g>
      <use style="fill:#70c0c6;stroke:#70c0c6;stroke-linejoin:bevel;" x="59.525" xlink:href="#me238037088" y="42.536562"/>
     </g>
    </g>
    <g id="text_16">
     <!-- Amplitude = 10 -->
     <g transform="translate(77.525 46.036562)scale(0.1 -0.1)">
      <use xlink:href="#DejaVuSans-65"/>
      <use x="68.408203" xlink:href="#DejaVuSans-109"/>
      <use x="165.820312" xlink:href="#DejaVuSans-112"/>
      <use x="229.296875" xlink:href="#DejaVuSans-108"/>
      <use x="257.080078" xlink:href="#DejaVuSans-105"/>
      <use x="284.863281" xlink:href="#DejaVuSans-116"/>
      <use x="324.072266" xlink:href="#DejaVuSans-117"/>
      <use x="387.451172" xlink:href="#DejaVuSans-100"/>
      <use x="450.927734" xlink:href="#DejaVuSans-101"/>
      <use x="512.451172" xlink:href="#DejaVuSans-32"/>
      <use x="544.238281" xlink:href="#DejaVuSans-61"/>
      <use x="628.027344" xlink:href="#DejaVuSans-32"/>
      <use x="659.814453" xlink:href="#DejaVuSans-49"/>
      <use x="723.4375" xlink:href="#DejaVuSans-48"/>
     </g>
    </g>
    <g id="line2d_23">
     <path d="M 49.525 57.214687 
L 69.525 57.214687 
" style="fill:none;stroke:#d9534f;stroke-dasharray:9.6,2.4,1.5,2.4;stroke-dashoffset:0;stroke-width:1.5;"/>
    </g>
    <g id="line2d_24">
     <g>
      <use style="fill:#d9534f;stroke:#d9534f;stroke-linejoin:miter;" x="59.525" xlink:href="#mf58dfe859d" y="57.214687"/>
     </g>
    </g>
    <g id="text_17">
     <!-- Amplitude = 5 -->
     <g transform="translate(77.525 60.714687)scale(0.1 -0.1)">
      <use xlink:href="#DejaVuSans-65"/>
      <use x="68.408203" xlink:href="#DejaVuSans-109"/>
      <use x="165.820312" xlink:href="#DejaVuSans-112"/>
      <use x="229.296875" xlink:href="#DejaVuSans-108"/>
      <use x="257.080078" xlink:href="#DejaVuSans-105"/>
      <use x="284.863281" xlink:href="#DejaVuSans-116"/>
      <use x="324.072266" xlink:href="#DejaVuSans-117"/>
      <use x="387.451172" xlink:href="#DejaVuSans-100"/>
      <use x="450.927734" xlink:href="#DejaVuSans-101"/>
      <use x="512.451172" xlink:href="#DejaVuSans-32"/>
      <use x="544.238281" xlink:href="#DejaVuSans-61"/>
      <use x="628.027344" xlink:href="#DejaVuSans-32"/>
      <use x="659.814453" xlink:href="#DejaVuSans-53"/>
     </g>
    </g>
   </g>
  </g>
 </g>
 <defs>
  <clipPath id="p7f5b83ac54">
   <rect height="245.36" width="352.595" x="40.525" y="14.76"/>
  </clipPath>
 </defs>
</svg>
