<?xml version="1.0" encoding="utf-8"?>
<!-- Generator: Adobe Illustrator 24.1.2, SVG Export Plug-In . SVG Version: 6.00 Build 0)  -->
<svg version="1.1" id="Layer_1" xmlns="http://www.w3.org/2000/svg" xmlns:xlink="http://www.w3.org/1999/xlink" x="0px" y="0px"
	 viewBox="0 0 464.7 465.6" style="enable-background:new 0 0 464.7 465.6;" xml:space="preserve">
<style type="text/css">
	.st0{fill:#FFFFFF;}
	.st1{clip-path:url(#SVGID_2_);}
	.st2{fill:#FFA500;stroke:#FFA500;stroke-linejoin:round;}
	.st3{stroke:#000000;stroke-width:0.8;stroke-linejoin:round;}
	.st4{stroke:#000000;stroke-width:0.6;stroke-linejoin:round;}
	.st5{clip-path:url(#SVGID_4_);fill:none;stroke:#6A8FC0;stroke-width:0.8;stroke-linecap:square;stroke-linejoin:round;}
	.st6{fill:none;stroke:#000000;stroke-width:0.8;stroke-linecap:square;}
	.st7{fill:none;stroke:#FF0000;stroke-linecap:round;stroke-linejoin:round;}
	.st8{fill:#FF0000;}
	.st9{fill:#6A8FC0;}
	.st10{fill:none;stroke:#FFA500;stroke-linecap:round;stroke-linejoin:round;}
	.st11{fill:#FFA500;}
	.st12{fill:none;stroke:#000000;stroke-miterlimit:10;}
	.st13{fill:none;stroke:#5F5F5F;stroke-width:0.75;stroke-miterlimit:10;}
	.st14{font-family:'Verdana';}
	.st15{font-size:16px;}
</style>
<g id="figure_1">
	<g id="patch_1">
		<path class="st0" d="M12.8,456.2H411V125.8c-72.1,0-144.1,0-216.2,0c-60.7,0-121.3,0-182,0C12.8,236,12.8,346.2,12.8,456.2z"/>
	</g>
	<g id="axes_1">
		<g id="patch_2">
			<path class="st0" d="M64.2,381.2H400V152H64.2V381.2z"/>
		</g>
		<g id="PathCollection_1">
			<g>
				<g>
					<defs>
						<rect id="SVGID_1_" x="64.2" y="152" width="336" height="229.2"/>
					</defs>
					<clipPath id="SVGID_2_">
						<use xlink:href="#SVGID_1_"  style="overflow:visible;"/>
					</clipPath>
					<g class="st1">
						<g>
							<path id="mcdc0c83af7" class="st2" d="M246.9,259.5c0.4,0,0.8-0.2,1.1-0.4c0.3-0.3,0.4-0.7,0.4-1.1s-0.2-0.8-0.4-1.1
								c-0.3-0.3-0.7-0.4-1.1-0.4c-0.4,0-0.8,0.2-1.1,0.4c-0.3,0.3-0.4,0.7-0.4,1.1c0,0.4,0.2,0.8,0.4,1.1
								C246.2,259.2,246.6,259.5,246.9,259.5z"/>
						</g>
						<g>
							<path id="mcdc0c83af7_1_" class="st2" d="M325.9,315.8c0.4,0,0.8-0.2,1.1-0.4c0.3-0.3,0.4-0.7,0.4-1.1c0-0.4-0.2-0.8-0.4-1.1
								c-0.3-0.3-0.7-0.4-1.1-0.4s-0.8,0.2-1.1,0.4c-0.3,0.3-0.4,0.7-0.4,1.1s0.2,0.8,0.4,1.1C325.2,315.6,325.5,315.8,325.9,315.8z
								"/>
						</g>
						<g>
							<path id="mcdc0c83af7_2_" class="st2" d="M119.7,317.6c0.4,0,0.8-0.2,1.1-0.4c0.3-0.3,0.4-0.7,0.4-1.1c0-0.4-0.2-0.8-0.4-1.1
								c-0.3-0.3-0.7-0.4-1.1-0.4s-0.8,0.2-1.1,0.4c-0.3,0.3-0.4,0.7-0.4,1.1s0.2,0.8,0.4,1.1C118.9,317.5,119.2,317.6,119.7,317.6z
								"/>
						</g>
						<g>
							<path id="mcdc0c83af7_3_" class="st2" d="M179.2,292.8c0.4,0,0.8-0.2,1.1-0.4c0.3-0.3,0.4-0.7,0.4-1.1c0-0.4-0.2-0.8-0.4-1.1
								c-0.3-0.3-0.7-0.4-1.1-0.4c-0.4,0-0.8,0.2-1.1,0.4c-0.3,0.3-0.4,0.7-0.4,1.1s0.2,0.8,0.4,1.1
								C178.4,292.6,178.8,292.8,179.2,292.8z"/>
						</g>
						<g>
							<path id="mcdc0c83af7_4_" class="st2" d="M325.1,299.1c0.4,0,0.8-0.2,1.1-0.4c0.3-0.3,0.4-0.7,0.4-1.1s-0.2-0.8-0.4-1.1
								c-0.3-0.3-0.7-0.4-1.1-0.4s-0.8,0.2-1.1,0.4c-0.3,0.3-0.4,0.7-0.4,1.1c0,0.4,0.2,0.8,0.4,1.1
								C324.4,298.9,324.8,299.1,325.1,299.1z"/>
						</g>
						<g>
							<path id="mcdc0c83af7_5_" class="st2" d="M362.1,226.6c0.4,0,0.8-0.2,1.1-0.4c0.3-0.3,0.4-0.7,0.4-1.1c0-0.4-0.2-0.8-0.4-1.1
								c-0.3-0.3-0.7-0.4-1.1-0.4s-0.8,0.2-1.1,0.4c-0.3,0.3-0.4,0.7-0.4,1.1c0,0.4,0.2,0.8,0.4,1.1
								C361.3,226.5,361.8,226.6,362.1,226.6z"/>
						</g>
						<g>
							<path id="mcdc0c83af7_6_" class="st2" d="M136.9,307.2c0.4,0,0.8-0.2,1.1-0.4c0.3-0.3,0.4-0.7,0.4-1.1c0-0.4-0.2-0.8-0.4-1.1
								c-0.3-0.3-0.7-0.4-1.1-0.4c-0.4,0-0.8,0.2-1.1,0.4c-0.3,0.3-0.4,0.7-0.4,1.1s0.2,0.8,0.4,1.1
								C136.2,307.1,136.6,307.2,136.9,307.2z"/>
						</g>
						<g>
							<path id="mcdc0c83af7_7_" class="st2" d="M99.2,202.9c0.4,0,0.8-0.2,1.1-0.4c0.3-0.3,0.4-0.7,0.4-1.1c0-0.4-0.2-0.8-0.4-1.1
								c-0.3-0.3-0.7-0.4-1.1-0.4s-0.8,0.2-1.1,0.4c-0.3,0.3-0.4,0.7-0.4,1.1c0,0.4,0.2,0.8,0.4,1.1
								C98.5,202.7,98.8,202.9,99.2,202.9z"/>
						</g>
						<g>
							<path id="mcdc0c83af7_8_" class="st2" d="M295.2,188.1c0.4,0,0.8-0.2,1.1-0.4c0.3-0.3,0.4-0.7,0.4-1.1c0-0.4-0.2-0.8-0.4-1.1
								c-0.3-0.3-0.7-0.4-1.1-0.4s-0.8,0.2-1.1,0.4c-0.3,0.2-0.4,0.7-0.4,1.1c0,0.4,0.2,0.8,0.4,1.1
								C294.3,187.9,294.8,188.1,295.2,188.1z"/>
						</g>
						<g>
							<path id="mcdc0c83af7_9_" class="st2" d="M301.8,269.6c0.4,0,0.8-0.2,1.1-0.4c0.3-0.3,0.4-0.7,0.4-1.1c0-0.4-0.2-0.8-0.4-1.1
								c-0.3-0.3-0.7-0.4-1.1-0.4s-0.8,0.2-1.1,0.4c-0.3,0.3-0.4,0.7-0.4,1.1s0.2,0.8,0.4,1.1C300.9,269.6,301.3,269.6,301.8,269.6z
								"/>
						</g>
						<g>
							<path id="mcdc0c83af7_10_" class="st2" d="M359.2,306.4c0.4,0,0.8-0.2,1.1-0.4c0.3-0.3,0.4-0.7,0.4-1.1s-0.2-0.8-0.4-1.1
								c-0.3-0.3-0.7-0.4-1.1-0.4s-0.8,0.2-1.1,0.4c-0.3,0.3-0.4,0.7-0.4,1.1c0,0.4,0.2,0.8,0.4,1.1
								C358.5,306.1,358.8,306.4,359.2,306.4z"/>
						</g>
						<g>
							<path id="mcdc0c83af7_11_" class="st2" d="M386.2,214.3c0.4,0,0.8-0.2,1.1-0.4c0.3-0.3,0.4-0.7,0.4-1.1
								c0-0.4-0.2-0.8-0.4-1.1c-0.3-0.3-0.7-0.4-1.1-0.4s-0.8,0.2-1.1,0.4c-0.3,0.3-0.4,0.7-0.4,1.1c0,0.4,0.2,0.8,0.4,1.1
								C385.4,214.2,385.8,214.3,386.2,214.3z"/>
						</g>
						<g>
							<path id="mcdc0c83af7_12_" class="st2" d="M173.9,185.7c0.4,0,0.8-0.2,1.1-0.4c0.3-0.3,0.4-0.7,0.4-1.1
								c0-0.4-0.2-0.8-0.4-1.1c-0.3-0.3-0.7-0.4-1.1-0.4c-0.4,0-0.8,0.2-1.1,0.4c-0.3,0.3-0.4,0.7-0.4,1.1c0,0.4,0.2,0.8,0.4,1.1
								C173.1,185.6,173.4,185.7,173.9,185.7z"/>
						</g>
						<g>
							<path id="mcdc0c83af7_13_" class="st2" d="M221.1,349c0.4,0,0.8-0.2,1.1-0.4c0.3-0.3,0.4-0.7,0.4-1.1s-0.2-0.8-0.4-1.1
								c-0.3-0.3-0.7-0.4-1.1-0.4c-0.4,0-0.8,0.2-1.1,0.4c-0.3,0.3-0.4,0.7-0.4,1.1s0.2,0.8,0.4,1.1
								C220.2,348.9,220.7,349,221.1,349z"/>
						</g>
						<g>
							<path id="mcdc0c83af7_14_" class="st2" d="M164.7,253.5c0.4,0,0.8-0.2,1.1-0.4c0.3-0.3,0.4-0.7,0.4-1.1
								c0-0.4-0.2-0.8-0.4-1.1c-0.3-0.3-0.7-0.4-1.1-0.4c-0.4,0-0.8,0.2-1.1,0.4c-0.3,0.3-0.4,0.7-0.4,1.1c0,0.4,0.2,0.8,0.4,1.1
								C163.9,253.3,164.2,253.5,164.7,253.5z"/>
						</g>
						<g>
							<path id="mcdc0c83af7_15_" class="st2" d="M321.4,248.8c0.4,0,0.8-0.2,1.1-0.4c0.3-0.3,0.4-0.7,0.4-1.1
								c0-0.4-0.2-0.8-0.4-1.1c-0.3-0.3-0.7-0.4-1.1-0.4s-0.8,0.2-1.1,0.4c-0.3,0.3-0.4,0.7-0.4,1.1c0,0.4,0.2,0.8,0.4,1.1
								C320.6,248.6,321,248.8,321.4,248.8z"/>
						</g>
						<g>
							<path id="mcdc0c83af7_16_" class="st2" d="M139.1,174.2c0.4,0,0.8-0.2,1.1-0.4c0.3-0.3,0.4-0.7,0.4-1.1
								c0-0.4-0.2-0.8-0.4-1.1c-0.3-0.3-0.7-0.4-1.1-0.4c-0.4,0-0.8,0.2-1.1,0.4c-0.3,0.3-0.4,0.7-0.4,1.1c0,0.4,0.2,0.8,0.4,1.1
								C138.2,174.1,138.7,174.2,139.1,174.2z"/>
						</g>
						<g>
							<path id="mcdc0c83af7_17_" class="st2" d="M252.8,286.4c0.4,0,0.8-0.2,1.1-0.4c0.3-0.3,0.4-0.7,0.4-1.1s-0.2-0.8-0.4-1.1
								c-0.3-0.3-0.7-0.4-1.1-0.4c-0.4,0-0.8,0.2-1.1,0.4c-0.3,0.3-0.4,0.7-0.4,1.1c0,0.4,0.2,0.8,0.4,1.1
								C251.9,286.2,252.4,286.4,252.8,286.4z"/>
						</g>
						<g>
							<path id="mcdc0c83af7_18_" class="st2" d="M201.9,285.1c0.4,0,0.8-0.2,1.1-0.4c0.3-0.3,0.4-0.7,0.4-1.1s-0.2-0.8-0.4-1.1
								c-0.3-0.3-0.7-0.4-1.1-0.4c-0.4,0-0.8,0.2-1.1,0.4c-0.3,0.3-0.4,0.7-0.4,1.1c0,0.4,0.2,0.8,0.4,1.1
								C201.1,284.9,201.4,285.1,201.9,285.1z"/>
						</g>
						<g>
							<path id="mcdc0c83af7_19_" class="st2" d="M190.6,349.2c0.4,0,0.8-0.2,1.1-0.4c0.3-0.3,0.4-0.7,0.4-1.1s-0.2-0.8-0.4-1.1
								c-0.3-0.3-0.7-0.4-1.1-0.4c-0.4,0-0.8,0.2-1.1,0.4c-0.3,0.3-0.4,0.7-0.4,1.1s0.2,0.8,0.4,1.1
								C189.8,349,190.2,349.2,190.6,349.2z"/>
						</g>
						<g>
							<path id="mcdc0c83af7_20_" class="st2" d="M91.8,227.3c0.4,0,0.8-0.2,1.1-0.4c0.3-0.3,0.4-0.7,0.4-1.1c0-0.4-0.2-0.8-0.4-1.1
								c-0.3-0.3-0.7-0.4-1.1-0.4s-0.8,0.2-1.1,0.4c-0.3,0.3-0.4,0.7-0.4,1.1c0,0.4,0.2,0.8,0.4,1.1
								C91.1,227.1,91.4,227.3,91.8,227.3z"/>
						</g>
						<g>
							<path id="mcdc0c83af7_21_" class="st2" d="M124.5,275.1c0.4,0,0.8-0.2,1.1-0.4c0.3-0.3,0.4-0.7,0.4-1.1
								c0-0.4-0.2-0.8-0.4-1.1c-0.3-0.3-0.7-0.4-1.1-0.4s-0.8,0.2-1.1,0.4c-0.3,0.3-0.4,0.7-0.4,1.1s0.2,0.8,0.4,1.1
								C123.7,275,124.1,275.1,124.5,275.1z"/>
						</g>
						<g>
							<path id="mcdc0c83af7_22_" class="st2" d="M85.6,339.5c0.4,0,0.8-0.2,1.1-0.4c0.3-0.3,0.4-0.7,0.4-1.1s-0.2-0.8-0.4-1.1
								c-0.3-0.3-0.7-0.4-1.1-0.4s-0.8,0.2-1.1,0.4c-0.3,0.3-0.4,0.7-0.4,1.1s0.2,0.8,0.4,1.1C84.8,339.2,85.2,339.5,85.6,339.5z"/>
						</g>
						<g>
							<path id="mcdc0c83af7_23_" class="st2" d="M184.9,171c0.4,0,0.8-0.2,1.1-0.4c0.3-0.3,0.4-0.7,0.4-1.1c0-0.4-0.2-0.8-0.4-1.1
								c-0.3-0.3-0.7-0.4-1.1-0.4c-0.4,0-0.8,0.2-1.1,0.4c-0.3,0.3-0.4,0.7-0.4,1.1c0,0.4,0.2,0.8,0.4,1.1
								C184.2,170.9,184.6,171,184.9,171z"/>
						</g>
						<g>
							<path id="mcdc0c83af7_24_" class="st2" d="M122.5,281.1c0.4,0,0.8-0.2,1.1-0.4c0.3-0.3,0.4-0.7,0.4-1.1
								c0-0.4-0.2-0.8-0.4-1.1c-0.3-0.3-0.7-0.4-1.1-0.4s-0.8,0.2-1.1,0.4c-0.3,0.3-0.4,0.7-0.4,1.1s0.2,0.8,0.4,1.1
								C121.7,281.1,122.1,281.1,122.5,281.1z"/>
						</g>
						<g>
							<path id="mcdc0c83af7_25_" class="st2" d="M84.6,261.9c0.4,0,0.8-0.2,1.1-0.4c0.3-0.3,0.4-0.7,0.4-1.1s-0.2-0.8-0.4-1.1
								c-0.3-0.3-0.7-0.4-1.1-0.4s-0.8,0.2-1.1,0.4c-0.3,0.3-0.4,0.7-0.4,1.1c0,0.4,0.2,0.8,0.4,1.1
								C83.9,261.8,84.2,261.9,84.6,261.9z"/>
						</g>
						<g>
							<path id="mcdc0c83af7_26_" class="st2" d="M92.7,259.4c0.4,0,0.8-0.2,1.1-0.4c0.3-0.3,0.4-0.7,0.4-1.1s-0.2-0.8-0.4-1.1
								c-0.3-0.3-0.7-0.4-1.1-0.4s-0.8,0.2-1.1,0.4c-0.3,0.3-0.4,0.7-0.4,1.1c0,0.4,0.2,0.8,0.4,1.1
								C91.9,259.1,92.2,259.4,92.7,259.4z"/>
						</g>
						<g>
							<path id="mcdc0c83af7_27_" class="st2" d="M154.8,369.4c0.4,0,0.8-0.2,1.1-0.4c0.3-0.3,0.4-0.7,0.4-1.1s-0.2-0.8-0.4-1.1
								c-0.3-0.3-0.7-0.4-1.1-0.4c-0.4,0-0.8,0.2-1.1,0.4c-0.3,0.3-0.4,0.7-0.4,1.1s0.2,0.8,0.4,1.1
								C154.1,369.2,154.4,369.4,154.8,369.4z"/>
						</g>
						<g>
							<path id="mcdc0c83af7_28_" class="st2" d="M166.2,178.9c0.4,0,0.8-0.2,1.1-0.4c0.3-0.3,0.4-0.7,0.4-1.1
								c0-0.4-0.2-0.8-0.4-1.1c-0.3-0.3-0.7-0.4-1.1-0.4c-0.4,0-0.8,0.2-1.1,0.4c-0.3,0.3-0.4,0.7-0.4,1.1c0,0.4,0.2,0.8,0.4,1.1
								C165.4,178.7,165.8,178.9,166.2,178.9z"/>
						</g>
						<g>
							<path id="mcdc0c83af7_29_" class="st2" d="M138.8,365.7c0.4,0,0.8-0.2,1.1-0.4c0.3-0.3,0.4-0.7,0.4-1.1s-0.2-0.8-0.4-1.1
								c-0.3-0.3-0.7-0.4-1.1-0.4c-0.4,0-0.8,0.2-1.1,0.4c-0.3,0.3-0.4,0.7-0.4,1.1s0.2,0.8,0.4,1.1
								C138.1,365.5,138.4,365.7,138.8,365.7z"/>
						</g>
						<g>
							<path id="mcdc0c83af7_30_" class="st2" d="M269.3,224.8c0.4,0,0.8-0.2,1.1-0.4c0.3-0.3,0.4-0.7,0.4-1.1
								c0-0.4-0.2-0.8-0.4-1.1c-0.3-0.3-0.7-0.4-1.1-0.4s-0.8,0.2-1.1,0.4c-0.3,0.3-0.4,0.7-0.4,1.1c0,0.4,0.2,0.8,0.4,1.1
								C268.5,224.7,268.9,224.8,269.3,224.8z"/>
						</g>
						<g>
							<path id="mcdc0c83af7_31_" class="st2" d="M125.6,249.5c0.4,0,0.8-0.2,1.1-0.4c0.3-0.3,0.4-0.7,0.4-1.1
								c0-0.4-0.2-0.8-0.4-1.1c-0.3-0.3-0.7-0.4-1.1-0.4s-0.8,0.2-1.1,0.4c-0.3,0.3-0.4,0.7-0.4,1.1c0,0.4,0.2,0.8,0.4,1.1
								C124.8,249.3,125.2,249.5,125.6,249.5z"/>
						</g>
						<g>
							<path id="mcdc0c83af7_32_" class="st2" d="M285.3,221.3c0.4,0,0.8-0.2,1.1-0.4c0.3-0.3,0.4-0.7,0.4-1.1
								c0-0.4-0.2-0.8-0.4-1.1c-0.3-0.3-0.7-0.4-1.1-0.4s-0.8,0.2-1.1,0.4c-0.3,0.3-0.4,0.7-0.4,1.1c0,0.4,0.2,0.8,0.4,1.1
								C284.5,221.1,284.9,221.3,285.3,221.3z"/>
						</g>
						<g>
							<path id="mcdc0c83af7_33_" class="st2" d="M177.1,326.5c0.4,0,0.8-0.2,1.1-0.4c0.3-0.3,0.4-0.7,0.4-1.1s-0.2-0.8-0.4-1.1
								c-0.3-0.3-0.7-0.4-1.1-0.4c-0.4,0-0.8,0.2-1.1,0.4c-0.3,0.3-0.4,0.7-0.4,1.1c0,0.4,0.2,0.8,0.4,1.1
								C176.2,326.4,176.7,326.5,177.1,326.5z"/>
						</g>
						<g>
							<path id="mcdc0c83af7_34_" class="st2" d="M131.4,335c0.4,0,0.8-0.2,1.1-0.4c0.3-0.3,0.4-0.7,0.4-1.1s-0.2-0.8-0.4-1.1
								c-0.3-0.3-0.7-0.4-1.1-0.4c-0.4,0-0.8,0.2-1.1,0.4c-0.3,0.3-0.4,0.7-0.4,1.1s0.2,0.8,0.4,1.1
								C130.7,334.8,131.1,335,131.4,335z"/>
						</g>
						<g>
							<path id="mcdc0c83af7_35_" class="st2" d="M257.2,284.6c0.4,0,0.8-0.2,1.1-0.4c0.3-0.3,0.4-0.7,0.4-1.1
								c0-0.4-0.2-0.8-0.4-1.1c-0.3-0.3-0.7-0.4-1.1-0.4s-0.8,0.2-1.1,0.4c-0.3,0.3-0.4,0.7-0.4,1.1s0.2,0.8,0.4,1.1
								C256.4,284.5,256.8,284.6,257.2,284.6z"/>
						</g>
						<g>
							<path id="mcdc0c83af7_36_" class="st2" d="M329.2,309.9c0.4,0,0.8-0.2,1.1-0.4c0.3-0.3,0.4-0.7,0.4-1.1s-0.2-0.8-0.4-1.1
								c-0.3-0.3-0.7-0.4-1.1-0.4s-0.8,0.2-1.1,0.4c-0.3,0.3-0.4,0.7-0.4,1.1c0,0.4,0.2,0.8,0.4,1.1
								C328.5,309.8,328.8,309.9,329.2,309.9z"/>
						</g>
						<g>
							<path id="mcdc0c83af7_37_" class="st2" d="M121.6,239.9c0.4,0,0.8-0.2,1.1-0.4c0.3-0.3,0.4-0.7,0.4-1.1
								c0-0.4-0.2-0.8-0.4-1.1c-0.3-0.3-0.7-0.4-1.1-0.4s-0.8,0.2-1.1,0.4c-0.3,0.3-0.4,0.7-0.4,1.1c0,0.4,0.2,0.8,0.4,1.1
								C120.8,239.8,121.2,239.9,121.6,239.9z"/>
						</g>
						<g>
							<path id="mcdc0c83af7_38_" class="st2" d="M319.9,276c0.4,0,0.8-0.2,1.1-0.4c0.3-0.3,0.4-0.7,0.4-1.1s-0.2-0.8-0.4-1.1
								c-0.3-0.3-0.7-0.4-1.1-0.4s-0.8,0.2-1.1,0.4c-0.3,0.3-0.4,0.7-0.4,1.1c0,0.4,0.2,0.8,0.4,1.1
								C319.1,275.8,319.5,276,319.9,276z"/>
						</g>
						<g>
							<path id="mcdc0c83af7_39_" class="st2" d="M377.1,178.4c0.4,0,0.8-0.2,1.1-0.4c0.3-0.3,0.4-0.7,0.4-1.1
								c0-0.4-0.2-0.8-0.4-1.1c-0.3-0.3-0.7-0.4-1.1-0.4s-0.8,0.2-1.1,0.4c-0.3,0.3-0.4,0.7-0.4,1.1c0,0.4,0.2,0.8,0.4,1.1
								C376.4,178.3,376.8,178.4,377.1,178.4z"/>
						</g>
					</g>
				</g>
			</g>
		</g>
		<g id="matplotlib.axis_1">
			<g id="xtick_1">
				<g id="line2d_1">
					<g>
						<g>
							<path id="mc68cf971fc" class="st3" d="M72.2,381.2v3.5"/>
						</g>
					</g>
				</g>
				<g id="text_1">
					<g transform="translate(56.22756 269.984429)scale(0.1 -0.1)">
						<g>
							<path id="DejaVuSans-48" d="M159.3-1191.4c-5.1,0-8.9-2.5-11.5-7.5s-3.8-12.5-3.8-22.5c0-10,1.3-17.5,3.8-22.5
								c2.6-5,6.4-7.5,11.5-7.5s8.9,2.5,11.5,7.5s3.8,12.5,3.8,22.5s-1.3,17.5-3.8,22.5C168.2-1193.9,164.4-1191.4,159.3-1191.4z
								 M159.3-1183.6c8.2,0,14.4-3.2,18.7-9.7s6.5-15.8,6.5-28.1c0-12.3-2.2-21.6-6.5-28.1s-10.6-9.7-18.7-9.7
								c-8.2,0-14.4,3.2-18.7,9.7s-6.5,15.8-6.5,28.1c0,12.3,2.2,21.7,6.5,28.1C144.9-1186.8,151.1-1183.6,159.3-1183.6z"/>
						</g>
					</g>
				</g>
			</g>
			<g id="xtick_2">
				<g id="line2d_2">
					<g>
						<g>
							<path id="mc68cf971fc_1_" class="st3" d="M152.2,381.2v3.5"/>
						</g>
					</g>
				</g>
				<g id="text_2">
					<g transform="translate(136.215655 269.984429)scale(0.1 -0.1)">
						<g>
							<path id="DejaVuSans-53" d="M138.3-1184.9H177v-8.3h-29.7v-17.9c1.4,0.5,2.9,0.9,4.3,1.1c1.4,0.2,2.9,0.4,4.3,0.4
								c8.1,0,14.6-2.2,19.3-6.7c4.8-4.5,7.1-10.5,7.1-18.1c0-7.8-2.4-13.9-7.3-18.3c-4.9-4.3-11.8-6.5-20.7-6.5
								c-3.1,0-6.2,0.3-9.4,0.8s-6.4,1.3-9.8,2.3v9.9c2.9-1.6,6-2.8,9.1-3.6c3.1-0.8,6.4-1.2,9.9-1.2c5.6,0,10.1,1.5,13.4,4.4
								c3.3,3,4.9,7,4.9,12.1s-1.6,9.1-4.9,12c-3.3,3-7.7,4.5-13.4,4.5c-2.6,0-5.3-0.3-7.9-0.9c-2.6-0.6-5.3-1.5-8-2.7L138.3-1184.9
								L138.3-1184.9z"/>
						</g>
					</g>
				</g>
			</g>
			<g id="xtick_3">
				<g id="line2d_3">
					<g>
						<g>
							<path id="mc68cf971fc_2_" class="st3" d="M232.2,381.2v3.5"/>
						</g>
					</g>
				</g>
				<g id="text_3">
					<g transform="translate(213.0225 269.984429)scale(0.1 -0.1)">
						<g>
							<path id="DejaVuSans-49" d="M139.9-1249.5H156v55.6l-17.5-3.5v9l17.4,3.5h9.9v-64.6h16.1v-8.3h-42V-1249.5z"/>
						</g>
						<g>
							<path id="DejaVuSans-48_1_" d="M222.9-1191.4c-5.1,0-8.9-2.5-11.5-7.5s-3.8-12.5-3.8-22.5c0-10,1.3-17.5,3.8-22.5
								c2.6-5,6.4-7.5,11.5-7.5s8.9,2.5,11.5,7.5s3.8,12.5,3.8,22.5s-1.3,17.5-3.8,22.5C231.8-1193.9,228-1191.4,222.9-1191.4z
								 M222.9-1183.6c8.2,0,14.4-3.2,18.7-9.7s6.5-15.8,6.5-28.1c0-12.3-2.2-21.6-6.5-28.1s-10.6-9.7-18.7-9.7
								c-8.2,0-14.4,3.2-18.7,9.7s-6.5,15.8-6.5,28.1c0,12.3,2.2,21.7,6.5,28.1C208.5-1186.8,214.7-1183.6,222.9-1183.6z"/>
						</g>
					</g>
				</g>
			</g>
			<g id="xtick_4">
				<g id="line2d_4">
					<g>
						<g>
							<path id="mc68cf971fc_3_" class="st3" d="M312.1,381.2v3.5"/>
						</g>
					</g>
				</g>
				<g id="text_4">
					<g transform="translate(293.010595 269.984429)scale(0.1 -0.1)">
						<g>
							<path id="DejaVuSans-49_1_" d="M139.9-1249.5H156v55.6l-17.5-3.5v9l17.4,3.5h9.9v-64.6h16.1v-8.3h-42V-1249.5z"/>
						</g>
						<g>
							<path id="DejaVuSans-53_1_" d="M201.9-1184.9h38.7v-8.3h-29.7v-17.9c1.4,0.5,2.9,0.9,4.3,1.1c1.4,0.2,2.9,0.4,4.3,0.4
								c8.1,0,14.6-2.2,19.3-6.7c4.8-4.5,7.1-10.5,7.1-18.1c0-7.8-2.4-13.9-7.3-18.3c-4.9-4.3-11.8-6.5-20.7-6.5
								c-3.1,0-6.2,0.3-9.4,0.8s-6.4,1.3-9.8,2.3v9.9c2.9-1.6,6-2.8,9.1-3.6c3.1-0.8,6.4-1.2,9.9-1.2c5.6,0,10.1,1.5,13.4,4.4
								c3.3,3,4.9,7,4.9,12.1s-1.6,9.1-4.9,12c-3.3,3-7.7,4.5-13.4,4.5c-2.6,0-5.3-0.3-7.9-0.9c-2.6-0.6-5.3-1.5-8-2.7L201.9-1184.9
								L201.9-1184.9z"/>
						</g>
					</g>
				</g>
			</g>
			<g id="xtick_5">
				<g id="line2d_5">
					<g>
						<g>
							<path id="mc68cf971fc_4_" class="st3" d="M392.1,381.2v3.5"/>
						</g>
					</g>
				</g>
				<g id="text_5">
					<g transform="translate(372.99869 269.984429)scale(0.1 -0.1)">
						<g>
							<path id="DejaVuSans-50" d="M146.7-1249.5h34.4v-8.3h-46.3v8.3c3.7,3.9,8.8,9.1,15.3,15.6s10.5,10.7,12.2,12.6
								c3.2,3.5,5.4,6.5,6.6,9c1.3,2.5,1.9,4.9,1.9,7.2c0,3.9-1.4,7-4.1,9.5c-2.7,2.4-6.3,3.7-10.6,3.7c-3.1,0-6.4-0.5-9.8-1.6
								c-3.4-1.1-7.1-2.7-11-4.9v10c4,1.6,7.7,2.8,11.1,3.6c3.5,0.8,6.6,1.2,9.5,1.2c7.6,0,13.6-1.9,18.1-5.7s6.7-8.8,6.7-15.1
								c0-3-0.6-5.8-1.7-8.5c-1.1-2.7-3.2-5.8-6.1-9.5c-0.8-0.9-3.4-3.7-7.8-8.2C160.8-1235.1,154.6-1241.4,146.7-1249.5z"/>
						</g>
						<g>
							<path id="DejaVuSans-48_2_" d="M222.9-1191.4c-5.1,0-8.9-2.5-11.5-7.5s-3.8-12.5-3.8-22.5c0-10,1.3-17.5,3.8-22.5
								c2.6-5,6.4-7.5,11.5-7.5s8.9,2.5,11.5,7.5s3.8,12.5,3.8,22.5s-1.3,17.5-3.8,22.5C231.8-1193.9,228-1191.4,222.9-1191.4z
								 M222.9-1183.6c8.2,0,14.4-3.2,18.7-9.7s6.5-15.8,6.5-28.1c0-12.3-2.2-21.6-6.5-28.1s-10.6-9.7-18.7-9.7
								c-8.2,0-14.4,3.2-18.7,9.7s-6.5,15.8-6.5,28.1c0,12.3,2.2,21.7,6.5,28.1C208.5-1186.8,214.7-1183.6,222.9-1183.6z"/>
						</g>
					</g>
				</g>
			</g>
			<g id="xtick_6">
				<g id="line2d_6">
					<g>
						<g>
							<path id="m6a2146ecc6" class="st4" d="M88.2,381.2v2"/>
						</g>
					</g>
				</g>
			</g>
			<g id="xtick_7">
				<g id="line2d_7">
					<g>
						<g>
							<path id="m6a2146ecc6_1_" class="st4" d="M104.2,381.2v2"/>
						</g>
					</g>
				</g>
			</g>
			<g id="xtick_8">
				<g id="line2d_8">
					<g>
						<g>
							<path id="m6a2146ecc6_2_" class="st4" d="M120.2,381.2v2"/>
						</g>
					</g>
				</g>
			</g>
			<g id="xtick_9">
				<g id="line2d_9">
					<g>
						<g>
							<path id="m6a2146ecc6_3_" class="st4" d="M136.2,381.2v2"/>
						</g>
					</g>
				</g>
			</g>
			<g id="xtick_10">
				<g id="line2d_10">
					<g>
						<g>
							<path id="m6a2146ecc6_4_" class="st4" d="M168.2,381.2v2"/>
						</g>
					</g>
				</g>
			</g>
			<g id="xtick_11">
				<g id="line2d_11">
					<g>
						<g>
							<path id="m6a2146ecc6_5_" class="st4" d="M184.2,381.2v2"/>
						</g>
					</g>
				</g>
			</g>
			<g id="xtick_12">
				<g id="line2d_12">
					<g>
						<g>
							<path id="m6a2146ecc6_6_" class="st4" d="M200.2,381.2v2"/>
						</g>
					</g>
				</g>
			</g>
			<g id="xtick_13">
				<g id="line2d_13">
					<g>
						<g>
							<path id="m6a2146ecc6_7_" class="st4" d="M216.2,381.2v2"/>
						</g>
					</g>
				</g>
			</g>
			<g id="xtick_14">
				<g id="line2d_14">
					<g>
						<g>
							<path id="m6a2146ecc6_8_" class="st4" d="M248.2,381.2v2"/>
						</g>
					</g>
				</g>
			</g>
			<g id="xtick_15">
				<g id="line2d_15">
					<g>
						<g>
							<path id="m6a2146ecc6_9_" class="st4" d="M264.1,381.2v2"/>
						</g>
					</g>
				</g>
			</g>
			<g id="xtick_16">
				<g id="line2d_16">
					<g>
						<g>
							<path id="m6a2146ecc6_10_" class="st4" d="M280.1,381.2v2"/>
						</g>
					</g>
				</g>
			</g>
			<g id="xtick_17">
				<g id="line2d_17">
					<g>
						<g>
							<path id="m6a2146ecc6_11_" class="st4" d="M296.1,381.2v2"/>
						</g>
					</g>
				</g>
			</g>
			<g id="xtick_18">
				<g id="line2d_18">
					<g>
						<g>
							<path id="m6a2146ecc6_12_" class="st4" d="M328.1,381.2v2"/>
						</g>
					</g>
				</g>
			</g>
			<g id="xtick_19">
				<g id="line2d_19">
					<g>
						<g>
							<path id="m6a2146ecc6_13_" class="st4" d="M344.1,381.2v2"/>
						</g>
					</g>
				</g>
			</g>
			<g id="xtick_20">
				<g id="line2d_20">
					<g>
						<g>
							<path id="m6a2146ecc6_14_" class="st4" d="M360.1,381.2v2"/>
						</g>
					</g>
				</g>
			</g>
			<g id="xtick_21">
				<g id="line2d_21">
					<g>
						<g>
							<path id="m6a2146ecc6_15_" class="st4" d="M376.1,381.2v2"/>
						</g>
					</g>
				</g>
			</g>
			<g id="text_6">
				<g transform="translate(190.9225 283.662554)scale(0.1 -0.1)">
					<g>
						<path id="DejaVuSans-120" d="M182.4-1203.1l-19.8-26.6l20.8-28.1h-10.6l-15.9,21.5l-15.9-21.5h-10.6l21.2,28.6l-19.4,26.1
							h10.6l14.5-19.5l14.5,19.5C171.8-1203.1,182.4-1203.1,182.4-1203.1z"/>
					</g>
					<g>
						<path id="DejaVuSans-45" d="M191.6-1226.4h26.3v-8h-26.3V-1226.4z"/>
					</g>
					<g>
						<path id="DejaVuSans-97" d="M257-1230.3c-7.3,0-12.3-0.8-15.1-2.5c-2.8-1.7-4.2-4.5-4.2-8.5c0-3.2,1.1-5.7,3.2-7.6
							c2.1-1.9,5-2.8,8.6-2.8c5,0,9,1.8,12,5.3s4.5,8.2,4.5,14.1v2H257z M274.9-1226.6v-31.2h-9v8.3c-2.1-3.3-4.6-5.8-7.7-7.3
							c-3.1-1.6-6.8-2.4-11.2-2.4c-5.6,0-10,1.6-13.4,4.7c-3.3,3.1-5,7.4-5,12.6c0,6.1,2.1,10.8,6.2,13.9c4.1,3.1,10.3,4.7,18.4,4.7
							h12.6v0.9c0,4.1-1.4,7.3-4.1,9.6s-6.5,3.4-11.5,3.4c-3.1,0-6.2-0.4-9.1-1.1c-3-0.8-5.8-1.9-8.5-3.4v8.3
							c3.3,1.3,6.5,2.2,9.6,2.8s6.1,1,9,1c7.9,0,13.8-2.1,17.7-6.2C273-1212.1,274.9-1218.3,274.9-1226.6z"/>
					</g>
					<g>
						<path id="DejaVuSans-120_1_" d="M338.9-1203.1l-19.8-26.6l20.8-28.1h-10.6l-15.9,21.5l-15.9-21.5h-10.6l21.2,28.6l-19.4,26.1
							h10.6l14.5-19.5l14.5,19.5C328.3-1203.1,338.9-1203.1,338.9-1203.1z"/>
					</g>
					<g>
						<path id="DejaVuSans-105" d="M352.6-1203.1h9v-54.7h-9V-1203.1z M352.6-1181.8h9v-11.4h-9V-1181.8z"/>
					</g>
					<g>
						<path id="DejaVuSans-115" d="M415.3-1204.7v-8.5c-2.5,1.3-5.2,2.3-7.9,2.9c-2.7,0.7-5.6,1-8.5,1c-4.5,0-7.8-0.7-10-2
							c-2.2-1.4-3.3-3.4-3.3-6.2c0-2.1,0.8-3.7,2.4-4.9c1.6-1.2,4.8-2.3,9.6-3.4l3.1-0.7c6.4-1.4,10.9-3.3,13.6-5.8s4-6,4-10.4
							c0-5.1-2-9.1-6-12.1s-9.5-4.4-16.6-4.4c-2.9,0-6,0.3-9.2,0.9s-6.5,1.4-10,2.6v9.3c3.3-1.7,6.6-3,9.8-3.9
							c3.2-0.9,6.4-1.3,9.6-1.3c4.2,0,7.5,0.7,9.8,2.2c2.3,1.4,3.4,3.5,3.4,6.1c0,2.4-0.8,4.3-2.5,5.6c-1.6,1.3-5.2,2.6-10.8,3.8
							l-3.1,0.7c-5.6,1.2-9.6,3-12.1,5.4s-3.7,5.8-3.7,10c0,5.1,1.8,9.1,5.5,11.9c3.6,2.8,8.8,4.2,15.5,4.2c3.3,0,6.4-0.2,9.4-0.7
							C410.1-1203,412.8-1203.8,415.3-1204.7z"/>
					</g>
					<g>
						<path id="DejaVuSans-32" d="M423.1-1257.8"/>
					</g>
					<g>
						<path id="DejaVuSans-108" d="M464.3-1181.8h9v-76h-9V-1181.8z"/>
					</g>
					<g>
						<path id="DejaVuSans-97_1_" d="M516.9-1230.3c-7.3,0-12.3-0.8-15.1-2.5c-2.8-1.7-4.2-4.5-4.2-8.5c0-3.2,1.1-5.7,3.2-7.6
							c2.1-1.9,5-2.8,8.6-2.8c5,0,9,1.8,12,5.3s4.5,8.2,4.5,14.1v2H516.9z M534.9-1226.6v-31.2h-9v8.3c-2.1-3.3-4.6-5.8-7.7-7.3
							c-3.1-1.6-6.8-2.4-11.2-2.4c-5.6,0-10,1.6-13.4,4.7c-3.3,3.1-5,7.4-5,12.6c0,6.1,2.1,10.8,6.2,13.9s10.3,4.7,18.4,4.7h12.6
							v0.9c0,4.1-1.4,7.3-4.1,9.6c-2.7,2.3-6.5,3.4-11.5,3.4c-3.1,0-6.2-0.4-9.1-1.1c-3-0.8-5.8-1.9-8.5-3.4v8.3
							c3.3,1.3,6.5,2.2,9.6,2.8s6.1,1,9,1c7.9,0,13.8-2.1,17.7-6.2C532.9-1212.1,534.9-1218.3,534.9-1226.6z"/>
					</g>
					<g>
						<path id="DejaVuSans-98" d="M592.6-1230.5c0,6.6-1.4,11.8-4.1,15.5c-2.7,3.8-6.5,5.6-11.2,5.6c-4.8,0-8.5-1.9-11.2-5.6
							c-2.7-3.8-4.1-8.9-4.1-15.5s1.4-11.8,4.1-15.5c2.7-3.8,6.5-5.6,11.2-5.6c4.8,0,8.5,1.9,11.2,5.6
							C591.3-1242.3,592.6-1237.1,592.6-1230.5z M562-1211.4c1.9,3.2,4.3,5.7,7.2,7.2c2.9,1.6,6.3,2.4,10.3,2.4
							c6.6,0,12-2.6,16.2-7.9c4.2-5.3,6.2-12.2,6.2-20.8c0-8.6-2.1-15.5-6.2-20.8c-4.1-5.3-9.5-7.9-16.2-7.9c-4,0-7.4,0.8-10.3,2.4
							c-2.9,1.6-5.3,4-7.2,7.2v-8.2h-9v76h9V-1211.4z"/>
					</g>
					<g>
						<path id="DejaVuSans-101" d="M663.6-1228.2v-4.4h-41.3c0.4-6.2,2.3-10.9,5.6-14.1c3.3-3.2,8-4.9,13.9-4.9
							c3.4,0,6.8,0.4,10,1.3c3.2,0.8,6.5,2.1,9.7,3.8v-8.5c-3.2-1.4-6.5-2.4-9.9-3.1c-3.4-0.7-6.8-1.1-10.3-1.1
							c-8.7,0-15.6,2.5-20.7,7.6c-5.1,5.1-7.6,12-7.6,20.6c0,8.9,2.4,16,7.2,21.3c4.8,5.3,11.4,7.9,19.6,7.9
							c7.4,0,13.2-2.4,17.5-7.1C661.5-1213.7,663.6-1220.1,663.6-1228.2z M654.6-1225.6c-0.1,4.9-1.4,8.8-4.1,11.8
							c-2.7,2.9-6.2,4.4-10.7,4.4c-5,0-9-1.4-12-4.2c-3-2.8-4.7-6.8-5.2-12H654.6z"/>
					</g>
					<g>
						<path id="DejaVuSans-108_1_" d="M678.4-1181.8h9v-76h-9V-1181.8z"/>
					</g>
				</g>
			</g>
		</g>
		<g id="matplotlib.axis_2">
			<g id="ytick_1">
				<g id="line2d_22">
					<g>
						<g>
							<path id="m21b4d659f0" class="st3" d="M64.2,370.8h-3.5"/>
						</g>
					</g>
				</g>
				<g id="text_7">
					<g transform="translate(24.899063 248.765847)scale(0.1 -0.1)">
						<g>
							<path id="DejaVuSans-45_1_" d="M132.4-1226.4h26.3v-8h-26.3V-1226.4z"/>
						</g>
						<g>
							<path id="DejaVuSans-49_2_" d="M176-1249.5h16.1v55.6l-17.5-3.5v9l17.4,3.5h9.9v-64.6H218v-8.3h-42V-1249.5z"/>
						</g>
						<g>
							<path id="DejaVuSans-46" d="M237.9-1245.4h10.3v-12.4h-10.3V-1245.4z"/>
						</g>
						<g>
							<path id="DejaVuSans-48_3_" d="M290.8-1191.4c-5.1,0-8.9-2.5-11.5-7.5s-3.8-12.5-3.8-22.5c0-10,1.3-17.5,3.8-22.5
								c2.6-5,6.4-7.5,11.5-7.5s8.9,2.5,11.5,7.5s3.8,12.5,3.8,22.5s-1.3,17.5-3.8,22.5C299.7-1193.9,295.9-1191.4,290.8-1191.4z
								 M290.8-1183.6c8.2,0,14.4-3.2,18.7-9.7c4.3-6.5,6.5-15.8,6.5-28.1c0-12.3-2.2-21.6-6.5-28.1s-10.6-9.7-18.7-9.7
								c-8.2,0-14.4,3.2-18.7,9.7c-4.3,6.5-6.5,15.8-6.5,28.1c0,12.3,2.2,21.7,6.5,28.1C276.3-1186.8,282.6-1183.6,290.8-1183.6z"/>
						</g>
					</g>
				</g>
			</g>
			<g id="ytick_2">
				<g id="line2d_23">
					<g>
						<g>
							<path id="m21b4d659f0_1_" class="st3" d="M64.2,318.6h-3.5"/>
						</g>
					</g>
				</g>
				<g id="text_8">
					<g transform="translate(24.899063 196.669031)scale(0.1 -0.1)">
						<g>
							<path id="DejaVuSans-45_2_" d="M132.4-1226.4h26.3v-8h-26.3V-1226.4z"/>
						</g>
						<g>
							<path id="DejaVuSans-48_4_" d="M195.3-1191.4c-5.1,0-8.9-2.5-11.5-7.5s-3.8-12.5-3.8-22.5c0-10,1.3-17.5,3.8-22.5
								c2.6-5,6.4-7.5,11.5-7.5s8.9,2.5,11.5,7.5s3.8,12.5,3.8,22.5s-1.3,17.5-3.8,22.5C204.3-1193.9,200.5-1191.4,195.3-1191.4z
								 M195.3-1183.6c8.2,0,14.4-3.2,18.7-9.7s6.5-15.8,6.5-28.1c0-12.3-2.2-21.6-6.5-28.1s-10.6-9.7-18.7-9.7
								c-8.2,0-14.4,3.2-18.7,9.7s-6.5,15.8-6.5,28.1c0,12.3,2.2,21.7,6.5,28.1C180.9-1186.8,187.2-1183.6,195.3-1183.6z"/>
						</g>
						<g>
							<path id="DejaVuSans-46_1_" d="M237.9-1245.4h10.3v-12.4h-10.3V-1245.4z"/>
						</g>
						<g>
							<path id="DejaVuSans-53_2_" d="M269.8-1184.9h38.7v-8.3h-29.7v-17.9c1.4,0.5,2.9,0.9,4.3,1.1c1.4,0.2,2.9,0.4,4.3,0.4
								c8.1,0,14.6-2.2,19.3-6.7c4.8-4.5,7.1-10.5,7.1-18.1c0-7.8-2.4-13.9-7.3-18.3c-4.9-4.3-11.8-6.5-20.7-6.5
								c-3.1,0-6.2,0.3-9.4,0.8c-3.2,0.5-6.4,1.3-9.8,2.3v9.9c2.9-1.6,6-2.8,9.1-3.6c3.1-0.8,6.4-1.2,9.9-1.2
								c5.6,0,10.1,1.5,13.4,4.4c3.3,3,4.9,7,4.9,12.1s-1.6,9.1-4.9,12c-3.3,3-7.7,4.5-13.4,4.5c-2.6,0-5.3-0.3-7.9-0.9
								s-5.3-1.5-8-2.7v36.7H269.8z"/>
						</g>
					</g>
				</g>
			</g>
			<g id="ytick_3">
				<g id="line2d_24">
					<g>
						<g>
							<path id="m21b4d659f0_2_" class="st3" d="M64.2,266.6h-3.5"/>
						</g>
					</g>
				</g>
				<g id="text_9">
					<g transform="translate(28.506875 144.572215)scale(0.1 -0.1)">
						<g>
							<path id="DejaVuSans-48_5_" d="M159.3-1191.4c-5.1,0-8.9-2.5-11.5-7.5s-3.8-12.5-3.8-22.5c0-10,1.3-17.5,3.8-22.5
								c2.6-5,6.4-7.5,11.5-7.5s8.9,2.5,11.5,7.5s3.8,12.5,3.8,22.5s-1.3,17.5-3.8,22.5C168.2-1193.9,164.4-1191.4,159.3-1191.4z
								 M159.3-1183.6c8.2,0,14.4-3.2,18.7-9.7s6.5-15.8,6.5-28.1c0-12.3-2.2-21.6-6.5-28.1s-10.6-9.7-18.7-9.7
								c-8.2,0-14.4,3.2-18.7,9.7s-6.5,15.8-6.5,28.1c0,12.3,2.2,21.7,6.5,28.1C144.9-1186.8,151.1-1183.6,159.3-1183.6z"/>
						</g>
						<g>
							<path id="DejaVuSans-46_2_" d="M201.8-1245.4h10.3v-12.4h-10.3V-1245.4z"/>
						</g>
						<g>
							<path id="DejaVuSans-48_6_" d="M254.7-1191.4c-5.1,0-8.9-2.5-11.5-7.5s-3.8-12.5-3.8-22.5c0-10,1.3-17.5,3.8-22.5
								c2.6-5,6.4-7.5,11.5-7.5c5.1,0,8.9,2.5,11.5,7.5s3.8,12.5,3.8,22.5s-1.3,17.5-3.8,22.5
								C263.6-1193.9,259.8-1191.4,254.7-1191.4z M254.7-1183.6c8.2,0,14.4-3.2,18.7-9.7s6.5-15.8,6.5-28.1
								c0-12.3-2.2-21.6-6.5-28.1s-10.6-9.7-18.7-9.7c-8.2,0-14.4,3.2-18.7,9.7s-6.5,15.8-6.5,28.1c0,12.3,2.2,21.7,6.5,28.1
								C240.3-1186.8,246.5-1183.6,254.7-1183.6z"/>
						</g>
					</g>
				</g>
			</g>
			<g id="ytick_4">
				<g id="line2d_25">
					<g>
						<g>
							<path id="m21b4d659f0_3_" class="st3" d="M64.2,214.5h-3.5"/>
						</g>
					</g>
				</g>
				<g id="text_10">
					<g transform="translate(28.506875 92.475398)scale(0.1 -0.1)">
						<g>
							<path id="DejaVuSans-48_7_" d="M159.3-1191.4c-5.1,0-8.9-2.5-11.5-7.5s-3.8-12.5-3.8-22.5c0-10,1.3-17.5,3.8-22.5
								c2.6-5,6.4-7.5,11.5-7.5s8.9,2.5,11.5,7.5s3.8,12.5,3.8,22.5s-1.3,17.5-3.8,22.5C168.2-1193.9,164.4-1191.4,159.3-1191.4z
								 M159.3-1183.6c8.2,0,14.4-3.2,18.7-9.7s6.5-15.8,6.5-28.1c0-12.3-2.2-21.6-6.5-28.1s-10.6-9.7-18.7-9.7
								c-8.2,0-14.4,3.2-18.7,9.7s-6.5,15.8-6.5,28.1c0,12.3,2.2,21.7,6.5,28.1C144.9-1186.8,151.1-1183.6,159.3-1183.6z"/>
						</g>
						<g>
							<path id="DejaVuSans-46_3_" d="M201.8-1245.4h10.3v-12.4h-10.3V-1245.4z"/>
						</g>
						<g>
							<path id="DejaVuSans-53_3_" d="M233.7-1184.9h38.7v-8.3h-29.7v-17.9c1.4,0.5,2.9,0.9,4.3,1.1c1.4,0.2,2.9,0.4,4.3,0.4
								c8.1,0,14.6-2.2,19.3-6.7c4.8-4.5,7.1-10.5,7.1-18.1c0-7.8-2.4-13.9-7.3-18.3c-4.9-4.3-11.8-6.5-20.7-6.5
								c-3.1,0-6.2,0.3-9.4,0.8s-6.4,1.3-9.8,2.3v9.9c2.9-1.6,6-2.8,9.1-3.6c3.1-0.8,6.4-1.2,9.9-1.2c5.6,0,10.1,1.5,13.4,4.4
								c3.3,3,4.9,7,4.9,12.1s-1.6,9.1-4.9,12c-3.3,3-7.7,4.5-13.4,4.5c-2.6,0-5.3-0.3-7.9-0.9c-2.6-0.6-5.3-1.5-8-2.7L233.7-1184.9
								L233.7-1184.9z"/>
						</g>
					</g>
				</g>
			</g>
			<g id="ytick_5">
				<g id="line2d_26">
					<g>
						<g>
							<path id="m21b4d659f0_4_" class="st3" d="M64.2,162.4h-3.5"/>
						</g>
					</g>
				</g>
				<g id="text_11">
					<g transform="translate(28.506875 40.378582)scale(0.1 -0.1)">
						<g>
							<path id="DejaVuSans-49_3_" d="M139.9-1249.5H156v55.6l-17.5-3.5v9l17.4,3.5h9.9v-64.6h16.1v-8.3h-42V-1249.5z"/>
						</g>
						<g>
							<path id="DejaVuSans-46_4_" d="M201.8-1245.4h10.3v-12.4h-10.3V-1245.4z"/>
						</g>
						<g>
							<path id="DejaVuSans-48_8_" d="M254.7-1191.4c-5.1,0-8.9-2.5-11.5-7.5s-3.8-12.5-3.8-22.5c0-10,1.3-17.5,3.8-22.5
								c2.6-5,6.4-7.5,11.5-7.5c5.1,0,8.9,2.5,11.5,7.5s3.8,12.5,3.8,22.5s-1.3,17.5-3.8,22.5
								C263.6-1193.9,259.8-1191.4,254.7-1191.4z M254.7-1183.6c8.2,0,14.4-3.2,18.7-9.7s6.5-15.8,6.5-28.1
								c0-12.3-2.2-21.6-6.5-28.1s-10.6-9.7-18.7-9.7c-8.2,0-14.4,3.2-18.7,9.7s-6.5,15.8-6.5,28.1c0,12.3,2.2,21.7,6.5,28.1
								C240.3-1186.8,246.5-1183.6,254.7-1183.6z"/>
						</g>
					</g>
				</g>
			</g>
			<g id="ytick_6">
				<g id="line2d_27">
					<g>
						<g>
							<path id="me0ea8e6636" class="st4" d="M64.2,381.2h-2"/>
						</g>
					</g>
				</g>
			</g>
			<g id="ytick_7">
				<g id="line2d_28">
					<g>
						<g>
							<path id="me0ea8e6636_1_" class="st4" d="M64.2,360.4h-2"/>
						</g>
					</g>
				</g>
			</g>
			<g id="ytick_8">
				<g id="line2d_29">
					<g>
						<g>
							<path id="me0ea8e6636_2_" class="st4" d="M64.2,350h-2"/>
						</g>
					</g>
				</g>
			</g>
			<g id="ytick_9">
				<g id="line2d_30">
					<g>
						<g>
							<path id="me0ea8e6636_3_" class="st4" d="M64.2,339.5h-2"/>
						</g>
					</g>
				</g>
			</g>
			<g id="ytick_10">
				<g id="line2d_31">
					<g>
						<g>
							<path id="me0ea8e6636_4_" class="st4" d="M64.2,329.1h-2"/>
						</g>
					</g>
				</g>
			</g>
			<g id="ytick_11">
				<g id="line2d_32">
					<g>
						<g>
							<path id="me0ea8e6636_5_" class="st4" d="M64.2,308.2h-2"/>
						</g>
					</g>
				</g>
			</g>
			<g id="ytick_12">
				<g id="line2d_33">
					<g>
						<g>
							<path id="me0ea8e6636_6_" class="st4" d="M64.2,297.9h-2"/>
						</g>
					</g>
				</g>
			</g>
			<g id="ytick_13">
				<g id="line2d_34">
					<g>
						<g>
							<path id="me0ea8e6636_7_" class="st4" d="M64.2,287.4h-2"/>
						</g>
					</g>
				</g>
			</g>
			<g id="ytick_14">
				<g id="line2d_35">
					<g>
						<g>
							<path id="me0ea8e6636_8_" class="st4" d="M64.2,277h-2"/>
						</g>
					</g>
				</g>
			</g>
			<g id="ytick_15">
				<g id="line2d_36">
					<g>
						<g>
							<path id="me0ea8e6636_9_" class="st4" d="M64.2,256.1h-2"/>
						</g>
					</g>
				</g>
			</g>
			<g id="ytick_16">
				<g id="line2d_37">
					<g>
						<g>
							<path id="me0ea8e6636_10_" class="st4" d="M64.2,245.8h-2"/>
						</g>
					</g>
				</g>
			</g>
			<g id="ytick_17">
				<g id="line2d_38">
					<g>
						<g>
							<path id="me0ea8e6636_11_" class="st4" d="M64.2,235.3h-2"/>
						</g>
					</g>
				</g>
			</g>
			<g id="ytick_18">
				<g id="line2d_39">
					<g>
						<g>
							<path id="me0ea8e6636_12_" class="st4" d="M64.2,224.9h-2"/>
						</g>
					</g>
				</g>
			</g>
			<g id="ytick_19">
				<g id="line2d_40">
					<g>
						<g>
							<path id="me0ea8e6636_13_" class="st4" d="M64.2,204.1h-2"/>
						</g>
					</g>
				</g>
			</g>
			<g id="ytick_20">
				<g id="line2d_41">
					<g>
						<g>
							<path id="me0ea8e6636_14_" class="st4" d="M64.2,193.7h-2"/>
						</g>
					</g>
				</g>
			</g>
			<g id="ytick_21">
				<g id="line2d_42">
					<g>
						<g>
							<path id="me0ea8e6636_15_" class="st4" d="M64.2,183.3h-2"/>
						</g>
					</g>
				</g>
			</g>
			<g id="ytick_22">
				<g id="line2d_43">
					<g>
						<g>
							<path id="me0ea8e6636_16_" class="st4" d="M64.2,172.8h-2"/>
						</g>
					</g>
				</g>
			</g>
			<g id="ytick_23">
				<g id="line2d_44">
					<g>
						<g>
							<path id="me0ea8e6636_17_" class="st4" d="M64.2,152h-2"/>
						</g>
					</g>
				</g>
			</g>
			<g id="text_12">
				<g transform="translate(18.819375 169.234715)rotate(-90)scale(0.1 -0.1)">
					<g>
						<path id="DejaVuSans-121" d="M-1225.6-132.6c-2.5-6.5-5-10.8-7.4-12.7c-2.4-2-5.6-3-9.7-3h-7.2v7.5h5.3c2.5,0,4.4,0.6,5.8,1.8
							c1.4,1.2,2.9,3.9,4.5,8.3l1.6,4.1l-22.1,53.8h9.5l17.1-42.8l17.1,42.8h9.5L-1225.6-132.6z"/>
					</g>
					<g>
						<path id="DejaVuSans-45_3_" d="M-1193.8-96.1h26.3v-8h-26.3V-96.1z"/>
					</g>
					<g>
						<path id="DejaVuSans-97_2_" d="M-1128.3-100c-7.3,0-12.3-0.8-15.1-2.5c-2.8-1.7-4.2-4.5-4.2-8.5c0-3.2,1.1-5.7,3.2-7.6
							c2.1-1.9,5-2.8,8.6-2.8c5,0,9,1.8,12,5.3s4.5,8.2,4.5,14.1v2H-1128.3z M-1110.4-96.3v-31.2h-9v8.3c-2.1-3.3-4.6-5.8-7.7-7.3
							c-3.1-1.6-6.8-2.4-11.2-2.4c-5.6,0-10,1.6-13.4,4.7c-3.3,3.1-5,7.4-5,12.6c0,6.1,2.1,10.8,6.2,13.9c4.1,3.1,10.3,4.7,18.4,4.7
							h12.6v0.9c0,4.1-1.4,7.3-4.1,9.6c-2.7,2.3-6.5,3.4-11.5,3.4c-3.1,0-6.2-0.4-9.1-1.1c-3-0.8-5.8-1.9-8.5-3.4v8.3
							c3.3,1.3,6.5,2.2,9.6,2.8c3.1,0.6,6.1,1,9,1c7.9,0,13.8-2.1,17.7-6.2C-1112.3-81.7-1110.4-87.9-1110.4-96.3z"/>
					</g>
					<g>
						<path id="DejaVuSans-120_2_" d="M-1046.4-72.8l-19.8-26.6l20.8-28.1h-10.6l-15.9,21.5l-15.9-21.5h-10.6l21.2,28.6l-19.4,26.1
							h10.6l14.5-19.5l14.5,19.5H-1046.4z"/>
					</g>
					<g>
						<path id="DejaVuSans-105_1_" d="M-1032.7-72.8h9v-54.7h-9V-72.8z M-1032.7-51.5h9v-11.4h-9V-51.5z"/>
					</g>
					<g>
						<path id="DejaVuSans-115_1_" d="M-970.1-74.4v-8.5c-2.5,1.3-5.2,2.3-7.9,2.9c-2.7,0.7-5.6,1-8.5,1c-4.5,0-7.8-0.7-10-2
							c-2.2-1.4-3.3-3.4-3.3-6.2c0-2.1,0.8-3.7,2.4-4.9c1.6-1.2,4.8-2.3,9.6-3.4l3.1-0.7c6.4-1.4,10.9-3.3,13.6-5.8s4-6,4-10.4
							c0-5.1-2-9.1-6-12.1s-9.5-4.4-16.6-4.4c-2.9,0-6,0.3-9.2,0.9c-3.2,0.6-6.5,1.4-10,2.6v9.3c3.3-1.7,6.6-3,9.8-3.9
							c3.2-0.9,6.4-1.3,9.6-1.3c4.2,0,7.5,0.7,9.8,2.2c2.3,1.4,3.4,3.5,3.4,6.1c0,2.4-0.8,4.3-2.5,5.6c-1.6,1.3-5.2,2.6-10.8,3.8
							l-3.1,0.7c-5.6,1.2-9.6,3-12.1,5.4s-3.7,5.8-3.7,10c0,5.1,1.8,9.1,5.5,11.9c3.6,2.8,8.8,4.2,15.5,4.2c3.3,0,6.4-0.2,9.4-0.7
							C-975.2-72.7-972.5-73.4-970.1-74.4z"/>
					</g>
					<g>
						<path id="DejaVuSans-32_1_" d="M-962.2-127.5"/>
					</g>
					<g>
						<path id="DejaVuSans-108_2_" d="M-921-51.5h9v-76h-9V-51.5z"/>
					</g>
					<g>
						<path id="DejaVuSans-97_3_" d="M-868.4-100c-7.3,0-12.3-0.8-15.1-2.5s-4.2-4.5-4.2-8.5c0-3.2,1.1-5.7,3.2-7.6
							c2.1-1.9,5-2.8,8.6-2.8c5,0,9,1.8,12,5.3s4.5,8.2,4.5,14.1v2H-868.4z M-850.5-96.3v-31.2h-9v8.3c-2.1-3.3-4.6-5.8-7.7-7.3
							c-3.1-1.6-6.8-2.4-11.2-2.4c-5.6,0-10,1.6-13.4,4.7c-3.3,3.1-5,7.4-5,12.6c0,6.1,2.1,10.8,6.2,13.9s10.3,4.7,18.4,4.7h12.6
							v0.9c0,4.1-1.4,7.3-4.1,9.6c-2.7,2.3-6.5,3.4-11.5,3.4c-3.1,0-6.2-0.4-9.1-1.1c-3-0.8-5.8-1.9-8.5-3.4v8.3
							c3.3,1.3,6.5,2.2,9.6,2.8c3.1,0.6,6.1,1,9,1c7.9,0,13.8-2.1,17.7-6.2C-852.4-81.7-850.5-87.9-850.5-96.3z"/>
					</g>
					<g>
						<path id="DejaVuSans-98_1_" d="M-792.7-100.2c0,6.6-1.4,11.8-4.1,15.5c-2.7,3.8-6.5,5.6-11.2,5.6c-4.8,0-8.5-1.9-11.2-5.6
							c-2.7-3.8-4.1-8.9-4.1-15.5s1.4-11.8,4.1-15.5c2.7-3.8,6.5-5.6,11.2-5.6c4.8,0,8.5,1.9,11.2,5.6S-792.7-106.8-792.7-100.2z
							 M-823.3-81.1c1.9,3.2,4.3,5.7,7.2,7.2c2.9,1.6,6.3,2.4,10.3,2.4c6.6,0,12-2.6,16.2-7.9c4.2-5.3,6.2-12.2,6.2-20.8
							s-2.1-15.5-6.2-20.8c-4.1-5.3-9.5-7.9-16.2-7.9c-4,0-7.4,0.8-10.3,2.4c-2.9,1.6-5.3,4-7.2,7.2v-8.2h-9v76h9V-81.1z"/>
					</g>
					<g>
						<path id="DejaVuSans-101_1_" d="M-721.7-97.9v-4.4H-763c0.4-6.2,2.3-10.9,5.6-14.1c3.3-3.2,8-4.9,13.9-4.9
							c3.4,0,6.8,0.4,10,1.3s6.5,2.1,9.7,3.8v-8.5c-3.2-1.4-6.5-2.4-9.9-3.1c-3.4-0.7-6.8-1.1-10.3-1.1c-8.7,0-15.6,2.5-20.7,7.6
							c-5.1,5.1-7.6,12-7.6,20.6c0,8.9,2.4,16,7.2,21.3c4.8,5.3,11.4,7.9,19.6,7.9c7.4,0,13.2-2.4,17.5-7.1
							C-723.8-83.3-721.7-89.8-721.7-97.9z M-730.7-95.2c-0.1,4.9-1.4,8.8-4.1,11.8c-2.7,2.9-6.2,4.4-10.7,4.4c-5,0-9-1.4-12-4.2
							c-3-2.8-4.7-6.8-5.2-12L-730.7-95.2z"/>
					</g>
					<g>
						<path id="DejaVuSans-108_3_" d="M-707-51.5h9v-76h-9V-51.5z"/>
					</g>
				</g>
			</g>
		</g>
		<g id="line2d_45">
			<g>
				<g>
					<defs>
						<rect id="SVGID_3_" x="64.2" y="152" width="336" height="229.2"/>
					</defs>
					<clipPath id="SVGID_4_">
						<use xlink:href="#SVGID_3_"  style="overflow:visible;"/>
					</clipPath>
					<path class="st5" d="M56.1,354.2l1.2-4.4l2.4-10.1l2.4-11.7l2.4-13l3.5-21.4l5.9-38l3.5-22.4l2.4-14.1l2.4-13.1l2.4-11.8
						l2.4-10.2l1.2-4.5l1.2-4l1.2-3.5l1.2-3l1.2-2.5l1.2-1.9l1.2-1.4l1.2-0.8l1.2-0.2l1.2,0.3l1.2,0.9l1.2,1.4l1.2,2l1.2,2.5l1.2,3
						l1.2,3.6l1.2,4l1.2,4.5l2.4,10.3l2.4,11.9l2.4,13.2l3.5,21.5l11.8,74.4l2.4,12.9l2.4,11.6l2.4,10l1.2,4.3l1.2,3.8l1.2,3.3
						l1.2,2.8l1.2,2.3l1.2,1.8l1.2,1.2l1.2,0.6l1.2,0.1l1.2-0.5l1.2-1l1.2-1.6l1.2-2.1l1.2-2.7l1.2-3.2l1.2-3.7l1.2-4.2l2.4-9.7
						l2.4-11.4l2.4-12.8l2.4-13.9l3.5-22.2l8.2-52.7l2.4-13.8l2.4-12.7l2.4-11.3l2.4-9.7l1.2-4.2l1.2-3.7l1.2-3.2l1.2-2.7l1.2-2.1
						l1.2-1.6l1.2-1l1.2-0.5l1.2,0.1l1.2,0.7l1.2,1.2l1.2,1.8l1.2,2.3l1.2,2.8l1.2,3.4l1.2,3.9l1.2,4.3l2.4,10l2.4,11.6l2.4,12.9
						l3.5,21.3l5.9,38l3.5,22.5l3.5,20.9l2.4,12.5l2.4,11.1l2.4,9.4l1.2,4l1.2,3.5l1.2,3l1.2,2.5l1.2,2l1.2,1.4l1.2,0.9l1.2,0.3
						l1.2-0.3l1.2-0.8l1.2-1.4l1.2-1.9l1.2-2.5l1.2-3l1.2-3.5l1.2-4l1.2-4.5l2.4-10.3l2.4-11.8l2.4-13.1l3.5-21.5l11.8-74.4l2.4-13
						l2.4-11.6l2.4-10.1l1.2-4.4l1.2-3.9l1.2-3.4l1.2-2.9l1.2-2.3l1.2-1.8l1.2-1.3l1.2-0.7l1.2-0.1l1.2,0.4l1.2,1l1.2,1.6l1.2,2.1
						l1.2,2.6l1.2,3.2l1.2,3.7l1.2,4.1l2.4,9.7l2.4,11.3l2.4,12.7l2.4,13.8l3.5,22.2l8.2,52.8l2.4,13.9l2.4,12.8l2.4,11.4l2.4,9.8
						l1.2,4.2l1.2,3.7l1.2,3.2l1.2,2.7l1.2,2.2l1.2,1.6l1.2,1.1l1.2,0.5h1.2l1.2-0.6l1.2-1.2l1.2-1.7l1.2-2.3l1.2-2.8l1.2-3.3
						l1.2-3.8l1.2-4.3l2.4-9.9l2.4-11.5l2.4-12.9l2.4-14l3.5-22.3l7.1-45.4l3.5-20.9l2.4-12.6l2.4-11.2l2.4-9.5l1.2-4.1l1.2-3.6
						l1.2-3.1l1.2-2.6l1.2-2l1.2-1.5l1.2-0.9l1.2-0.4l1.2,0.2l1.2,0.8l1.2,1.3l1.2,1.9l1.2,2.4l1.2,3l1.2,3.5l1.2,4l0,0"/>
				</g>
			</g>
		</g>
		<g id="patch_3">
			<path class="st6" d="M64.2,381.2V152"/>
		</g>
		<g id="patch_4">
			<path class="st6" d="M400.1,381.2V152"/>
		</g>
		<g id="patch_5">
			<path class="st6" d="M64.2,381.2H400"/>
		</g>
		<g id="patch_6">
			<path class="st6" d="M64.2,152H400"/>
		</g>
		<g id="patch_7">
			<path class="st7" d="M109.6,408c14.1-8.2,27.8-16.2,41.3-24.1"/>
			<path class="st7" d="M147.2,384.2l3.6-0.2l-2,3"/>
		</g>
		<g id="text_13">
			<g transform="translate(65.433125 291.26412)scale(0.08 -0.08)">
				<g>
					<path id="DejaVuSans-77" class="st8" d="M169.1-1499.4h14.7l18.6-49.6l18.7,49.6h14.7v-72.9h-9.6v64l-18.8-50h-9.9l-18.8,50
						v-64h-9.6C169.1-1572.3,169.1-1499.4,169.1-1499.4z"/>
				</g>
				<g>
					<path id="DejaVuSans-97_4_" class="st8" d="M279.9-1544.8c-7.3,0-12.3-0.8-15.1-2.5c-2.8-1.7-4.2-4.5-4.2-8.5
						c0-3.2,1.1-5.7,3.2-7.6c2.1-1.9,5-2.8,8.6-2.8c5,0,9,1.8,12,5.3s4.5,8.2,4.5,14.1v2H279.9z M297.8-1541.1v-31.2h-9v8.3
						c-2.1-3.3-4.6-5.8-7.7-7.3s-6.8-2.4-11.2-2.4c-5.6,0-10,1.6-13.4,4.7c-3.3,3.1-5,7.4-5,12.6c0,6.1,2.1,10.8,6.2,13.9
						s10.3,4.7,18.4,4.7h12.6v0.9c0,4.1-1.4,7.3-4.1,9.6c-2.7,2.3-6.5,3.4-11.5,3.4c-3.1,0-6.2-0.4-9.1-1.1c-3-0.8-5.8-1.9-8.5-3.4
						v8.3c3.3,1.3,6.5,2.2,9.6,2.8s6.1,1,9,1c7.9,0,13.8-2.1,17.7-6.2C295.9-1526.6,297.8-1532.8,297.8-1541.1z"/>
				</g>
				<g>
					<path id="DejaVuSans-106" class="st8" d="M316.3-1517.6h9v-55.7c0-7-1.3-12-4-15.1c-2.6-3.1-6.9-4.7-12.8-4.7h-3.4v7.6h2.4
						c3.4,0,5.7,0.8,7,2.4c1.2,1.6,1.9,4.8,1.9,9.8v55.7H316.3z M316.3-1496.3h9v-11.4h-9V-1496.3z"/>
				</g>
				<g>
					<path id="DejaVuSans-111" class="st8" d="M365.3-1523.9c-4.8,0-8.6-1.9-11.4-5.6c-2.8-3.8-4.2-8.9-4.2-15.5
						c0-6.5,1.4-11.7,4.2-15.5c2.8-3.8,6.6-5.6,11.5-5.6c4.8,0,8.6,1.9,11.4,5.7c2.8,3.8,4.2,8.9,4.2,15.4s-1.4,11.6-4.2,15.4
						C373.9-1525.8,370.1-1523.9,365.3-1523.9z M365.3-1516.3c7.8,0,13.9-2.5,18.4-7.6s6.7-12.1,6.7-21.1c0-8.9-2.2-16-6.7-21.1
						s-10.6-7.6-18.4-7.6s-14,2.5-18.4,7.6s-6.7,12.1-6.7,21.1s2.2,16,6.7,21.1C351.3-1518.8,357.4-1516.3,365.3-1516.3z"/>
				</g>
				<g>
					<path id="DejaVuSans-114" class="st8" d="M437-1526c-1,0.6-2.1,1-3.3,1.3c-1.2,0.3-2.5,0.4-3.9,0.4c-5.1,0-9-1.7-11.7-5
						c-2.7-3.3-4.1-8-4.1-14.2v-28.8h-9v54.7h9v-8.5c1.9,3.3,4.4,5.8,7.4,7.4c3,1.6,6.7,2.4,11,2.4c0.6,0,1.3,0,2-0.1
						c0.8-0.1,1.6-0.2,2.5-0.4L437-1526z"/>
				</g>
				<g>
					<path id="DejaVuSans-32_2_" class="st8" d="M437-1572.3"/>
				</g>
				<g>
					<path id="DejaVuSans-116" class="st8" d="M487.1-1502.1v-15.5h18.5v-7h-18.5v-29.7c0-4.5,0.6-7.3,1.8-8.6
						c1.2-1.3,3.7-1.9,7.5-1.9h9.2v-7.5h-9.2c-6.9,0-11.7,1.3-14.4,3.9c-2.6,2.6-4,7.3-4,14.1v29.7h-6.6v7h6.6v15.5H487.1z"/>
				</g>
				<g>
					<path id="DejaVuSans-105_2_" class="st8" d="M517.4-1517.6h9v-54.7h-9V-1517.6z M517.4-1496.3h9v-11.4h-9V-1496.3z"/>
				</g>
				<g>
					<path id="DejaVuSans-99" class="st8" d="M584.5-1519.7v-8.4c-2.5,1.4-5.1,2.5-7.6,3.2c-2.6,0.7-5.1,1-7.7,1
						c-5.8,0-10.4-1.8-13.6-5.5c-3.2-3.7-4.8-8.9-4.8-15.5s1.6-11.9,4.8-15.6c3.2-3.7,7.8-5.5,13.6-5.5c2.6,0,5.2,0.3,7.7,1
						c2.6,0.7,5.1,1.8,7.6,3.2v-8.3c-2.5-1.2-5.1-2-7.8-2.6s-5.5-0.9-8.6-0.9c-8.2,0-14.8,2.6-19.6,7.8c-4.8,5.2-7.3,12.2-7.3,21
						c0,8.9,2.4,15.9,7.3,21c4.9,5.1,11.6,7.7,20.2,7.7c2.8,0,5.5-0.3,8.1-0.9C579.5-1517.7,582-1518.6,584.5-1519.7z"/>
				</g>
				<g>
					<path id="DejaVuSans-107" class="st8" d="M599.8-1496.3h9v-44.9l26.8,23.6h11.5l-29-25.6l30.2-29.1h-11.7l-27.8,26.7v-26.7h-9
						V-1496.3z"/>
				</g>
			</g>
		</g>
		<g id="patch_8">
			<path class="st7" d="M152.2,434.5c0-12.1,0-23.9,0-35.3"/>
			<path class="st7" d="M150.6,402.4l1.6-3.2l1.6,3.2"/>
		</g>
		<g id="text_14">
			<g transform="translate(108.9114 318.771239)scale(0.08 -0.08)">
				<g>
					<path id="DejaVuSans-77_1_" class="st8" d="M169.1-1499.4h14.7l18.6-49.6l18.7,49.6h14.7v-72.9h-9.6v64l-18.8-50h-9.9l-18.8,50
						v-64h-9.6C169.1-1572.3,169.1-1499.4,169.1-1499.4z"/>
				</g>
				<g>
					<path id="DejaVuSans-97_5_" class="st8" d="M279.9-1544.8c-7.3,0-12.3-0.8-15.1-2.5c-2.8-1.7-4.2-4.5-4.2-8.5
						c0-3.2,1.1-5.7,3.2-7.6s5-2.8,8.6-2.8c5,0,9,1.8,12,5.3s4.5,8.2,4.5,14.1v2H279.9z M297.8-1541.1v-31.2h-9v8.3
						c-2.1-3.3-4.6-5.8-7.7-7.3s-6.8-2.4-11.2-2.4c-5.6,0-10,1.6-13.4,4.7c-3.3,3.1-5,7.4-5,12.6c0,6.1,2.1,10.8,6.2,13.9
						c4.1,3.1,10.3,4.7,18.4,4.7h12.6v0.9c0,4.1-1.4,7.3-4.1,9.6c-2.7,2.3-6.5,3.4-11.5,3.4c-3.1,0-6.2-0.4-9.1-1.1
						c-3-0.8-5.8-1.9-8.5-3.4v8.3c3.3,1.3,6.5,2.2,9.6,2.8s6.1,1,9,1c7.9,0,13.8-2.1,17.7-6.2
						C295.9-1526.6,297.8-1532.8,297.8-1541.1z"/>
				</g>
				<g>
					<path id="DejaVuSans-106_1_" class="st8" d="M316.3-1517.6h9v-55.7c0-7-1.3-12-4-15.1c-2.6-3.1-6.9-4.7-12.8-4.7h-3.4v7.6h2.4
						c3.4,0,5.7,0.8,7,2.4c1.2,1.6,1.9,4.8,1.9,9.8v55.7H316.3z M316.3-1496.3h9v-11.4h-9V-1496.3z"/>
				</g>
				<g>
					<path id="DejaVuSans-111_1_" class="st8" d="M365.3-1523.9c-4.8,0-8.6-1.9-11.4-5.6c-2.8-3.8-4.2-8.9-4.2-15.5
						s1.4-11.7,4.2-15.5c2.8-3.8,6.6-5.6,11.5-5.6c4.8,0,8.6,1.9,11.4,5.7c2.8,3.8,4.2,8.9,4.2,15.4s-1.4,11.6-4.2,15.4
						C373.9-1525.8,370.1-1523.9,365.3-1523.9z M365.3-1516.3c7.8,0,13.9-2.5,18.4-7.6s6.7-12.1,6.7-21.1c0-8.9-2.2-16-6.7-21.1
						s-10.6-7.6-18.4-7.6s-14,2.5-18.4,7.6s-6.7,12.1-6.7,21.1s2.2,16,6.7,21.1C351.3-1518.8,357.4-1516.3,365.3-1516.3z"/>
				</g>
				<g>
					<path id="DejaVuSans-114_1_" class="st8" d="M437-1526c-1,0.6-2.1,1-3.3,1.3c-1.2,0.3-2.5,0.4-3.9,0.4c-5.1,0-9-1.7-11.7-5
						c-2.7-3.3-4.1-8-4.1-14.2v-28.8h-9v54.7h9v-8.5c1.9,3.3,4.4,5.8,7.4,7.4s6.7,2.4,11,2.4c0.6,0,1.3,0,2-0.1
						c0.8-0.1,1.6-0.2,2.5-0.4L437-1526z"/>
				</g>
				<g>
					<path id="DejaVuSans-32_3_" class="st8" d="M437-1572.3"/>
				</g>
				<g>
					<path id="DejaVuSans-116_1_" class="st8" d="M487.1-1502.1v-15.5h18.5v-7h-18.5v-29.7c0-4.5,0.6-7.3,1.8-8.6
						c1.2-1.3,3.7-1.9,7.5-1.9h9.2v-7.5h-9.2c-6.9,0-11.7,1.3-14.4,3.9c-2.6,2.6-4,7.3-4,14.1v29.7h-6.6v7h6.6v15.5H487.1z"/>
				</g>
				<g>
					<path id="DejaVuSans-105_3_" class="st8" d="M517.4-1517.6h9v-54.7h-9V-1517.6z M517.4-1496.3h9v-11.4h-9V-1496.3z"/>
				</g>
				<g>
					<path id="DejaVuSans-99_1_" class="st8" d="M584.5-1519.7v-8.4c-2.5,1.4-5.1,2.5-7.6,3.2c-2.5,0.7-5.1,1-7.7,1
						c-5.8,0-10.4-1.8-13.6-5.5c-3.2-3.7-4.8-8.9-4.8-15.5s1.6-11.9,4.8-15.6s7.8-5.5,13.6-5.5c2.6,0,5.2,0.3,7.7,1
						c2.5,0.7,5.1,1.8,7.6,3.2v-8.3c-2.5-1.2-5.1-2-7.8-2.6s-5.5-0.9-8.6-0.9c-8.2,0-14.8,2.6-19.6,7.8c-4.8,5.2-7.3,12.2-7.3,21
						c0,8.9,2.4,15.9,7.3,21c4.9,5.1,11.6,7.7,20.2,7.7c2.8,0,5.5-0.3,8.1-0.9C579.5-1517.7,582-1518.6,584.5-1519.7z"/>
				</g>
				<g>
					<path id="DejaVuSans-107_1_" class="st8" d="M599.8-1496.3h9v-44.9l26.8,23.6h11.5l-29-25.6l30.2-29.1h-11.7l-27.8,26.7v-26.7
						h-9V-1496.3z"/>
				</g>
				<g>
					<path id="DejaVuSans-32_4_" class="st8" d="M648.6-1572.3"/>
				</g>
				<g>
					<path id="DejaVuSans-108_4_" class="st8" d="M689.8-1496.3h9v-76h-9V-1496.3z"/>
				</g>
				<g>
					<path id="DejaVuSans-97_6_" class="st8" d="M742.5-1544.8c-7.3,0-12.3-0.8-15.1-2.5c-2.8-1.7-4.2-4.5-4.2-8.5
						c0-3.2,1.1-5.7,3.2-7.6c2.1-1.9,5-2.8,8.6-2.8c5,0,9,1.8,12,5.3s4.5,8.2,4.5,14.1v2H742.5z M760.4-1541.1v-31.2h-9v8.3
						c-2.1-3.3-4.6-5.8-7.7-7.3s-6.8-2.4-11.2-2.4c-5.6,0-10,1.6-13.4,4.7c-3.3,3.1-5,7.4-5,12.6c0,6.1,2.1,10.8,6.2,13.9
						c4.1,3.1,10.3,4.7,18.4,4.7h12.6v0.9c0,4.1-1.4,7.3-4.1,9.6c-2.7,2.3-6.5,3.4-11.5,3.4c-3.1,0-6.2-0.4-9.1-1.1
						c-3-0.8-5.8-1.9-8.5-3.4v8.3c3.3,1.3,6.5,2.2,9.6,2.8s6.1,1,9,1c7.9,0,13.8-2.1,17.7-6.2
						C758.5-1526.6,760.4-1532.8,760.4-1541.1z"/>
				</g>
				<g>
					<path id="DejaVuSans-98_2_" class="st8" d="M818.2-1545c0,6.6-1.4,11.8-4.1,15.5c-2.7,3.7-6.5,5.6-11.2,5.6
						c-4.8,0-8.5-1.9-11.2-5.6s-4.1-8.9-4.1-15.5s1.4-11.8,4.1-15.5c2.7-3.7,6.5-5.6,11.2-5.6c4.8,0,8.5,1.9,11.2,5.6
						S818.2-1551.6,818.2-1545z M787.6-1525.9c1.9,3.2,4.3,5.7,7.2,7.2c2.9,1.6,6.3,2.4,10.3,2.4c6.6,0,12-2.6,16.2-7.9
						s6.2-12.2,6.2-20.8s-2.1-15.5-6.2-20.8c-4.1-5.3-9.5-7.9-16.2-7.9c-4,0-7.4,0.8-10.3,2.4c-2.9,1.6-5.3,4-7.2,7.2v-8.2h-9v76h9
						V-1525.9z"/>
				</g>
				<g>
					<path id="DejaVuSans-101_2_" class="st8" d="M889.2-1542.7v-4.4h-41.3c0.4-6.2,2.3-10.9,5.6-14.1s8-4.9,13.9-4.9
						c3.4,0,6.8,0.4,10,1.3c3.2,0.9,6.5,2.1,9.7,3.8v-8.5c-3.2-1.4-6.5-2.4-9.9-3.1s-6.8-1.1-10.3-1.1c-8.7,0-15.6,2.5-20.7,7.6
						c-5.1,5.1-7.6,12-7.6,20.6c0,8.9,2.4,16,7.2,21.3c4.8,5.3,11.4,7.9,19.6,7.9c7.4,0,13.2-2.4,17.5-7.1
						C887-1528.1,889.2-1534.6,889.2-1542.7z M880.2-1540.1c-0.1,4.9-1.4,8.8-4.1,11.8c-2.7,2.9-6.2,4.4-10.7,4.4c-5,0-9-1.4-12-4.2
						c-3-2.8-4.7-6.8-5.2-12H880.2z"/>
				</g>
				<g>
					<path id="DejaVuSans-108_5_" class="st8" d="M903.9-1496.3h9v-76h-9V-1496.3z"/>
				</g>
			</g>
		</g>
		<g id="patch_9">
			<path class="st7" d="M344.6,409.2c0-7.9,0-15.5,0-22.7"/>
			<path class="st7" d="M343,389.8l1.6-3.2l1.6,3.2"/>
		</g>
		<g id="text_15">
			<g transform="translate(312.272625 293.55638)scale(0.08 -0.08)">
				<g>
					<path id="DejaVuSans-77_2_" class="st8" d="M169.1-1499.4h14.7l18.6-49.6l18.7,49.6h14.7v-72.9h-9.6v64l-18.8-50h-9.9l-18.8,50
						v-64h-9.6C169.1-1572.3,169.1-1499.4,169.1-1499.4z"/>
				</g>
				<g>
					<path id="DejaVuSans-105_4_" class="st8" d="M255-1517.6h9v-54.7h-9V-1517.6z M255-1496.3h9v-11.4h-9V-1496.3z"/>
				</g>
				<g>
					<path id="DejaVuSans-110" class="st8" d="M328.3-1539.3v-33h-9v32.7c0,5.2-1,9-3,11.6s-5,3.9-9.1,3.9c-4.9,0-8.7-1.5-11.5-4.6
						s-4.2-7.3-4.2-12.6v-30.9h-9v54.7h9v-8.5c2.2,3.3,4.7,5.8,7.6,7.4c2.9,1.6,6.3,2.4,10.1,2.4c6.3,0,11-1.9,14.2-5.8
						C326.7-1526,328.3-1531.7,328.3-1539.3z"/>
				</g>
				<g>
					<path id="DejaVuSans-111_2_" class="st8" d="M367.4-1523.9c-4.8,0-8.6-1.9-11.4-5.6c-2.8-3.8-4.2-8.9-4.2-15.5
						s1.4-11.7,4.2-15.5c2.8-3.8,6.6-5.6,11.5-5.6c4.8,0,8.6,1.9,11.4,5.7c2.8,3.8,4.2,8.9,4.2,15.4s-1.4,11.6-4.2,15.4
						C376-1525.8,372.2-1523.9,367.4-1523.9z M367.4-1516.3c7.8,0,13.9-2.5,18.4-7.6s6.7-12.1,6.7-21.1c0-8.9-2.2-16-6.7-21.1
						s-10.6-7.6-18.4-7.6s-14,2.5-18.4,7.6s-6.7,12.1-6.7,21.1s2.2,16,6.7,21.1C353.4-1518.8,359.5-1516.3,367.4-1516.3z"/>
				</g>
				<g>
					<path id="DejaVuSans-114_2_" class="st8" d="M439.1-1526c-1,0.6-2.1,1-3.3,1.3c-1.2,0.3-2.5,0.4-3.9,0.4c-5.1,0-9-1.7-11.7-5
						c-2.7-3.3-4.1-8-4.1-14.2v-28.8h-9v54.7h9v-8.5c1.9,3.3,4.4,5.8,7.4,7.4c3,1.6,6.7,2.4,11,2.4c0.6,0,1.3,0,2-0.1
						c0.8-0.1,1.6-0.2,2.5-0.4L439.1-1526z"/>
				</g>
				<g>
					<path id="DejaVuSans-32_5_" class="st8" d="M439.1-1572.3"/>
				</g>
				<g>
					<path id="DejaVuSans-116_2_" class="st8" d="M489.2-1502.1v-15.5h18.5v-7h-18.5v-29.7c0-4.5,0.6-7.3,1.8-8.6
						c1.2-1.3,3.7-1.9,7.5-1.9h9.2v-7.5h-9.2c-6.9,0-11.7,1.3-14.4,3.9c-2.6,2.6-4,7.3-4,14.1v29.7h-6.6v7h6.6v15.5H489.2z"/>
				</g>
				<g>
					<path id="DejaVuSans-105_5_" class="st8" d="M519.5-1517.6h9v-54.7h-9V-1517.6z M519.5-1496.3h9v-11.4h-9V-1496.3z"/>
				</g>
				<g>
					<path id="DejaVuSans-99_2_" class="st8" d="M586.6-1519.7v-8.4c-2.5,1.4-5.1,2.5-7.6,3.2c-2.5,0.7-5.1,1-7.7,1
						c-5.8,0-10.4-1.8-13.6-5.5c-3.2-3.7-4.8-8.9-4.8-15.5s1.6-11.9,4.8-15.6c3.2-3.7,7.8-5.5,13.6-5.5c2.6,0,5.2,0.3,7.7,1
						c2.5,0.7,5.1,1.8,7.6,3.2v-8.3c-2.5-1.2-5.1-2-7.8-2.6s-5.5-0.9-8.6-0.9c-8.2,0-14.8,2.6-19.6,7.8c-4.8,5.2-7.3,12.2-7.3,21
						c0,8.9,2.4,15.9,7.3,21c4.9,5.1,11.6,7.7,20.2,7.7c2.8,0,5.5-0.3,8.1-0.9C581.6-1517.7,584.1-1518.6,586.6-1519.7z"/>
				</g>
				<g>
					<path id="DejaVuSans-107_2_" class="st8" d="M601.9-1496.3h9v-44.9l26.8,23.6h11.5l-29-25.6l30.2-29.1h-11.7l-27.8,26.7v-26.7
						h-9V-1496.3z"/>
				</g>
			</g>
		</g>
		<g id="text_16">
			<g transform="translate(101.143281 73.37262)rotate(-283)scale(0.08 -0.08)">
				<g>
					<path id="DejaVuSans-Bold-108" class="st9" d="M1576.2-122.4l17.5,0l0-76l-17.5,0L1576.2-122.4z"/>
				</g>
				<g>
					<path id="DejaVuSans-Bold-105" class="st9" d="M1610.5-143.7l17.5,0l0-54.7l-17.5,0L1610.5-143.7z M1610.5-122.4l17.5,0l0-14.3
						l-17.5,0V-122.4z"/>
				</g>
				<g>
					<path id="DejaVuSans-Bold-110" class="st9" d="M1699.8-165.1l0-33.3l-17.6,0v5.4v20.1c0,4.7-0.1,8-0.3,9.8
						c-0.2,1.8-0.6,3.1-1.1,4c-0.7,1.1-1.6,2-2.8,2.7c-1.2,0.6-2.5,1-4,1c-3.6,0-6.5-1.4-8.6-4.2c-2.1-2.8-3.1-6.7-3.1-11.7l0-26.9
						l-17.5,0l0,54.7l17.5,0v-8c2.6,3.2,5.4,5.5,8.4,7s6.2,2.3,9.8,2.3c6.3,0,11.1-1.9,14.4-5.8
						C1698.1-152.1,1699.8-157.7,1699.8-165.1z"/>
				</g>
				<g>
					<path id="DejaVuSans-Bold-101" class="st9" d="M1770.6-170.9v-5l-40.9,0c0.4-4.1,1.9-7.2,4.4-9.2c2.5-2.1,6.1-3.1,10.6-3.1
						c3.7,0,7.4,0.5,11.3,1.6c3.9,1.1,7.8,2.7,11.9,5v-13.5c-4.1-1.6-8.3-2.7-12.4-3.5c-4.1-0.8-8.3-1.2-12.4-1.2
						c-9.9,0-17.6,2.5-23.1,7.5s-8.2,12.1-8.2,21.2c0,8.9,2.7,15.9,8.1,21c5.4,5.1,12.8,7.7,22.2,7.7c8.6,0,15.5-2.6,20.6-7.8
						C1768-155.4,1770.6-162.3,1770.6-170.9z M1752.6-165.1c0,3.3-1,6-2.9,8s-4.5,3.1-7.6,3.1c-3.4,0-6.1-1-8.2-2.9
						c-2.1-1.9-3.4-4.7-4-8.2L1752.6-165.1z"/>
				</g>
			</g>
		</g>
		<g id="patch_10">
			<path class="st10" d="M295.3,287.9c1.9-5.3,3.7-10.3,5.3-15"/>
			<path class="st10" d="M298,275.5l2.6-2.5l0.4,3.6"/>
		</g>
		<g id="text_17">
			<g transform="translate(263.671625 172.066605)scale(0.08 -0.08)">
				<g>
					<path id="DejaVuSans-Bold-109" class="st11" d="M218.4-1526.7c2.2,3.4,4.8,6,7.9,7.7c3,1.8,6.4,2.7,10,2.7
						c6.3,0,11.1-1.9,14.4-5.8c3.3-3.9,4.9-9.5,4.9-16.9v-33.3H238v28.5c0,0.4,0.1,0.9,0.1,1.3c0,0.5,0,1.1,0,2
						c0,3.9-0.6,6.7-1.7,8.4c-1.1,1.8-3,2.6-5.5,2.6c-3.3,0-5.9-1.4-7.7-4.1c-1.8-2.7-2.7-6.7-2.8-11.9v-26.9h-17.6v28.5
						c0,6.1-0.5,9.9-1.6,11.7c-1,1.8-2.9,2.6-5.6,2.6c-3.4,0-5.9-1.4-7.8-4.1s-2.7-6.7-2.7-11.8v-26.9h-17.5v54.7h17.6v-8
						c2.2,3.1,4.6,5.4,7.4,7s5.8,2.3,9.2,2.3c3.8,0,7.1-0.9,10-2.7C214.7-1520.9,216.9-1523.4,218.4-1526.7z"/>
				</g>
				<g>
					<path id="DejaVuSans-Bold-97" class="st11" d="M296.4-1547.7c-3.6,0-6.4-0.6-8.2-1.9c-1.8-1.2-2.8-3.1-2.8-5.5
						c0-2.2,0.7-3.9,2.2-5.2c1.5-1.2,3.6-1.9,6.2-1.9c3.3,0,6,1.2,8.3,3.5c2.2,2.4,3.4,5.3,3.4,8.9v2L296.4-1547.7L296.4-1547.7z
						 M323.1-1541.1v-31.2h-17.6v8.1c-2.3-3.3-5-5.7-7.9-7.3c-2.9-1.5-6.5-2.3-10.7-2.3c-5.7,0-10.3,1.7-13.8,5
						c-3.5,3.3-5.3,7.6-5.3,12.9c0,6.4,2.2,11.1,6.6,14.1s11.3,4.5,20.8,4.5h10.3v1.4c0,2.8-1.1,4.8-3.3,6.1
						c-2.2,1.3-5.6,1.9-10.2,1.9c-3.7,0-7.2-0.4-10.5-1.1c-3.2-0.8-6.2-1.9-9-3.4v13.3c3.8,0.9,7.5,1.6,11.3,2.1s7.6,0.7,11.3,0.7
						c9.9,0,17-1.9,21.4-5.8C321-1526,323.1-1532.3,323.1-1541.1z"/>
				</g>
				<g>
					<path id="DejaVuSans-Bold-114" class="st11" d="M380-1532.5c-1.5,0.7-3.1,1.2-4.6,1.6c-1.5,0.3-3,0.5-4.6,0.5
						c-4.5,0-7.9-1.4-10.4-4.3c-2.4-2.9-3.6-7-3.6-12.4v-25.2h-17.5v54.7h17.5v-9c2.2,3.6,4.8,6.2,7.7,7.8c2.9,1.6,6.4,2.5,10.5,2.5
						c0.6,0,1.2,0,1.9-0.1c0.7,0,1.7-0.1,3-0.3L380-1532.5z"/>
				</g>
				<g>
					<path id="DejaVuSans-Bold-107" class="st11" d="M388.7-1496.3h17.5v-41.4l20.1,20.1h20.3l-26.7-25.1l28.8-29.6h-21.2
						l-21.3,22.8v-22.8h-17.5C388.7-1572.3,388.7-1496.3,388.7-1496.3z"/>
				</g>
				<g>
					<path id="DejaVuSans-Bold-101_1_" class="st11" d="M509.8-1544.8v-5h-40.9c0.4-4.1,1.9-7.2,4.4-9.2c2.5-2.1,6.1-3.1,10.6-3.1
						c3.7,0,7.4,0.5,11.3,1.6s7.8,2.7,11.9,5v-13.5c-4.1-1.6-8.3-2.7-12.4-3.5c-4.1-0.8-8.3-1.2-12.4-1.2c-9.9,0-17.6,2.5-23.1,7.5
						s-8.2,12.1-8.2,21.2c0,8.9,2.7,15.9,8.1,21s12.8,7.7,22.2,7.7c8.6,0,15.5-2.6,20.6-7.8C507.2-1529.2,509.8-1536.2,509.8-1544.8
						z M491.8-1539c0,3.3-1,6-2.9,8s-4.5,3.1-7.6,3.1c-3.4,0-6.1-1-8.2-2.9s-3.4-4.7-4-8.2C469.1-1539,491.8-1539,491.8-1539z"/>
				</g>
				<g>
					<path id="DejaVuSans-Bold-114_1_" class="st11" d="M563.6-1532.5c-1.5,0.7-3.1,1.2-4.6,1.6c-1.5,0.3-3,0.5-4.6,0.5
						c-4.5,0-7.9-1.4-10.4-4.3c-2.4-2.9-3.6-7-3.6-12.4v-25.2h-17.5v54.7h17.5v-9c2.2,3.6,4.8,6.2,7.7,7.8s6.4,2.5,10.5,2.5
						c0.6,0,1.2,0,1.9-0.1c0.7,0,1.7-0.1,3-0.3L563.6-1532.5z"/>
				</g>
			</g>
		</g>
		<g id="text_18">
			<g transform="translate(206.345312 20.16)scale(0.12 -0.12)">
				<g>
					<path id="DejaVuSans-84" d="M105.9-975.3h61.7v-8.3h-25.9v-64.6h-9.9v64.6h-25.9C105.9-983.6,105.9-975.3,105.9-975.3z"/>
				</g>
				<g>
					<path id="DejaVuSans-105_6_" d="M176.7-993.5h9v-54.7h-9V-993.5z M176.7-972.3h9v-11.4h-9V-972.3z"/>
				</g>
				<g>
					<path id="DejaVuSans-116_3_" d="M213.3-978v-15.5h18.5v-7h-18.5v-29.7c0-4.5,0.6-7.3,1.8-8.6c1.2-1.3,3.7-1.9,7.5-1.9h9.2v-7.5
						h-9.2c-6.9,0-11.7,1.3-14.4,3.9c-2.6,2.6-4,7.3-4,14.1v29.7h-6.6v7h6.6v15.5H213.3z"/>
				</g>
				<g>
					<path id="DejaVuSans-108_6_" d="M243.7-972.3h9v-76h-9V-972.3z"/>
				</g>
				<g>
					<path id="DejaVuSans-101_3_" d="M318.2-1018.6v-4.4h-41.3c0.4-6.2,2.3-10.9,5.6-14.1c3.3-3.2,8-4.9,13.9-4.9
						c3.4,0,6.8,0.4,10,1.3s6.5,2.1,9.7,3.8v-8.5c-3.2-1.4-6.5-2.4-9.9-3.1c-3.4-0.7-6.8-1.1-10.3-1.1c-8.7,0-15.6,2.5-20.7,7.6
						s-7.6,12-7.6,20.6c0,8.9,2.4,16,7.2,21.3c4.8,5.3,11.4,7.9,19.6,7.9c7.4,0,13.2-2.4,17.5-7.1
						C316.1-1004.1,318.2-1010.5,318.2-1018.6z M309.2-1016c-0.1,4.9-1.4,8.8-4.1,11.8c-2.7,2.9-6.2,4.4-10.7,4.4c-5,0-9-1.4-12-4.2
						s-4.7-6.8-5.2-12H309.2z"/>
				</g>
			</g>
		</g>
	</g>
</g>
<g>
	<path class="st12" d="M400,141.5c-0.1-1.9-1.1-10.1-13-14c-12.1-4-28.5-4.5-39.1-4.3c-20,0.4-31.4,2.5-51.4,3.1
		c-26.1,0.9-40.4-1.4-49.2-3.6c-14.6-3.5-15.1-14.4-14.6-16"/>
	<path class="st12" d="M65,141.7c0.1-1.9,1.1-10.1,13-14c12.1-4,28.5-4.5,39.1-4.3c20,0.4,31.4,2.4,51.4,3.1
		c26.1,0.9,40.4-1.4,49.2-3.6c14.6-3.5,15.1-14.3,14.6-15.9"/>
</g>
<rect x="12.9" y="80.8" class="st13" width="438.5" height="374.4"/>
<text transform="matrix(1 0 0 1 211.0434 101.6206)" class="st14 st15">AXES</text>
<g>
	<path class="st12" d="M451.3,73.9c-0.1-2.6-1.5-13.8-17-19.1c-15.9-5.4-37.3-6.2-51.1-5.9c-26.1,0.6-41,3.3-67.1,4.2
		c-34.1,1.2-52.7-2-64.3-4.9c-19.1-4.8-19.7-19.6-19.1-21.7"/>
	<path class="st12" d="M13.7,74.2c0.1-2.6,1.5-13.7,17-19C46.6,49.8,68,49,81.8,49.4c26.1,0.6,41,3.3,67.1,4.2
		c34.1,1.2,52.7-1.9,64.3-4.8c19.1-4.8,19.7-19.5,19.1-21.6"/>
</g>
<text transform="matrix(1 0 0 1 201.8752 21.9839)" class="st14 st15">FIGURE</text>
</svg>
