<?xml version="1.0" encoding="utf-8"?>
<!-- Generator: Adobe Illustrator 24.1.2, SVG Export Plug-In . SVG Version: 6.00 Build 0)  -->
<svg version="1.1" id="Layer_1" xmlns="http://www.w3.org/2000/svg" xmlns:xlink="http://www.w3.org/1999/xlink" x="0px" y="0px"
	 viewBox="0 0 612.7 551" style="enable-background:new 0 0 612.7 551;" xml:space="preserve">
<style type="text/css">
	.st0{fill:#FFFFFF;}
	.st1{stroke:#000000;stroke-width:0.8;stroke-linejoin:round;}
	.st2{fill:none;stroke:#000000;stroke-width:0.8;stroke-linecap:square;}
	.st3{font-family:'Verdana';}
	.st4{font-size:14px;}
</style>
<g id="figure_1">
	<g id="patch_1">
		<path class="st0" d="M75.2,348.4h462.2V30.2H75.2V348.4z"/>
	</g>
	<g id="axes_1">
		<g id="patch_2">
			<path class="st0" d="M89.6,181.1h136.1v-141H89.6V181.1z"/>
		</g>
		<g id="matplotlib.axis_1">
			<g id="xtick_1">
				<g id="line2d_1">
					<g>
						<g>
							<path id="ma04857c95c" class="st1" d="M89.6,181.1v3.5"/>
						</g>
					</g>
				</g>
			</g>
			<g id="xtick_2">
				<g id="line2d_2">
					<g>
						<g>
							<path id="ma04857c95c_1_" class="st1" d="M123.6,181.1v3.5"/>
						</g>
					</g>
				</g>
			</g>
			<g id="xtick_3">
				<g id="line2d_3">
					<g>
						<g>
							<path id="ma04857c95c_2_" class="st1" d="M157.6,181.1v3.5"/>
						</g>
					</g>
				</g>
			</g>
			<g id="xtick_4">
				<g id="line2d_4">
					<g>
						<g>
							<path id="ma04857c95c_3_" class="st1" d="M191.7,181.1v3.5"/>
						</g>
					</g>
				</g>
			</g>
			<g id="xtick_5">
				<g id="line2d_5">
					<g>
						<g>
							<path id="ma04857c95c_4_" class="st1" d="M225.7,181.1v3.5"/>
						</g>
					</g>
				</g>
			</g>
		</g>
		<g id="matplotlib.axis_2">
			<g id="ytick_1">
				<g id="line2d_6">
					<g>
						<g>
							<path id="mded5b9ea99" class="st1" d="M89.6,181.1h-3.5"/>
						</g>
					</g>
				</g>
			</g>
			<g id="ytick_2">
				<g id="line2d_7">
					<g>
						<g>
							<path id="mded5b9ea99_1_" class="st1" d="M89.6,152.9h-3.5"/>
						</g>
					</g>
				</g>
			</g>
			<g id="ytick_3">
				<g id="line2d_8">
					<g>
						<g>
							<path id="mded5b9ea99_2_" class="st1" d="M89.6,124.7h-3.5"/>
						</g>
					</g>
				</g>
			</g>
			<g id="ytick_4">
				<g id="line2d_9">
					<g>
						<g>
							<path id="mded5b9ea99_3_" class="st1" d="M89.6,96.5h-3.5"/>
						</g>
					</g>
				</g>
			</g>
			<g id="ytick_5">
				<g id="line2d_10">
					<g>
						<g>
							<path id="mded5b9ea99_4_" class="st1" d="M89.6,68.3h-3.5"/>
						</g>
					</g>
				</g>
			</g>
			<g id="ytick_6">
				<g id="line2d_11">
					<g>
						<g>
							<path id="mded5b9ea99_5_" class="st1" d="M89.6,40.1h-3.5"/>
						</g>
					</g>
				</g>
			</g>
		</g>
		<g id="patch_3">
			<path class="st2" d="M89.6,181.1v-141"/>
		</g>
		<g id="patch_4">
			<path class="st2" d="M225.7,181.1v-141"/>
		</g>
		<g id="patch_5">
			<path class="st2" d="M89.6,181.1h136.1"/>
		</g>
		<g id="patch_6">
			<path class="st2" d="M89.6,40.1h136.1"/>
		</g>
		<g id="text_1">
			<g transform="translate(46.763906 80.434792)scale(0.18 -0.18)">
				<g>
					<path id="DejaVuSans-40" d="M449-91.8c-4.4-7.5-7.6-14.9-9.7-22.2c-2.1-7.3-3.2-14.7-3.2-22.3c0-7.5,1.1-15,3.2-22.3
						s5.4-14.8,9.7-22.2h-7.8c-4.9,7.7-8.5,15.2-11,22.6c-2.4,7.4-3.6,14.7-3.6,22c0,7.3,1.2,14.6,3.6,21.9
						c2.4,7.4,6.1,14.9,11,22.6H449z"/>
				</g>
				<g>
					<path id="DejaVuSans-50" d="M476.2-159.3h34.4v-8.3h-46.3v8.3c3.7,3.9,8.8,9.1,15.3,15.6c6.5,6.5,10.5,10.7,12.2,12.6
						c3.2,3.5,5.4,6.5,6.6,9c1.3,2.5,1.9,4.9,1.9,7.2c0,3.9-1.4,7-4.1,9.5c-2.7,2.4-6.3,3.7-10.6,3.7c-3.1,0-6.4-0.5-9.8-1.6
						c-3.4-1.1-7.1-2.7-11-4.9v10c4,1.6,7.7,2.8,11.1,3.6c3.5,0.8,6.6,1.2,9.5,1.2c7.6,0,13.6-1.9,18.1-5.7
						c4.5-3.8,6.7-8.8,6.7-15.1c0-3-0.6-5.8-1.7-8.5c-1.1-2.7-3.2-5.8-6.1-9.5c-0.8-0.9-3.4-3.7-7.8-8.2
						C490.3-144.9,484.1-151.2,476.2-159.3z"/>
				</g>
				<g>
					<path id="DejaVuSans-44" d="M532.4-155.2h10.3v-8.4l-8-15.6h-6.3l4,15.6V-155.2z"/>
				</g>
				<g>
					<path id="DejaVuSans-32" d="M552.4-167.6"/>
				</g>
				<g>
					<path id="DejaVuSans-51" d="M624.8-128.3c4.7-1,8.4-3.1,11-6.3c2.7-3.2,4-7.1,4-11.8c0-7.2-2.5-12.8-7.4-16.7
						c-4.9-3.9-12-5.9-21.1-5.9c-3.1,0-6.2,0.3-9.4,0.9c-3.2,0.6-6.6,1.5-10,2.7v9.5c2.7-1.6,5.7-2.8,9-3.6
						c3.3-0.8,6.7-1.2,10.2-1.2c6.2,0,10.9,1.2,14.1,3.7c3.2,2.4,4.9,6,4.9,10.6c0,4.3-1.5,7.7-4.5,10.1c-3,2.4-7.2,3.6-12.6,3.6
						h-8.5v8.1h8.9c4.8,0,8.6,1,11.1,2.9c2.6,1.9,3.9,4.7,3.9,8.4c0,3.7-1.3,6.6-4,8.6c-2.6,2-6.4,3-11.4,3c-2.7,0-5.6-0.3-8.7-0.9
						c-3.1-0.6-6.5-1.5-10.2-2.7v8.8c3.8,1,7.3,1.8,10.5,2.3c3.3,0.5,6.4,0.8,9.2,0.8c7.5,0,13.4-1.7,17.8-5.1
						c4.4-3.4,6.5-8,6.5-13.8c0-4-1.2-7.5-3.5-10.2S629-127.2,624.8-128.3z"/>
				</g>
				<g>
					<path id="DejaVuSans-44_1_" d="M659.6-155.2h10.3v-8.4l-8-15.6h-6.3l4,15.6V-155.2z"/>
				</g>
				<g>
					<path id="DejaVuSans-32_1_" d="M679.6-167.6"/>
				</g>
				<g>
					<path id="DejaVuSans-49" d="M723.8-159.3h16.1v55.6l-17.5-3.5v9l17.4,3.5h9.9v-64.6h16.1v-8.3h-42V-159.3z"/>
				</g>
				<g>
					<path id="DejaVuSans-41" d="M783-91.8h7.8c4.9-7.7,8.5-15.2,11-22.6c2.4-7.4,3.6-14.7,3.6-21.9c0-7.3-1.2-14.6-3.6-22
						c-2.4-7.4-6.1-14.9-11-22.6H783c4.3,7.5,7.6,14.9,9.7,22.2c2.1,7.4,3.2,14.8,3.2,22.3c0,7.5-1.1,14.9-3.2,22.3
						C790.6-106.6,787.4-99.2,783-91.8z"/>
				</g>
			</g>
		</g>
	</g>
	<g id="axes_2">
		<g id="patch_7">
			<path class="st0" d="M240.1,181.1h136.1v-141H240.1V181.1z"/>
		</g>
		<g id="matplotlib.axis_3">
			<g id="xtick_6">
				<g id="line2d_12">
					<g>
						<g>
							<path id="ma04857c95c_5_" class="st1" d="M240.1,181.1v3.5"/>
						</g>
					</g>
				</g>
			</g>
			<g id="xtick_7">
				<g id="line2d_13">
					<g>
						<g>
							<path id="ma04857c95c_6_" class="st1" d="M274.1,181.1v3.5"/>
						</g>
					</g>
				</g>
			</g>
			<g id="xtick_8">
				<g id="line2d_14">
					<g>
						<g>
							<path id="ma04857c95c_7_" class="st1" d="M308.1,181.1v3.5"/>
						</g>
					</g>
				</g>
			</g>
			<g id="xtick_9">
				<g id="line2d_15">
					<g>
						<g>
							<path id="ma04857c95c_8_" class="st1" d="M342.1,181.1v3.5"/>
						</g>
					</g>
				</g>
			</g>
			<g id="xtick_10">
				<g id="line2d_16">
					<g>
						<g>
							<path id="ma04857c95c_9_" class="st1" d="M376.2,181.1v3.5"/>
						</g>
					</g>
				</g>
			</g>
		</g>
		<g id="matplotlib.axis_4">
			<g id="ytick_7">
				<g id="line2d_17">
					<g>
						<g>
							<path id="mded5b9ea99_6_" class="st1" d="M240.1,181.1h-3.5"/>
						</g>
					</g>
				</g>
			</g>
			<g id="ytick_8">
				<g id="line2d_18">
					<g>
						<g>
							<path id="mded5b9ea99_7_" class="st1" d="M240.1,152.9h-3.5"/>
						</g>
					</g>
				</g>
			</g>
			<g id="ytick_9">
				<g id="line2d_19">
					<g>
						<g>
							<path id="mded5b9ea99_8_" class="st1" d="M240.1,124.7h-3.5"/>
						</g>
					</g>
				</g>
			</g>
			<g id="ytick_10">
				<g id="line2d_20">
					<g>
						<g>
							<path id="mded5b9ea99_9_" class="st1" d="M240.1,96.5h-3.5"/>
						</g>
					</g>
				</g>
			</g>
			<g id="ytick_11">
				<g id="line2d_21">
					<g>
						<g>
							<path id="mded5b9ea99_10_" class="st1" d="M240.1,68.3h-3.5"/>
						</g>
					</g>
				</g>
			</g>
			<g id="ytick_12">
				<g id="line2d_22">
					<g>
						<g>
							<path id="mded5b9ea99_11_" class="st1" d="M240.1,40.1h-3.5"/>
						</g>
					</g>
				</g>
			</g>
		</g>
		<g id="patch_8">
			<path class="st2" d="M240.1,181.1v-141"/>
		</g>
		<g id="patch_9">
			<path class="st2" d="M376.2,181.1v-141"/>
		</g>
		<g id="patch_10">
			<path class="st2" d="M240.1,181.1h136.1"/>
		</g>
		<g id="patch_11">
			<path class="st2" d="M240.1,40.1h136.1"/>
		</g>
		<g id="text_2">
			<g transform="translate(197.232656 80.434792)scale(0.18 -0.18)">
				<g>
					<path id="DejaVuSans-40_1_" d="M449-91.8c-4.4-7.5-7.6-14.9-9.7-22.2c-2.1-7.3-3.2-14.7-3.2-22.3c0-7.5,1.1-15,3.2-22.3
						s5.4-14.8,9.7-22.2h-7.8c-4.9,7.7-8.5,15.2-11,22.6c-2.4,7.4-3.6,14.7-3.6,22c0,7.3,1.2,14.6,3.6,21.9
						c2.4,7.4,6.1,14.9,11,22.6H449z"/>
				</g>
				<g>
					<path id="DejaVuSans-50_1_" d="M476.2-159.3h34.4v-8.3h-46.3v8.3c3.7,3.9,8.8,9.1,15.3,15.6c6.5,6.5,10.5,10.7,12.2,12.6
						c3.2,3.5,5.4,6.5,6.6,9c1.3,2.5,1.9,4.9,1.9,7.2c0,3.9-1.4,7-4.1,9.5c-2.7,2.4-6.3,3.7-10.6,3.7c-3.1,0-6.4-0.5-9.8-1.6
						c-3.4-1.1-7.1-2.7-11-4.9v10c4,1.6,7.7,2.8,11.1,3.6c3.5,0.8,6.6,1.2,9.5,1.2c7.6,0,13.6-1.9,18.1-5.7
						c4.5-3.8,6.7-8.8,6.7-15.1c0-3-0.6-5.8-1.7-8.5c-1.1-2.7-3.2-5.8-6.1-9.5c-0.8-0.9-3.4-3.7-7.8-8.2
						C490.3-144.9,484.1-151.2,476.2-159.3z"/>
				</g>
				<g>
					<path id="DejaVuSans-44_2_" d="M532.4-155.2h10.3v-8.4l-8-15.6h-6.3l4,15.6V-155.2z"/>
				</g>
				<g>
					<path id="DejaVuSans-32_2_" d="M552.4-167.6"/>
				</g>
				<g>
					<path id="DejaVuSans-51_1_" d="M624.8-128.3c4.7-1,8.4-3.1,11-6.3c2.7-3.2,4-7.1,4-11.8c0-7.2-2.5-12.8-7.4-16.7
						c-4.9-3.9-12-5.9-21.1-5.9c-3.1,0-6.2,0.3-9.4,0.9c-3.2,0.6-6.6,1.5-10,2.7v9.5c2.7-1.6,5.7-2.8,9-3.6
						c3.3-0.8,6.7-1.2,10.2-1.2c6.2,0,10.9,1.2,14.1,3.7c3.2,2.4,4.9,6,4.9,10.6c0,4.3-1.5,7.7-4.5,10.1c-3,2.4-7.2,3.6-12.6,3.6
						h-8.5v8.1h8.9c4.8,0,8.6,1,11.1,2.9c2.6,1.9,3.9,4.7,3.9,8.4c0,3.7-1.3,6.6-4,8.6c-2.6,2-6.4,3-11.4,3c-2.7,0-5.6-0.3-8.7-0.9
						c-3.1-0.6-6.5-1.5-10.2-2.7v8.8c3.8,1,7.3,1.8,10.5,2.3c3.3,0.5,6.4,0.8,9.2,0.8c7.5,0,13.4-1.7,17.8-5.1
						c4.4-3.4,6.5-8,6.5-13.8c0-4-1.2-7.5-3.5-10.2S629-127.2,624.8-128.3z"/>
				</g>
				<g>
					<path id="DejaVuSans-44_3_" d="M659.6-155.2h10.3v-8.4l-8-15.6h-6.3l4,15.6V-155.2z"/>
				</g>
				<g>
					<path id="DejaVuSans-32_3_" d="M679.6-167.6"/>
				</g>
				<g>
					<path id="DejaVuSans-50_2_" d="M730.6-159.3H765v-8.3h-46.3v8.3c3.7,3.9,8.8,9.1,15.3,15.6c6.5,6.5,10.5,10.7,12.2,12.6
						c3.2,3.5,5.4,6.5,6.6,9c1.3,2.5,1.9,4.9,1.9,7.2c0,3.9-1.4,7-4.1,9.5c-2.7,2.4-6.3,3.7-10.6,3.7c-3.1,0-6.4-0.5-9.8-1.6
						c-3.4-1.1-7.1-2.7-11-4.9v10c4,1.6,7.7,2.8,11.1,3.6c3.5,0.8,6.6,1.2,9.5,1.2c7.6,0,13.6-1.9,18.1-5.7
						c4.5-3.8,6.7-8.8,6.7-15.1c0-3-0.6-5.8-1.7-8.5c-1.1-2.7-3.2-5.8-6.1-9.5c-0.8-0.9-3.4-3.7-7.8-8.2
						C744.7-144.9,738.5-151.2,730.6-159.3z"/>
				</g>
				<g>
					<path id="DejaVuSans-41_1_" d="M783-91.8h7.8c4.9-7.7,8.5-15.2,11-22.6c2.4-7.4,3.6-14.7,3.6-21.9c0-7.3-1.2-14.6-3.6-22
						c-2.4-7.4-6.1-14.9-11-22.6H783c4.3,7.5,7.6,14.9,9.7,22.2c2.1,7.4,3.2,14.8,3.2,22.3c0,7.5-1.1,14.9-3.2,22.3
						C790.6-106.6,787.4-99.2,783-91.8z"/>
				</g>
			</g>
		</g>
	</g>
	<g id="axes_3">
		<g id="patch_12">
			<path class="st0" d="M390.5,181.1h136.1v-141H390.5V181.1z"/>
		</g>
		<g id="matplotlib.axis_5">
			<g id="xtick_11">
				<g id="line2d_23">
					<g>
						<g>
							<path id="ma04857c95c_10_" class="st1" d="M390.5,181.1v3.5"/>
						</g>
					</g>
				</g>
			</g>
			<g id="xtick_12">
				<g id="line2d_24">
					<g>
						<g>
							<path id="ma04857c95c_11_" class="st1" d="M424.6,181.1v3.5"/>
						</g>
					</g>
				</g>
			</g>
			<g id="xtick_13">
				<g id="line2d_25">
					<g>
						<g>
							<path id="ma04857c95c_12_" class="st1" d="M458.6,181.1v3.5"/>
						</g>
					</g>
				</g>
			</g>
			<g id="xtick_14">
				<g id="line2d_26">
					<g>
						<g>
							<path id="ma04857c95c_13_" class="st1" d="M492.6,181.1v3.5"/>
						</g>
					</g>
				</g>
			</g>
			<g id="xtick_15">
				<g id="line2d_27">
					<g>
						<g>
							<path id="ma04857c95c_14_" class="st1" d="M526.6,181.1v3.5"/>
						</g>
					</g>
				</g>
			</g>
		</g>
		<g id="matplotlib.axis_6">
			<g id="ytick_13">
				<g id="line2d_28">
					<g>
						<g>
							<path id="mded5b9ea99_12_" class="st1" d="M390.5,181.1H387"/>
						</g>
					</g>
				</g>
			</g>
			<g id="ytick_14">
				<g id="line2d_29">
					<g>
						<g>
							<path id="mded5b9ea99_13_" class="st1" d="M390.5,152.9H387"/>
						</g>
					</g>
				</g>
			</g>
			<g id="ytick_15">
				<g id="line2d_30">
					<g>
						<g>
							<path id="mded5b9ea99_14_" class="st1" d="M390.5,124.7H387"/>
						</g>
					</g>
				</g>
			</g>
			<g id="ytick_16">
				<g id="line2d_31">
					<g>
						<g>
							<path id="mded5b9ea99_15_" class="st1" d="M390.5,96.5H387"/>
						</g>
					</g>
				</g>
			</g>
			<g id="ytick_17">
				<g id="line2d_32">
					<g>
						<g>
							<path id="mded5b9ea99_16_" class="st1" d="M390.5,68.3H387"/>
						</g>
					</g>
				</g>
			</g>
			<g id="ytick_18">
				<g id="line2d_33">
					<g>
						<g>
							<path id="mded5b9ea99_17_" class="st1" d="M390.5,40.1H387"/>
						</g>
					</g>
				</g>
			</g>
		</g>
		<g id="patch_13">
			<path class="st2" d="M390.5,181.1v-141"/>
		</g>
		<g id="patch_14">
			<path class="st2" d="M526.6,181.1v-141"/>
		</g>
		<g id="patch_15">
			<path class="st2" d="M390.5,181.1h136.1"/>
		</g>
		<g id="patch_16">
			<path class="st2" d="M390.5,40.1h136.1"/>
		</g>
		<g id="text_3">
			<g transform="translate(347.701406 80.434792)scale(0.18 -0.18)">
				<g>
					<path id="DejaVuSans-40_2_" d="M449-91.8c-4.4-7.5-7.6-14.9-9.7-22.2c-2.1-7.3-3.2-14.7-3.2-22.3c0-7.5,1.1-15,3.2-22.3
						s5.4-14.8,9.7-22.2h-7.8c-4.9,7.7-8.5,15.2-11,22.6c-2.4,7.4-3.6,14.7-3.6,22c0,7.3,1.2,14.6,3.6,21.9
						c2.4,7.4,6.1,14.9,11,22.6H449z"/>
				</g>
				<g>
					<path id="DejaVuSans-50_3_" d="M476.2-159.3h34.4v-8.3h-46.3v8.3c3.7,3.9,8.8,9.1,15.3,15.6c6.5,6.5,10.5,10.7,12.2,12.6
						c3.2,3.5,5.4,6.5,6.6,9c1.3,2.5,1.9,4.9,1.9,7.2c0,3.9-1.4,7-4.1,9.5c-2.7,2.4-6.3,3.7-10.6,3.7c-3.1,0-6.4-0.5-9.8-1.6
						c-3.4-1.1-7.1-2.7-11-4.9v10c4,1.6,7.7,2.8,11.1,3.6c3.5,0.8,6.6,1.2,9.5,1.2c7.6,0,13.6-1.9,18.1-5.7
						c4.5-3.8,6.7-8.8,6.7-15.1c0-3-0.6-5.8-1.7-8.5c-1.1-2.7-3.2-5.8-6.1-9.5c-0.8-0.9-3.4-3.7-7.8-8.2
						C490.3-144.9,484.1-151.2,476.2-159.3z"/>
				</g>
				<g>
					<path id="DejaVuSans-44_4_" d="M532.4-155.2h10.3v-8.4l-8-15.6h-6.3l4,15.6V-155.2z"/>
				</g>
				<g>
					<path id="DejaVuSans-32_4_" d="M552.4-167.6"/>
				</g>
				<g>
					<path id="DejaVuSans-51_2_" d="M624.8-128.3c4.7-1,8.4-3.1,11-6.3c2.7-3.2,4-7.1,4-11.8c0-7.2-2.5-12.8-7.4-16.7
						c-4.9-3.9-12-5.9-21.1-5.9c-3.1,0-6.2,0.3-9.4,0.9c-3.2,0.6-6.6,1.5-10,2.7v9.5c2.7-1.6,5.7-2.8,9-3.6
						c3.3-0.8,6.7-1.2,10.2-1.2c6.2,0,10.9,1.2,14.1,3.7c3.2,2.4,4.9,6,4.9,10.6c0,4.3-1.5,7.7-4.5,10.1c-3,2.4-7.2,3.6-12.6,3.6
						h-8.5v8.1h8.9c4.8,0,8.6,1,11.1,2.9c2.6,1.9,3.9,4.7,3.9,8.4c0,3.7-1.3,6.6-4,8.6c-2.6,2-6.4,3-11.4,3c-2.7,0-5.6-0.3-8.7-0.9
						c-3.1-0.6-6.5-1.5-10.2-2.7v8.8c3.8,1,7.3,1.8,10.5,2.3c3.3,0.5,6.4,0.8,9.2,0.8c7.5,0,13.4-1.7,17.8-5.1
						c4.4-3.4,6.5-8,6.5-13.8c0-4-1.2-7.5-3.5-10.2S629-127.2,624.8-128.3z"/>
				</g>
				<g>
					<path id="DejaVuSans-44_5_" d="M659.6-155.2h10.3v-8.4l-8-15.6h-6.3l4,15.6V-155.2z"/>
				</g>
				<g>
					<path id="DejaVuSans-32_5_" d="M679.6-167.6"/>
				</g>
				<g>
					<path id="DejaVuSans-51_3_" d="M752-128.3c4.7-1,8.4-3.1,11-6.3c2.7-3.2,4-7.1,4-11.8c0-7.2-2.5-12.8-7.4-16.7
						c-4.9-3.9-12-5.9-21.1-5.9c-3.1,0-6.2,0.3-9.4,0.9c-3.2,0.6-6.6,1.5-10,2.7v9.5c2.7-1.6,5.7-2.8,9-3.6
						c3.3-0.8,6.7-1.2,10.2-1.2c6.2,0,10.9,1.2,14.1,3.7c3.2,2.4,4.9,6,4.9,10.6c0,4.3-1.5,7.7-4.5,10.1c-3,2.4-7.2,3.6-12.6,3.6
						h-8.5v8.1h8.9c4.8,0,8.6,1,11.1,2.9c2.6,1.9,3.9,4.7,3.9,8.4c0,3.7-1.3,6.6-4,8.6c-2.6,2-6.4,3-11.4,3c-2.7,0-5.6-0.3-8.7-0.9
						c-3.1-0.6-6.5-1.5-10.2-2.7v8.8c3.8,1,7.3,1.8,10.5,2.3c3.3,0.5,6.4,0.8,9.2,0.8c7.5,0,13.4-1.7,17.8-5.1
						c4.4-3.4,6.5-8,6.5-13.8c0-4-1.2-7.5-3.5-10.2S756.2-127.2,752-128.3z"/>
				</g>
				<g>
					<path id="DejaVuSans-41_2_" d="M783-91.8h7.8c4.9-7.7,8.5-15.2,11-22.6c2.4-7.4,3.6-14.7,3.6-21.9c0-7.3-1.2-14.6-3.6-22
						c-2.4-7.4-6.1-14.9-11-22.6H783c4.3,7.5,7.6,14.9,9.7,22.2c2.1,7.4,3.2,14.8,3.2,22.3c0,7.5-1.1,14.9-3.2,22.3
						C790.6-106.6,787.4-99.2,783-91.8z"/>
				</g>
			</g>
		</g>
	</g>
	<g id="axes_4">
		<g id="patch_17">
			<path class="st0" d="M89.6,335.2h136.1v-141H89.6V335.2z"/>
		</g>
		<g id="matplotlib.axis_7">
			<g id="xtick_16">
				<g id="line2d_34">
					<g>
						<g>
							<path id="ma04857c95c_15_" class="st1" d="M89.6,335.2v3.5"/>
						</g>
					</g>
				</g>
			</g>
			<g id="xtick_17">
				<g id="line2d_35">
					<g>
						<g>
							<path id="ma04857c95c_16_" class="st1" d="M123.6,335.2v3.5"/>
						</g>
					</g>
				</g>
			</g>
			<g id="xtick_18">
				<g id="line2d_36">
					<g>
						<g>
							<path id="ma04857c95c_17_" class="st1" d="M157.6,335.2v3.5"/>
						</g>
					</g>
				</g>
			</g>
			<g id="xtick_19">
				<g id="line2d_37">
					<g>
						<g>
							<path id="ma04857c95c_18_" class="st1" d="M191.7,335.2v3.5"/>
						</g>
					</g>
				</g>
			</g>
			<g id="xtick_20">
				<g id="line2d_38">
					<g>
						<g>
							<path id="ma04857c95c_19_" class="st1" d="M225.7,335.2v3.5"/>
						</g>
					</g>
				</g>
			</g>
		</g>
		<g id="matplotlib.axis_8">
			<g id="ytick_19">
				<g id="line2d_39">
					<g>
						<g>
							<path id="mded5b9ea99_18_" class="st1" d="M89.6,335.2h-3.5"/>
						</g>
					</g>
				</g>
			</g>
			<g id="ytick_20">
				<g id="line2d_40">
					<g>
						<g>
							<path id="mded5b9ea99_19_" class="st1" d="M89.6,307h-3.5"/>
						</g>
					</g>
				</g>
			</g>
			<g id="ytick_21">
				<g id="line2d_41">
					<g>
						<g>
							<path id="mded5b9ea99_20_" class="st1" d="M89.6,278.9h-3.5"/>
						</g>
					</g>
				</g>
			</g>
			<g id="ytick_22">
				<g id="line2d_42">
					<g>
						<g>
							<path id="mded5b9ea99_21_" class="st1" d="M89.6,250.7h-3.5"/>
						</g>
					</g>
				</g>
			</g>
			<g id="ytick_23">
				<g id="line2d_43">
					<g>
						<g>
							<path id="mded5b9ea99_22_" class="st1" d="M89.6,222.5h-3.5"/>
						</g>
					</g>
				</g>
			</g>
			<g id="ytick_24">
				<g id="line2d_44">
					<g>
						<g>
							<path id="mded5b9ea99_23_" class="st1" d="M89.6,194.3h-3.5"/>
						</g>
					</g>
				</g>
			</g>
		</g>
		<g id="patch_18">
			<path class="st2" d="M89.6,335.2v-141"/>
		</g>
		<g id="patch_19">
			<path class="st2" d="M225.7,335.2v-141"/>
		</g>
		<g id="patch_20">
			<path class="st2" d="M89.6,335.2h136.1"/>
		</g>
		<g id="patch_21">
			<path class="st2" d="M89.6,194.3h136.1"/>
		</g>
		<g id="text_4">
			<g transform="translate(46.763906 234.582292)scale(0.18 -0.18)">
				<g>
					<path id="DejaVuSans-40_3_" d="M449-91.8c-4.4-7.5-7.6-14.9-9.7-22.2c-2.1-7.3-3.2-14.7-3.2-22.3c0-7.5,1.1-15,3.2-22.3
						s5.4-14.8,9.7-22.2h-7.8c-4.9,7.7-8.5,15.2-11,22.6c-2.4,7.4-3.6,14.7-3.6,22c0,7.3,1.2,14.6,3.6,21.9
						c2.4,7.4,6.1,14.9,11,22.6H449z"/>
				</g>
				<g>
					<path id="DejaVuSans-50_4_" d="M476.2-159.3h34.4v-8.3h-46.3v8.3c3.7,3.9,8.8,9.1,15.3,15.6c6.5,6.5,10.5,10.7,12.2,12.6
						c3.2,3.5,5.4,6.5,6.6,9c1.3,2.5,1.9,4.9,1.9,7.2c0,3.9-1.4,7-4.1,9.5c-2.7,2.4-6.3,3.7-10.6,3.7c-3.1,0-6.4-0.5-9.8-1.6
						c-3.4-1.1-7.1-2.7-11-4.9v10c4,1.6,7.7,2.8,11.1,3.6c3.5,0.8,6.6,1.2,9.5,1.2c7.6,0,13.6-1.9,18.1-5.7
						c4.5-3.8,6.7-8.8,6.7-15.1c0-3-0.6-5.8-1.7-8.5c-1.1-2.7-3.2-5.8-6.1-9.5c-0.8-0.9-3.4-3.7-7.8-8.2
						C490.3-144.9,484.1-151.2,476.2-159.3z"/>
				</g>
				<g>
					<path id="DejaVuSans-44_6_" d="M532.4-155.2h10.3v-8.4l-8-15.6h-6.3l4,15.6V-155.2z"/>
				</g>
				<g>
					<path id="DejaVuSans-32_6_" d="M552.4-167.6"/>
				</g>
				<g>
					<path id="DejaVuSans-51_4_" d="M624.8-128.3c4.7-1,8.4-3.1,11-6.3c2.7-3.2,4-7.1,4-11.8c0-7.2-2.5-12.8-7.4-16.7
						c-4.9-3.9-12-5.9-21.1-5.9c-3.1,0-6.2,0.3-9.4,0.9c-3.2,0.6-6.6,1.5-10,2.7v9.5c2.7-1.6,5.7-2.8,9-3.6
						c3.3-0.8,6.7-1.2,10.2-1.2c6.2,0,10.9,1.2,14.1,3.7c3.2,2.4,4.9,6,4.9,10.6c0,4.3-1.5,7.7-4.5,10.1c-3,2.4-7.2,3.6-12.6,3.6
						h-8.5v8.1h8.9c4.8,0,8.6,1,11.1,2.9c2.6,1.9,3.9,4.7,3.9,8.4c0,3.7-1.3,6.6-4,8.6c-2.6,2-6.4,3-11.4,3c-2.7,0-5.6-0.3-8.7-0.9
						c-3.1-0.6-6.5-1.5-10.2-2.7v8.8c3.8,1,7.3,1.8,10.5,2.3c3.3,0.5,6.4,0.8,9.2,0.8c7.5,0,13.4-1.7,17.8-5.1
						c4.4-3.4,6.5-8,6.5-13.8c0-4-1.2-7.5-3.5-10.2S629-127.2,624.8-128.3z"/>
				</g>
				<g>
					<path id="DejaVuSans-44_7_" d="M659.6-155.2h10.3v-8.4l-8-15.6h-6.3l4,15.6V-155.2z"/>
				</g>
				<g>
					<path id="DejaVuSans-32_7_" d="M679.6-167.6"/>
				</g>
				<g>
					<path id="DejaVuSans-52" d="M749.2-103.3l-24.9-38.9h24.9V-103.3z M746.6-94.7H759v-47.5h10.4v-8.2H759v-17.2h-9.8v17.2h-32.9
						v9.5L746.6-94.7z"/>
				</g>
				<g>
					<path id="DejaVuSans-41_3_" d="M783-91.8h7.8c4.9-7.7,8.5-15.2,11-22.6c2.4-7.4,3.6-14.7,3.6-21.9c0-7.3-1.2-14.6-3.6-22
						c-2.4-7.4-6.1-14.9-11-22.6H783c4.3,7.5,7.6,14.9,9.7,22.2c2.1,7.4,3.2,14.8,3.2,22.3c0,7.5-1.1,14.9-3.2,22.3
						C790.6-106.6,787.4-99.2,783-91.8z"/>
				</g>
			</g>
		</g>
	</g>
	<g id="axes_5">
		<g id="patch_22">
			<path class="st0" d="M240.1,335.2h136.1v-141H240.1V335.2z"/>
		</g>
		<g id="matplotlib.axis_9">
			<g id="xtick_21">
				<g id="line2d_45">
					<g>
						<g>
							<path id="ma04857c95c_20_" class="st1" d="M240.1,335.2v3.5"/>
						</g>
					</g>
				</g>
			</g>
			<g id="xtick_22">
				<g id="line2d_46">
					<g>
						<g>
							<path id="ma04857c95c_21_" class="st1" d="M274.1,335.2v3.5"/>
						</g>
					</g>
				</g>
			</g>
			<g id="xtick_23">
				<g id="line2d_47">
					<g>
						<g>
							<path id="ma04857c95c_22_" class="st1" d="M308.1,335.2v3.5"/>
						</g>
					</g>
				</g>
			</g>
			<g id="xtick_24">
				<g id="line2d_48">
					<g>
						<g>
							<path id="ma04857c95c_23_" class="st1" d="M342.1,335.2v3.5"/>
						</g>
					</g>
				</g>
			</g>
			<g id="xtick_25">
				<g id="line2d_49">
					<g>
						<g>
							<path id="ma04857c95c_24_" class="st1" d="M376.2,335.2v3.5"/>
						</g>
					</g>
				</g>
			</g>
		</g>
		<g id="matplotlib.axis_10">
			<g id="ytick_25">
				<g id="line2d_50">
					<g>
						<g>
							<path id="mded5b9ea99_24_" class="st1" d="M240.1,335.2h-3.5"/>
						</g>
					</g>
				</g>
			</g>
			<g id="ytick_26">
				<g id="line2d_51">
					<g>
						<g>
							<path id="mded5b9ea99_25_" class="st1" d="M240.1,307h-3.5"/>
						</g>
					</g>
				</g>
			</g>
			<g id="ytick_27">
				<g id="line2d_52">
					<g>
						<g>
							<path id="mded5b9ea99_26_" class="st1" d="M240.1,278.9h-3.5"/>
						</g>
					</g>
				</g>
			</g>
			<g id="ytick_28">
				<g id="line2d_53">
					<g>
						<g>
							<path id="mded5b9ea99_27_" class="st1" d="M240.1,250.7h-3.5"/>
						</g>
					</g>
				</g>
			</g>
			<g id="ytick_29">
				<g id="line2d_54">
					<g>
						<g>
							<path id="mded5b9ea99_28_" class="st1" d="M240.1,222.5h-3.5"/>
						</g>
					</g>
				</g>
			</g>
			<g id="ytick_30">
				<g id="line2d_55">
					<g>
						<g>
							<path id="mded5b9ea99_29_" class="st1" d="M240.1,194.3h-3.5"/>
						</g>
					</g>
				</g>
			</g>
		</g>
		<g id="patch_23">
			<path class="st2" d="M240.1,335.2v-141"/>
		</g>
		<g id="patch_24">
			<path class="st2" d="M376.2,335.2v-141"/>
		</g>
		<g id="patch_25">
			<path class="st2" d="M240.1,335.2h136.1"/>
		</g>
		<g id="patch_26">
			<path class="st2" d="M240.1,194.3h136.1"/>
		</g>
		<g id="text_5">
			<g transform="translate(197.232656 234.582292)scale(0.18 -0.18)">
				<g>
					<path id="DejaVuSans-40_4_" d="M449-91.8c-4.4-7.5-7.6-14.9-9.7-22.2c-2.1-7.3-3.2-14.7-3.2-22.3c0-7.5,1.1-15,3.2-22.3
						s5.4-14.8,9.7-22.2h-7.8c-4.9,7.7-8.5,15.2-11,22.6c-2.4,7.4-3.6,14.7-3.6,22c0,7.3,1.2,14.6,3.6,21.9
						c2.4,7.4,6.1,14.9,11,22.6H449z"/>
				</g>
				<g>
					<path id="DejaVuSans-50_5_" d="M476.2-159.3h34.4v-8.3h-46.3v8.3c3.7,3.9,8.8,9.1,15.3,15.6c6.5,6.5,10.5,10.7,12.2,12.6
						c3.2,3.5,5.4,6.5,6.6,9c1.3,2.5,1.9,4.9,1.9,7.2c0,3.9-1.4,7-4.1,9.5c-2.7,2.4-6.3,3.7-10.6,3.7c-3.1,0-6.4-0.5-9.8-1.6
						c-3.4-1.1-7.1-2.7-11-4.9v10c4,1.6,7.7,2.8,11.1,3.6c3.5,0.8,6.6,1.2,9.5,1.2c7.6,0,13.6-1.9,18.1-5.7
						c4.5-3.8,6.7-8.8,6.7-15.1c0-3-0.6-5.8-1.7-8.5c-1.1-2.7-3.2-5.8-6.1-9.5c-0.8-0.9-3.4-3.7-7.8-8.2
						C490.3-144.9,484.1-151.2,476.2-159.3z"/>
				</g>
				<g>
					<path id="DejaVuSans-44_8_" d="M532.4-155.2h10.3v-8.4l-8-15.6h-6.3l4,15.6V-155.2z"/>
				</g>
				<g>
					<path id="DejaVuSans-32_8_" d="M552.4-167.6"/>
				</g>
				<g>
					<path id="DejaVuSans-51_5_" d="M624.8-128.3c4.7-1,8.4-3.1,11-6.3c2.7-3.2,4-7.1,4-11.8c0-7.2-2.5-12.8-7.4-16.7
						c-4.9-3.9-12-5.9-21.1-5.9c-3.1,0-6.2,0.3-9.4,0.9c-3.2,0.6-6.6,1.5-10,2.7v9.5c2.7-1.6,5.7-2.8,9-3.6
						c3.3-0.8,6.7-1.2,10.2-1.2c6.2,0,10.9,1.2,14.1,3.7c3.2,2.4,4.9,6,4.9,10.6c0,4.3-1.5,7.7-4.5,10.1c-3,2.4-7.2,3.6-12.6,3.6
						h-8.5v8.1h8.9c4.8,0,8.6,1,11.1,2.9c2.6,1.9,3.9,4.7,3.9,8.4c0,3.7-1.3,6.6-4,8.6c-2.6,2-6.4,3-11.4,3c-2.7,0-5.6-0.3-8.7-0.9
						c-3.1-0.6-6.5-1.5-10.2-2.7v8.8c3.8,1,7.3,1.8,10.5,2.3c3.3,0.5,6.4,0.8,9.2,0.8c7.5,0,13.4-1.7,17.8-5.1
						c4.4-3.4,6.5-8,6.5-13.8c0-4-1.2-7.5-3.5-10.2S629-127.2,624.8-128.3z"/>
				</g>
				<g>
					<path id="DejaVuSans-44_9_" d="M659.6-155.2h10.3v-8.4l-8-15.6h-6.3l4,15.6V-155.2z"/>
				</g>
				<g>
					<path id="DejaVuSans-32_9_" d="M679.6-167.6"/>
				</g>
				<g>
					<path id="DejaVuSans-53" d="M722.2-94.7h38.7v-8.3h-29.7v-17.9c1.4,0.5,2.9,0.9,4.3,1.1c1.4,0.2,2.9,0.4,4.3,0.4
						c8.1,0,14.6-2.2,19.3-6.7c4.8-4.5,7.1-10.5,7.1-18.1c0-7.8-2.4-13.9-7.3-18.3c-4.9-4.3-11.8-6.5-20.7-6.5
						c-3.1,0-6.2,0.3-9.4,0.8c-3.2,0.5-6.4,1.3-9.8,2.3v9.9c2.9-1.6,6-2.8,9.1-3.6s6.4-1.2,9.9-1.2c5.6,0,10.1,1.5,13.4,4.4
						c3.3,3,4.9,7,4.9,12.1c0,5.1-1.6,9.1-4.9,12c-3.3,3-7.7,4.5-13.4,4.5c-2.6,0-5.3-0.3-7.9-0.9c-2.6-0.6-5.3-1.5-8-2.7V-94.7z"/>
				</g>
				<g>
					<path id="DejaVuSans-41_4_" d="M783-91.8h7.8c4.9-7.7,8.5-15.2,11-22.6c2.4-7.4,3.6-14.7,3.6-21.9c0-7.3-1.2-14.6-3.6-22
						c-2.4-7.4-6.1-14.9-11-22.6H783c4.3,7.5,7.6,14.9,9.7,22.2c2.1,7.4,3.2,14.8,3.2,22.3c0,7.5-1.1,14.9-3.2,22.3
						C790.6-106.6,787.4-99.2,783-91.8z"/>
				</g>
			</g>
		</g>
	</g>
	<g id="axes_6">
		<g id="patch_27">
			<path class="st0" d="M390.5,335.2h136.1v-141H390.5V335.2z"/>
		</g>
		<g id="matplotlib.axis_11">
			<g id="xtick_26">
				<g id="line2d_56">
					<g>
						<g>
							<path id="ma04857c95c_25_" class="st1" d="M390.5,335.2v3.5"/>
						</g>
					</g>
				</g>
			</g>
			<g id="xtick_27">
				<g id="line2d_57">
					<g>
						<g>
							<path id="ma04857c95c_26_" class="st1" d="M424.6,335.2v3.5"/>
						</g>
					</g>
				</g>
			</g>
			<g id="xtick_28">
				<g id="line2d_58">
					<g>
						<g>
							<path id="ma04857c95c_27_" class="st1" d="M458.6,335.2v3.5"/>
						</g>
					</g>
				</g>
			</g>
			<g id="xtick_29">
				<g id="line2d_59">
					<g>
						<g>
							<path id="ma04857c95c_28_" class="st1" d="M492.6,335.2v3.5"/>
						</g>
					</g>
				</g>
			</g>
			<g id="xtick_30">
				<g id="line2d_60">
					<g>
						<g>
							<path id="ma04857c95c_29_" class="st1" d="M526.6,335.2v3.5"/>
						</g>
					</g>
				</g>
			</g>
		</g>
		<g id="matplotlib.axis_12">
			<g id="ytick_31">
				<g id="line2d_61">
					<g>
						<g>
							<path id="mded5b9ea99_30_" class="st1" d="M390.5,335.2H387"/>
						</g>
					</g>
				</g>
			</g>
			<g id="ytick_32">
				<g id="line2d_62">
					<g>
						<g>
							<path id="mded5b9ea99_31_" class="st1" d="M390.5,307H387"/>
						</g>
					</g>
				</g>
			</g>
			<g id="ytick_33">
				<g id="line2d_63">
					<g>
						<g>
							<path id="mded5b9ea99_32_" class="st1" d="M390.5,278.9H387"/>
						</g>
					</g>
				</g>
			</g>
			<g id="ytick_34">
				<g id="line2d_64">
					<g>
						<g>
							<path id="mded5b9ea99_33_" class="st1" d="M390.5,250.7H387"/>
						</g>
					</g>
				</g>
			</g>
			<g id="ytick_35">
				<g id="line2d_65">
					<g>
						<g>
							<path id="mded5b9ea99_34_" class="st1" d="M390.5,222.5H387"/>
						</g>
					</g>
				</g>
			</g>
			<g id="ytick_36">
				<g id="line2d_66">
					<g>
						<g>
							<path id="mded5b9ea99_35_" class="st1" d="M390.5,194.3H387"/>
						</g>
					</g>
				</g>
			</g>
		</g>
		<g id="patch_28">
			<path class="st2" d="M390.5,335.2v-141"/>
		</g>
		<g id="patch_29">
			<path class="st2" d="M526.6,335.2v-141"/>
		</g>
		<g id="patch_30">
			<path class="st2" d="M390.5,335.2h136.1"/>
		</g>
		<g id="patch_31">
			<path class="st2" d="M390.5,194.3h136.1"/>
		</g>
		<g id="text_6">
			<g transform="translate(347.701406 234.582292)scale(0.18 -0.18)">
				<g>
					<path id="DejaVuSans-40_5_" d="M449-91.8c-4.4-7.5-7.6-14.9-9.7-22.2c-2.1-7.3-3.2-14.7-3.2-22.3c0-7.5,1.1-15,3.2-22.3
						s5.4-14.8,9.7-22.2h-7.8c-4.9,7.7-8.5,15.2-11,22.6c-2.4,7.4-3.6,14.7-3.6,22c0,7.3,1.2,14.6,3.6,21.9
						c2.4,7.4,6.1,14.9,11,22.6H449z"/>
				</g>
				<g>
					<path id="DejaVuSans-50_6_" d="M476.2-159.3h34.4v-8.3h-46.3v8.3c3.7,3.9,8.8,9.1,15.3,15.6c6.5,6.5,10.5,10.7,12.2,12.6
						c3.2,3.5,5.4,6.5,6.6,9c1.3,2.5,1.9,4.9,1.9,7.2c0,3.9-1.4,7-4.1,9.5c-2.7,2.4-6.3,3.7-10.6,3.7c-3.1,0-6.4-0.5-9.8-1.6
						c-3.4-1.1-7.1-2.7-11-4.9v10c4,1.6,7.7,2.8,11.1,3.6c3.5,0.8,6.6,1.2,9.5,1.2c7.6,0,13.6-1.9,18.1-5.7
						c4.5-3.8,6.7-8.8,6.7-15.1c0-3-0.6-5.8-1.7-8.5c-1.1-2.7-3.2-5.8-6.1-9.5c-0.8-0.9-3.4-3.7-7.8-8.2
						C490.3-144.9,484.1-151.2,476.2-159.3z"/>
				</g>
				<g>
					<path id="DejaVuSans-44_10_" d="M532.4-155.2h10.3v-8.4l-8-15.6h-6.3l4,15.6V-155.2z"/>
				</g>
				<g>
					<path id="DejaVuSans-32_10_" d="M552.4-167.6"/>
				</g>
				<g>
					<path id="DejaVuSans-51_6_" d="M624.8-128.3c4.7-1,8.4-3.1,11-6.3c2.7-3.2,4-7.1,4-11.8c0-7.2-2.5-12.8-7.4-16.7
						c-4.9-3.9-12-5.9-21.1-5.9c-3.1,0-6.2,0.3-9.4,0.9c-3.2,0.6-6.6,1.5-10,2.7v9.5c2.7-1.6,5.7-2.8,9-3.6
						c3.3-0.8,6.7-1.2,10.2-1.2c6.2,0,10.9,1.2,14.1,3.7c3.2,2.4,4.9,6,4.9,10.6c0,4.3-1.5,7.7-4.5,10.1c-3,2.4-7.2,3.6-12.6,3.6
						h-8.5v8.1h8.9c4.8,0,8.6,1,11.1,2.9c2.6,1.9,3.9,4.7,3.9,8.4c0,3.7-1.3,6.6-4,8.6c-2.6,2-6.4,3-11.4,3c-2.7,0-5.6-0.3-8.7-0.9
						c-3.1-0.6-6.5-1.5-10.2-2.7v8.8c3.8,1,7.3,1.8,10.5,2.3c3.3,0.5,6.4,0.8,9.2,0.8c7.5,0,13.4-1.7,17.8-5.1
						c4.4-3.4,6.5-8,6.5-13.8c0-4-1.2-7.5-3.5-10.2S629-127.2,624.8-128.3z"/>
				</g>
				<g>
					<path id="DejaVuSans-44_11_" d="M659.6-155.2h10.3v-8.4l-8-15.6h-6.3l4,15.6V-155.2z"/>
				</g>
				<g>
					<path id="DejaVuSans-32_11_" d="M679.6-167.6"/>
				</g>
				<g>
					<path id="DejaVuSans-54" d="M744.4-127.3c-4.4,0-7.9-1.5-10.5-4.5c-2.6-3-3.9-7.2-3.9-12.4c0-5.2,1.3-9.4,3.9-12.4
						c2.6-3,6.1-4.6,10.5-4.6c4.4,0,7.9,1.5,10.5,4.6c2.6,3.1,3.9,7.2,3.9,12.4c0,5.3-1.3,9.4-3.9,12.4
						C752.4-128.8,748.9-127.3,744.4-127.3z M764-96.3v-9c-2.5,1.2-5,2.1-7.5,2.7c-2.5,0.6-5,0.9-7.5,0.9c-6.5,0-11.5-2.2-14.9-6.6
						c-3.4-4.4-5.4-11-5.9-19.9c1.9,2.8,4.3,5,7.2,6.5c2.9,1.5,6.1,2.3,9.6,2.3c7.3,0,13.1-2.2,17.4-6.7c4.2-4.4,6.4-10.5,6.4-18.1
						c0-7.5-2.2-13.5-6.6-18c-4.4-4.5-10.3-6.8-17.7-6.8c-8.4,0-14.9,3.2-19.3,9.7c-4.5,6.5-6.7,15.8-6.7,28.1
						c0,11.5,2.7,20.7,8.2,27.6c5.5,6.9,12.8,10.3,22,10.3c2.5,0,5-0.2,7.5-0.7C758.6-94.6,761.3-95.4,764-96.3z"/>
				</g>
				<g>
					<path id="DejaVuSans-41_5_" d="M783-91.8h7.8c4.9-7.7,8.5-15.2,11-22.6c2.4-7.4,3.6-14.7,3.6-21.9c0-7.3-1.2-14.6-3.6-22
						c-2.4-7.4-6.1-14.9-11-22.6H783c4.3,7.5,7.6,14.9,9.7,22.2c2.1,7.4,3.2,14.8,3.2,22.3c0,7.5-1.1,14.9-3.2,22.3
						C790.6-106.6,787.4-99.2,783-91.8z"/>
				</g>
			</g>
		</g>
	</g>
</g>
<g id="figure_1_1_">
	<g id="patch_1_1_">
		<path class="st0" d="M0,551h612.7V387.6H0V551z"/>
	</g>
	<g id="axes_1_1_">
		<g id="patch_2_1_">
			<path class="st0" d="M14.3,536.7h136.2V398.4H14.3V536.7z"/>
		</g>
		<g id="matplotlib.axis_1_1_">
			<g id="xtick_1_1_">
				<g id="line2d_1_1_">
					<g>
						<g>
							<path id="m3392c6f13b" class="st1" d="M14.3,536.7v3.5"/>
						</g>
					</g>
				</g>
			</g>
			<g id="xtick_2_1_">
				<g id="line2d_2_1_">
					<g>
						<g>
							<path id="m3392c6f13b_1_" class="st1" d="M48.3,536.7v3.5"/>
						</g>
					</g>
				</g>
			</g>
			<g id="xtick_3_1_">
				<g id="line2d_3_1_">
					<g>
						<g>
							<path id="m3392c6f13b_2_" class="st1" d="M82.4,536.7v3.5"/>
						</g>
					</g>
				</g>
			</g>
			<g id="xtick_4_1_">
				<g id="line2d_4_1_">
					<g>
						<g>
							<path id="m3392c6f13b_3_" class="st1" d="M116.4,536.7v3.5"/>
						</g>
					</g>
				</g>
			</g>
			<g id="xtick_5_1_">
				<g id="line2d_5_1_">
					<g>
						<g>
							<path id="m3392c6f13b_4_" class="st1" d="M150.5,536.7v3.5"/>
						</g>
					</g>
				</g>
			</g>
		</g>
		<g id="matplotlib.axis_2_1_">
			<g id="ytick_1_1_">
				<g id="line2d_6_1_">
					<g>
						<g>
							<path id="m9e082414cd" class="st1" d="M14.3,536.7h-3.5"/>
						</g>
					</g>
				</g>
			</g>
			<g id="ytick_2_1_">
				<g id="line2d_7_1_">
					<g>
						<g>
							<path id="m9e082414cd_1_" class="st1" d="M14.3,509h-3.5"/>
						</g>
					</g>
				</g>
			</g>
			<g id="ytick_3_1_">
				<g id="line2d_8_1_">
					<g>
						<g>
							<path id="m9e082414cd_2_" class="st1" d="M14.3,481.4h-3.5"/>
						</g>
					</g>
				</g>
			</g>
			<g id="ytick_4_1_">
				<g id="line2d_9_1_">
					<g>
						<g>
							<path id="m9e082414cd_3_" class="st1" d="M14.3,453.7h-3.5"/>
						</g>
					</g>
				</g>
			</g>
			<g id="ytick_5_1_">
				<g id="line2d_10_1_">
					<g>
						<g>
							<path id="m9e082414cd_4_" class="st1" d="M14.3,426h-3.5"/>
						</g>
					</g>
				</g>
			</g>
			<g id="ytick_6_1_">
				<g id="line2d_11_1_">
					<g>
						<g>
							<path id="m9e082414cd_5_" class="st1" d="M14.3,398.4h-3.5"/>
						</g>
					</g>
				</g>
			</g>
		</g>
		<g id="patch_3_1_">
			<path class="st2" d="M14.3,536.7V398.4"/>
		</g>
		<g id="patch_4_1_">
			<path class="st2" d="M150.5,536.7V398.4"/>
		</g>
		<g id="patch_5_1_">
			<path class="st2" d="M14.3,536.7h136.2"/>
		</g>
		<g id="patch_6_1_">
			<path class="st2" d="M14.3,398.4h136.2"/>
		</g>
		<g id="text_1_1_">
			<g transform="translate(46.747187 79.97)scale(0.18 -0.18)">
				<g>
					<path id="DejaVuSans-40_9_" d="M31-2077.2c-4.4-7.5-7.6-14.9-9.7-22.2c-2.1-7.3-3.2-14.7-3.2-22.3c0-7.5,1.1-15,3.2-22.3
						s5.4-14.8,9.7-22.2h-7.8c-4.9,7.7-8.5,15.2-11,22.6s-3.6,14.7-3.6,22c0,7.3,1.2,14.6,3.6,21.9c2.4,7.4,6.1,14.9,11,22.6H31z"/>
				</g>
				<g>
					<path id="DejaVuSans-49_5_" d="M51.4-2144.8h16.1v55.6l-17.5-3.5v9l17.4,3.5h9.9v-64.6h16.1v-8.3h-42V-2144.8z"/>
				</g>
				<g>
					<path id="DejaVuSans-44_19_" d="M114.4-2140.7h10.3v-8.4l-8-15.6h-6.3l4,15.6V-2140.7z"/>
				</g>
				<g>
					<path id="DejaVuSans-32_19_" d="M134.4-2153.1"/>
				</g>
				<g>
					<path id="DejaVuSans-52_5_" d="M204-2088.8l-24.9-38.9H204V-2088.8z M201.4-2080.2h12.4v-47.5h10.4v-8.2h-10.4v-17.2H204v17.2
						h-32.9v9.5L201.4-2080.2z"/>
				</g>
				<g>
					<path id="DejaVuSans-44_18_" d="M241.6-2140.7h10.3v-8.4l-8-15.6h-6.3l4,15.6V-2140.7z"/>
				</g>
				<g>
					<path id="DejaVuSans-32_18_" d="M261.6-2153.1"/>
				</g>
				<g>
					<path id="DejaVuSans-49_1_" d="M305.8-2144.8h16.1v55.6l-17.5-3.5v9l17.4,3.5h9.9v-64.6h16.1v-8.3h-42V-2144.8z"/>
				</g>
				<g>
					<path id="DejaVuSans-41_9_" d="M365-2077.2h7.8c4.9-7.7,8.5-15.2,11-22.6c2.4-7.4,3.6-14.7,3.6-21.9c0-7.3-1.2-14.6-3.6-22
						c-2.4-7.4-6.1-14.9-11-22.6H365c4.3,7.5,7.6,14.9,9.7,22.2c2.1,7.4,3.2,14.8,3.2,22.3c0,7.5-1.1,14.9-3.2,22.3
						C372.6-2092.1,369.4-2084.7,365-2077.2z"/>
				</g>
			</g>
		</g>
	</g>
	<g id="axes_2_1_">
		<g id="patch_7_1_">
			<path class="st0" d="M164.8,536.7H301V398.4H164.8V536.7z"/>
		</g>
		<g id="matplotlib.axis_3_1_">
			<g id="xtick_6_1_">
				<g id="line2d_12_1_">
					<g>
						<g>
							<path id="m3392c6f13b_5_" class="st1" d="M164.8,536.7v3.5"/>
						</g>
					</g>
				</g>
			</g>
			<g id="xtick_7_1_">
				<g id="line2d_13_1_">
					<g>
						<g>
							<path id="m3392c6f13b_6_" class="st1" d="M198.8,536.7v3.5"/>
						</g>
					</g>
				</g>
			</g>
			<g id="xtick_8_1_">
				<g id="line2d_14_1_">
					<g>
						<g>
							<path id="m3392c6f13b_7_" class="st1" d="M232.9,536.7v3.5"/>
						</g>
					</g>
				</g>
			</g>
			<g id="xtick_9_1_">
				<g id="line2d_15_1_">
					<g>
						<g>
							<path id="m3392c6f13b_8_" class="st1" d="M266.9,536.7v3.5"/>
						</g>
					</g>
				</g>
			</g>
			<g id="xtick_10_1_">
				<g id="line2d_16_1_">
					<g>
						<g>
							<path id="m3392c6f13b_9_" class="st1" d="M301,536.7v3.5"/>
						</g>
					</g>
				</g>
			</g>
		</g>
		<g id="matplotlib.axis_4_1_">
			<g id="ytick_7_1_">
				<g id="line2d_17_1_">
					<g>
						<g>
							<path id="m9e082414cd_6_" class="st1" d="M164.8,536.7h-3.5"/>
						</g>
					</g>
				</g>
			</g>
			<g id="ytick_8_1_">
				<g id="line2d_18_1_">
					<g>
						<g>
							<path id="m9e082414cd_7_" class="st1" d="M164.8,509h-3.5"/>
						</g>
					</g>
				</g>
			</g>
			<g id="ytick_9_1_">
				<g id="line2d_19_1_">
					<g>
						<g>
							<path id="m9e082414cd_8_" class="st1" d="M164.8,481.4h-3.5"/>
						</g>
					</g>
				</g>
			</g>
			<g id="ytick_10_1_">
				<g id="line2d_20_1_">
					<g>
						<g>
							<path id="m9e082414cd_9_" class="st1" d="M164.8,453.7h-3.5"/>
						</g>
					</g>
				</g>
			</g>
			<g id="ytick_11_1_">
				<g id="line2d_21_1_">
					<g>
						<g>
							<path id="m9e082414cd_10_" class="st1" d="M164.8,426h-3.5"/>
						</g>
					</g>
				</g>
			</g>
			<g id="ytick_12_1_">
				<g id="line2d_22_1_">
					<g>
						<g>
							<path id="m9e082414cd_11_" class="st1" d="M164.8,398.4h-3.5"/>
						</g>
					</g>
				</g>
			</g>
		</g>
		<g id="patch_8_1_">
			<path class="st2" d="M164.8,536.7V398.4"/>
		</g>
		<g id="patch_9_1_">
			<path class="st2" d="M301,536.7V398.4"/>
		</g>
		<g id="patch_10_1_">
			<path class="st2" d="M164.8,536.7H301"/>
		</g>
		<g id="patch_11_1_">
			<path class="st2" d="M164.8,398.4H301"/>
		</g>
		<g id="text_2_1_">
			<g transform="translate(197.227188 79.97)scale(0.18 -0.18)">
				<g>
					<path id="DejaVuSans-40_8_" d="M31-2077.2c-4.4-7.5-7.6-14.9-9.7-22.2c-2.1-7.3-3.2-14.7-3.2-22.3c0-7.5,1.1-15,3.2-22.3
						s5.4-14.8,9.7-22.2h-7.8c-4.9,7.7-8.5,15.2-11,22.6s-3.6,14.7-3.6,22c0,7.3,1.2,14.6,3.6,21.9c2.4,7.4,6.1,14.9,11,22.6H31z"/>
				</g>
				<g>
					<path id="DejaVuSans-49_2_" d="M51.4-2144.8h16.1v55.6l-17.5-3.5v9l17.4,3.5h9.9v-64.6h16.1v-8.3h-42V-2144.8z"/>
				</g>
				<g>
					<path id="DejaVuSans-44_17_" d="M114.4-2140.7h10.3v-8.4l-8-15.6h-6.3l4,15.6V-2140.7z"/>
				</g>
				<g>
					<path id="DejaVuSans-32_17_" d="M134.4-2153.1"/>
				</g>
				<g>
					<path id="DejaVuSans-52_1_" d="M204-2088.8l-24.9-38.9H204V-2088.8z M201.4-2080.2h12.4v-47.5h10.4v-8.2h-10.4v-17.2H204v17.2
						h-32.9v9.5L201.4-2080.2z"/>
				</g>
				<g>
					<path id="DejaVuSans-44_16_" d="M241.6-2140.7h10.3v-8.4l-8-15.6h-6.3l4,15.6V-2140.7z"/>
				</g>
				<g>
					<path id="DejaVuSans-32_16_" d="M261.6-2153.1"/>
				</g>
				<g>
					<path id="DejaVuSans-50_7_" d="M312.6-2144.8H347v-8.3h-46.3v8.3c3.7,3.9,8.8,9.1,15.3,15.6c6.5,6.5,10.5,10.7,12.2,12.6
						c3.2,3.5,5.4,6.5,6.6,9c1.3,2.5,1.9,4.9,1.9,7.2c0,3.9-1.4,7-4.1,9.5c-2.7,2.4-6.3,3.7-10.6,3.7c-3.1,0-6.4-0.5-9.8-1.6
						c-3.4-1.1-7.1-2.7-11-4.9v10c4,1.6,7.7,2.8,11.1,3.6c3.5,0.8,6.6,1.2,9.5,1.2c7.6,0,13.6-1.9,18.1-5.7
						c4.5-3.8,6.7-8.8,6.7-15.1c0-3-0.6-5.8-1.7-8.5c-1.1-2.7-3.2-5.8-6.1-9.5c-0.8-0.9-3.4-3.7-7.8-8.2
						C326.7-2130.4,320.5-2136.7,312.6-2144.8z"/>
				</g>
				<g>
					<path id="DejaVuSans-41_8_" d="M365-2077.2h7.8c4.9-7.7,8.5-15.2,11-22.6c2.4-7.4,3.6-14.7,3.6-21.9c0-7.3-1.2-14.6-3.6-22
						c-2.4-7.4-6.1-14.9-11-22.6H365c4.3,7.5,7.6,14.9,9.7,22.2c2.1,7.4,3.2,14.8,3.2,22.3c0,7.5-1.1,14.9-3.2,22.3
						C372.6-2092.1,369.4-2084.7,365-2077.2z"/>
				</g>
			</g>
		</g>
	</g>
	<g id="axes_3_1_">
		<g id="patch_12_1_">
			<path class="st0" d="M315.3,536.7h136.2V398.4H315.3V536.7z"/>
		</g>
		<g id="matplotlib.axis_5_1_">
			<g id="xtick_11_1_">
				<g id="line2d_23_1_">
					<g>
						<g>
							<path id="m3392c6f13b_10_" class="st1" d="M315.3,536.7v3.5"/>
						</g>
					</g>
				</g>
			</g>
			<g id="xtick_12_1_">
				<g id="line2d_24_1_">
					<g>
						<g>
							<path id="m3392c6f13b_11_" class="st1" d="M349.3,536.7v3.5"/>
						</g>
					</g>
				</g>
			</g>
			<g id="xtick_13_1_">
				<g id="line2d_25_1_">
					<g>
						<g>
							<path id="m3392c6f13b_12_" class="st1" d="M383.4,536.7v3.5"/>
						</g>
					</g>
				</g>
			</g>
			<g id="xtick_14_1_">
				<g id="line2d_26_1_">
					<g>
						<g>
							<path id="m3392c6f13b_13_" class="st1" d="M417.4,536.7v3.5"/>
						</g>
					</g>
				</g>
			</g>
			<g id="xtick_15_1_">
				<g id="line2d_27_1_">
					<g>
						<g>
							<path id="m3392c6f13b_14_" class="st1" d="M451.4,536.7v3.5"/>
						</g>
					</g>
				</g>
			</g>
		</g>
		<g id="matplotlib.axis_6_1_">
			<g id="ytick_13_1_">
				<g id="line2d_28_1_">
					<g>
						<g>
							<path id="m9e082414cd_12_" class="st1" d="M315.3,536.7h-3.5"/>
						</g>
					</g>
				</g>
			</g>
			<g id="ytick_14_1_">
				<g id="line2d_29_1_">
					<g>
						<g>
							<path id="m9e082414cd_13_" class="st1" d="M315.3,509h-3.5"/>
						</g>
					</g>
				</g>
			</g>
			<g id="ytick_15_1_">
				<g id="line2d_30_1_">
					<g>
						<g>
							<path id="m9e082414cd_14_" class="st1" d="M315.3,481.4h-3.5"/>
						</g>
					</g>
				</g>
			</g>
			<g id="ytick_16_1_">
				<g id="line2d_31_1_">
					<g>
						<g>
							<path id="m9e082414cd_15_" class="st1" d="M315.3,453.7h-3.5"/>
						</g>
					</g>
				</g>
			</g>
			<g id="ytick_17_1_">
				<g id="line2d_32_1_">
					<g>
						<g>
							<path id="m9e082414cd_16_" class="st1" d="M315.3,426h-3.5"/>
						</g>
					</g>
				</g>
			</g>
			<g id="ytick_18_1_">
				<g id="line2d_33_1_">
					<g>
						<g>
							<path id="m9e082414cd_17_" class="st1" d="M315.3,398.4h-3.5"/>
						</g>
					</g>
				</g>
			</g>
		</g>
		<g id="patch_13_1_">
			<path class="st2" d="M315.3,536.7V398.4"/>
		</g>
		<g id="patch_14_1_">
			<path class="st2" d="M451.4,536.7V398.4"/>
		</g>
		<g id="patch_15_1_">
			<path class="st2" d="M315.3,536.7h136.2"/>
		</g>
		<g id="patch_16_1_">
			<path class="st2" d="M315.3,398.4h136.2"/>
		</g>
		<g id="text_3_1_">
			<g transform="translate(347.707188 79.97)scale(0.18 -0.18)">
				<g>
					<path id="DejaVuSans-40_7_" d="M31-2077.2c-4.4-7.5-7.6-14.9-9.7-22.2c-2.1-7.3-3.2-14.7-3.2-22.3c0-7.5,1.1-15,3.2-22.3
						s5.4-14.8,9.7-22.2h-7.8c-4.9,7.7-8.5,15.2-11,22.6s-3.6,14.7-3.6,22c0,7.3,1.2,14.6,3.6,21.9c2.4,7.4,6.1,14.9,11,22.6H31z"/>
				</g>
				<g>
					<path id="DejaVuSans-49_3_" d="M51.4-2144.8h16.1v55.6l-17.5-3.5v9l17.4,3.5h9.9v-64.6h16.1v-8.3h-42V-2144.8z"/>
				</g>
				<g>
					<path id="DejaVuSans-44_15_" d="M114.4-2140.7h10.3v-8.4l-8-15.6h-6.3l4,15.6V-2140.7z"/>
				</g>
				<g>
					<path id="DejaVuSans-32_15_" d="M134.4-2153.1"/>
				</g>
				<g>
					<path id="DejaVuSans-52_2_" d="M204-2088.8l-24.9-38.9H204V-2088.8z M201.4-2080.2h12.4v-47.5h10.4v-8.2h-10.4v-17.2H204v17.2
						h-32.9v9.5L201.4-2080.2z"/>
				</g>
				<g>
					<path id="DejaVuSans-44_14_" d="M241.6-2140.7h10.3v-8.4l-8-15.6h-6.3l4,15.6V-2140.7z"/>
				</g>
				<g>
					<path id="DejaVuSans-32_14_" d="M261.6-2153.1"/>
				</g>
				<g>
					<path id="DejaVuSans-51_7_" d="M334-2113.8c4.7-1,8.4-3.1,11-6.3c2.7-3.2,4-7.1,4-11.8c0-7.2-2.5-12.8-7.4-16.7
						c-4.9-3.9-12-5.9-21.1-5.9c-3.1,0-6.2,0.3-9.4,0.9s-6.6,1.5-10,2.7v9.5c2.7-1.6,5.7-2.8,9-3.6c3.3-0.8,6.7-1.2,10.2-1.2
						c6.2,0,10.9,1.2,14.1,3.7c3.2,2.4,4.9,6,4.9,10.6c0,4.3-1.5,7.7-4.5,10.1c-3,2.4-7.2,3.6-12.6,3.6h-8.5v8.1h8.9
						c4.8,0,8.6,1,11.1,2.9c2.6,1.9,3.9,4.7,3.9,8.4c0,3.7-1.3,6.6-4,8.6c-2.6,2-6.4,3-11.4,3c-2.7,0-5.6-0.3-8.7-0.9
						c-3.1-0.6-6.5-1.5-10.2-2.7v8.8c3.8,1,7.3,1.8,10.5,2.3s6.4,0.8,9.2,0.8c7.5,0,13.4-1.7,17.8-5.1c4.4-3.4,6.5-8,6.5-13.8
						c0-4-1.2-7.5-3.5-10.2S338.2-2112.7,334-2113.8z"/>
				</g>
				<g>
					<path id="DejaVuSans-41_7_" d="M365-2077.2h7.8c4.9-7.7,8.5-15.2,11-22.6c2.4-7.4,3.6-14.7,3.6-21.9c0-7.3-1.2-14.6-3.6-22
						c-2.4-7.4-6.1-14.9-11-22.6H365c4.3,7.5,7.6,14.9,9.7,22.2c2.1,7.4,3.2,14.8,3.2,22.3c0,7.5-1.1,14.9-3.2,22.3
						C372.6-2092.1,369.4-2084.7,365-2077.2z"/>
				</g>
			</g>
		</g>
	</g>
	<g id="axes_4_1_">
		<g id="patch_17_1_">
			<path class="st0" d="M465.7,536.7h136.2V398.4H465.7V536.7z"/>
		</g>
		<g id="matplotlib.axis_7_1_">
			<g id="xtick_16_1_">
				<g id="line2d_34_1_">
					<g>
						<g>
							<path id="m3392c6f13b_15_" class="st1" d="M465.7,536.7v3.5"/>
						</g>
					</g>
				</g>
			</g>
			<g id="xtick_17_1_">
				<g id="line2d_35_1_">
					<g>
						<g>
							<path id="m3392c6f13b_16_" class="st1" d="M499.8,536.7v3.5"/>
						</g>
					</g>
				</g>
			</g>
			<g id="xtick_18_1_">
				<g id="line2d_36_1_">
					<g>
						<g>
							<path id="m3392c6f13b_17_" class="st1" d="M533.8,536.7v3.5"/>
						</g>
					</g>
				</g>
			</g>
			<g id="xtick_19_1_">
				<g id="line2d_37_1_">
					<g>
						<g>
							<path id="m3392c6f13b_18_" class="st1" d="M567.9,536.7v3.5"/>
						</g>
					</g>
				</g>
			</g>
			<g id="xtick_20_1_">
				<g id="line2d_38_1_">
					<g>
						<g>
							<path id="m3392c6f13b_19_" class="st1" d="M601.9,536.7v3.5"/>
						</g>
					</g>
				</g>
			</g>
		</g>
		<g id="matplotlib.axis_8_1_">
			<g id="ytick_19_1_">
				<g id="line2d_39_1_">
					<g>
						<g>
							<path id="m9e082414cd_18_" class="st1" d="M465.7,536.7h-3.5"/>
						</g>
					</g>
				</g>
			</g>
			<g id="ytick_20_1_">
				<g id="line2d_40_1_">
					<g>
						<g>
							<path id="m9e082414cd_19_" class="st1" d="M465.7,509h-3.5"/>
						</g>
					</g>
				</g>
			</g>
			<g id="ytick_21_1_">
				<g id="line2d_41_1_">
					<g>
						<g>
							<path id="m9e082414cd_20_" class="st1" d="M465.7,481.4h-3.5"/>
						</g>
					</g>
				</g>
			</g>
			<g id="ytick_22_1_">
				<g id="line2d_42_1_">
					<g>
						<g>
							<path id="m9e082414cd_21_" class="st1" d="M465.7,453.7h-3.5"/>
						</g>
					</g>
				</g>
			</g>
			<g id="ytick_23_1_">
				<g id="line2d_43_1_">
					<g>
						<g>
							<path id="m9e082414cd_22_" class="st1" d="M465.7,426h-3.5"/>
						</g>
					</g>
				</g>
			</g>
			<g id="ytick_24_1_">
				<g id="line2d_44_1_">
					<g>
						<g>
							<path id="m9e082414cd_23_" class="st1" d="M465.7,398.4h-3.5"/>
						</g>
					</g>
				</g>
			</g>
		</g>
		<g id="patch_18_1_">
			<path class="st2" d="M465.7,536.7V398.4"/>
		</g>
		<g id="patch_19_1_">
			<path class="st2" d="M601.9,536.7V398.4"/>
		</g>
		<g id="patch_20_1_">
			<path class="st2" d="M465.7,536.7h136.2"/>
		</g>
		<g id="patch_21_1_">
			<path class="st2" d="M465.7,398.4h136.2"/>
		</g>
		<g id="text_4_1_">
			<g transform="translate(498.187188 79.97)scale(0.18 -0.18)">
				<g>
					<path id="DejaVuSans-40_6_" d="M31-2077.2c-4.4-7.5-7.6-14.9-9.7-22.2c-2.1-7.3-3.2-14.7-3.2-22.3c0-7.5,1.1-15,3.2-22.3
						s5.4-14.8,9.7-22.2h-7.8c-4.9,7.7-8.5,15.2-11,22.6s-3.6,14.7-3.6,22c0,7.3,1.2,14.6,3.6,21.9c2.4,7.4,6.1,14.9,11,22.6H31z"/>
				</g>
				<g>
					<path id="DejaVuSans-49_4_" d="M51.4-2144.8h16.1v55.6l-17.5-3.5v9l17.4,3.5h9.9v-64.6h16.1v-8.3h-42V-2144.8z"/>
				</g>
				<g>
					<path id="DejaVuSans-44_13_" d="M114.4-2140.7h10.3v-8.4l-8-15.6h-6.3l4,15.6V-2140.7z"/>
				</g>
				<g>
					<path id="DejaVuSans-32_13_" d="M134.4-2153.1"/>
				</g>
				<g>
					<path id="DejaVuSans-52_3_" d="M204-2088.8l-24.9-38.9H204V-2088.8z M201.4-2080.2h12.4v-47.5h10.4v-8.2h-10.4v-17.2H204v17.2
						h-32.9v9.5L201.4-2080.2z"/>
				</g>
				<g>
					<path id="DejaVuSans-44_12_" d="M241.6-2140.7h10.3v-8.4l-8-15.6h-6.3l4,15.6V-2140.7z"/>
				</g>
				<g>
					<path id="DejaVuSans-32_12_" d="M261.6-2153.1"/>
				</g>
				<g>
					<path id="DejaVuSans-52_4_" d="M331.2-2088.8l-24.9-38.9h24.9V-2088.8z M328.6-2080.2H341v-47.5h10.4v-8.2H341v-17.2h-9.8v17.2
						h-32.9v9.5L328.6-2080.2z"/>
				</g>
				<g>
					<path id="DejaVuSans-41_6_" d="M365-2077.2h7.8c4.9-7.7,8.5-15.2,11-22.6c2.4-7.4,3.6-14.7,3.6-21.9c0-7.3-1.2-14.6-3.6-22
						c-2.4-7.4-6.1-14.9-11-22.6H365c4.3,7.5,7.6,14.9,9.7,22.2c2.1,7.4,3.2,14.8,3.2,22.3c0,7.5-1.1,14.9-3.2,22.3
						C372.6-2092.1,369.4-2084.7,365-2077.2z"/>
				</g>
			</g>
		</g>
	</g>
</g>
<text transform="matrix(1 0 0 1 10.8 21.28)" class="st3 st4">2 rows, 3 columns:</text>
<text transform="matrix(1 0 0 1 10.8 383)" class="st3 st4">1 row, 4 columns:</text>
</svg>
